<svg width="22" height="20" viewBox="0 0 22 20" fill="none" xmlns="http://www.w3.org/2000/svg">
<g clip-path="url(#clip0)">
<path d="M19.3827 6.05244C19.3827 6.1478 19.3827 6.23917 19.3827 6.32658C19.3827 6.41399 19.3827 6.50536 19.3827 6.60072C19.3827 7.95154 19.1105 9.31823 18.5662 10.7008C18.0218 12.0834 17.2223 13.3349 16.1676 14.4553C15.1129 15.5757 13.8116 16.4855 12.2636 17.1847C10.7156 17.8999 8.92942 18.2575 6.90509 18.2575C5.66327 18.2575 4.47251 18.0946 3.33276 17.7688C2.19301 17.443 1.13834 16.9861 0.168701 16.3981C0.355824 16.4299 0.534439 16.4458 0.704551 16.4458C0.874662 16.4458 1.05328 16.4458 1.2404 16.4458C2.26107 16.4458 3.23494 16.2948 4.16205 15.9928C5.08916 15.6909 5.92695 15.2618 6.67544 14.7056C5.72281 14.6897 4.87227 14.4156 4.12378 13.8832C3.37529 13.3508 2.85645 12.6794 2.56726 11.8689C2.70335 11.8848 2.84369 11.9007 2.98829 11.9166C3.13288 11.9325 3.27322 11.9404 3.40931 11.9404C3.61345 11.9404 3.80907 11.9245 3.99619 11.8927C4.18332 11.8609 4.37044 11.8292 4.55756 11.7974C3.5539 11.6067 2.71611 11.1379 2.04417 10.3909C1.37223 9.64402 1.03627 8.76997 1.03627 7.76877V7.7211C1.34247 7.86413 1.66142 7.98331 1.99314 8.07866C2.32486 8.17402 2.66933 8.22964 3.02656 8.24553C2.43117 7.88001 1.95487 7.39531 1.59763 6.79142C1.2404 6.18752 1.06178 5.53596 1.06178 4.83671C1.06178 4.4553 1.11707 4.08979 1.22764 3.74017C1.33821 3.39054 1.48706 3.06476 1.67418 2.76281C2.21854 3.3826 2.82243 3.94676 3.48586 4.4553C4.1493 4.96385 4.86375 5.40087 5.62926 5.76639C6.39476 6.13191 7.21128 6.4259 8.07885 6.64839C8.92941 6.87088 9.80547 7.00596 10.7071 7.05364C10.673 6.89472 10.6475 6.7358 10.6305 6.57688C10.6135 6.41796 10.605 6.25904 10.605 6.10012C10.605 4.97179 11.0303 4.00636 11.8808 3.20381C12.7314 2.40127 13.7691 2 14.9939 2C15.6233 2 16.2144 2.11919 16.7673 2.35757C17.3201 2.59595 17.7922 2.91378 18.1834 3.31108C18.6938 3.21573 19.1828 3.08463 19.6506 2.91776C20.1184 2.75089 20.5565 2.54827 20.9647 2.30989C20.8116 2.78665 20.5692 3.2197 20.2375 3.60906C19.9058 3.99841 19.5103 4.32022 19.051 4.57449C19.4933 4.52682 19.9271 4.44736 20.3523 4.33611C20.7776 4.22487 21.1859 4.08979 21.5771 3.93087C21.2709 4.34406 20.935 4.72944 20.5692 5.08701C20.2035 5.44458 19.808 5.76639 19.3827 6.05244Z" fill="white"/>
</g>
<defs>
<clipPath id="clip0">
<rect width="21.4084" height="20" fill="white" transform="translate(0.168701)"/>
</clipPath>
</defs>
</svg>
