<svg width="160" height="160" viewBox="0 0 160 160" fill="none" xmlns="http://www.w3.org/2000/svg">
<rect width="160" height="160" fill="white"/>
<path d="M62.8037 156C96.3847 156 123.607 128.777 123.607 95.1963C123.607 61.6153 96.3847 34.3926 62.8037 34.3926C29.2228 34.3926 2 61.6153 2 95.1963C2 128.777 29.2228 156 62.8037 156Z" fill="#E7F3F7"/>
<path d="M98.9399 50.4547L97.9115 4L91.7627 47.8491L98.9399 50.4547Z" fill="#C2C2C2"/>
<path d="M102.425 38.1003L100.491 46.7162H106.789L108.473 38.0977L102.425 38.1003Z" fill="#828282"/>
<path d="M84.1249 60.4671L80.5682 15.2246L92.1706 56.3963L84.1249 60.4671Z" fill="#828282"/>
<path d="M120.525 150.589L121.21 150.4C118.048 141.608 121.178 130.952 121.21 130.858L120.517 130.701C120.485 130.808 117.304 141.637 120.517 150.589" fill="#828282"/>
<path d="M123.445 129.276C128.203 125.413 139.963 119.27 147.156 118.132C154.349 116.994 157.983 117.764 157.583 119.76C157.266 121.345 150.987 131.05 144.399 136.291L138.538 133.443L142.699 137.54C141.658 138.254 140.529 138.829 139.339 139.251C131.326 141.888 119.819 142.584 117.76 143.415C115.701 144.246 119.358 132.609 123.443 129.295" fill="#C2C2C2"/>
<path d="M150.206 91.9275C150.206 91.9275 128.049 127.443 122.233 131.967C116.417 136.491 116.795 120.13 124.069 107.497C131.342 94.8634 143.602 88.6293 150.22 91.9275" fill="#828282"/>
<path d="M150.206 91.9277C150.206 91.9277 138.298 98.2098 133.987 104.161C126.088 115.071 120.227 126.274 119.713 132.543C119.801 132.865 120.557 132.785 120.805 132.809C124.814 133.273 148.275 96.9123 150.206 91.9277Z" fill="#C2C2C2"/>
<path d="M117.866 143.283C118.602 142.178 123.051 137.918 129.29 133.375C134.619 129.491 142.574 124.456 150.121 122.538L149.921 121.936C135.535 125.588 118.847 140.566 117.246 142.969C112.495 150.098 113.265 150.191 117.866 143.283Z" fill="#828282"/>
<path d="M37.2629 118.212C37.2629 118.212 54.6198 116.31 69.2726 128.743C83.9254 141.177 84.1385 148.53 84.1385 148.53C84.1385 148.53 79.6734 145.708 72.9225 146.974C68.0365 147.888 68.4307 141.342 66.2621 140.132C64.0935 138.923 60.1799 140.188 58.0353 137.932C55.8906 135.675 57.6356 135.489 54.5292 132.87C51.7958 130.568 49.4514 133.619 46.8938 129.622C45.5111 127.47 43.2839 121.097 37.2763 118.212" fill="#828282"/>
<path d="M80.9652 146.632C80.9652 146.632 79.7983 104.04 45.5828 90.3281C45.5828 90.3281 48.1164 100.452 48.5506 103.681C48.9449 106.611 51.4386 110.267 53.3887 111.561C55.3389 112.856 58.2827 114.7 59.1193 116.49C59.9558 118.28 58.5598 122.759 60.0597 125.159C61.5596 127.56 64.0799 127.661 65.5159 129.739C66.9519 131.817 66.9971 135.349 69.0672 136.743C71.1372 138.136 74.3715 138.429 76.247 140.35C78.1226 142.271 80.9652 146.632 80.9652 146.632Z" fill="#C2C2C2"/>
<path d="M68.9951 109.533L50.6178 108.587L50.2075 107.945L68.5581 108.891L68.9951 109.533Z" fill="#828282"/>
<path d="M70.6494 112.141L56.8065 113.95L56.1085 113.417L70.2977 111.562L70.6494 112.141Z" fill="#828282"/>
<path d="M78.4207 130.976L66.2083 131.066L65.9286 130.448L78.2556 130.357L78.4207 130.976Z" fill="#828282"/>
<path d="M78.9244 132.982L67.5086 134.689L67.2688 134.098L78.7779 132.377L78.9244 132.982Z" fill="#828282"/>
<path d="M55.7862 95.8575L46.8454 95.5511L46.6989 94.9277L54.8378 95.2048L55.7862 95.8575Z" fill="#828282"/>
<path d="M73.535 44.0234C69.227 44.0234 65.3347 48.4646 65.3374 52.7698L65.356 144.392C65.356 148.698 69.5707 153.029 73.8813 153.029H112.706C117.014 153.029 121.332 148.801 121.33 144.504L121.311 52.6712C121.311 48.3633 117.419 44.0314 113.111 44.0341L73.535 44.0234Z" fill="#C2C2C2"/>
<path d="M65.3502 65.1387H63.0431V69.8329H65.3502V65.1387Z" fill="#1C1C1C"/>
<path d="M123.629 75.3672H121.322V84.9661H123.629V75.3672Z" fill="#1C1C1C"/>
<path d="M65.3532 72.1816H63.046V79.0072H65.3532V72.1816Z" fill="#1C1C1C"/>
<path d="M65.3532 81.3535H63.046V88.179H65.3532V81.3535Z" fill="#1C1C1C"/>
<path d="M92.4074 60.1751C88.5391 59.2 82.9684 61.9388 82.0919 66.4678C81.2154 70.9969 80.3975 78.896 83.2641 79.9004C84.5349 80.3453 89.3916 79.9004 89.3916 79.9004L88.3686 85.3033H97.2775L95.8149 77.564C95.8149 77.564 105.155 63.3987 92.4021 60.1778" fill="#FF3126"/>
<path d="M88.667 65.8684C89.7326 68.9961 88.667 73.5944 90.777 69.6168C91.8133 67.6747 93.3798 68.1835 94.2031 69.7554C95.2181 71.6895 92.9296 73.3413 93.1374 73.994C93.3452 74.6467 95.306 77.476 95.8015 77.5506C96.2971 77.6252 101.284 69.4943 99.0998 64.0541C96.702 58.0997 86.5783 57.7214 84.3351 62.5435C85.1956 62.5275 87.588 62.7726 88.6483 65.8684" fill="white"/>
<path d="M121.33 111.936C116.052 90.7637 106.845 87.1591 106.845 87.1591C103.744 85.0624 98.9404 84.5616 97.1581 84.1113C93.8572 85.875 90.3752 85.5073 88.4677 84.5642C85.4519 84.7507 81.9672 86.0961 79.2311 88.3793C79.2311 88.3793 69.8054 94.6427 65.3616 123.948C64.9726 126.514 65.3402 147.331 65.3402 147.331L70.554 153.017L77.6486 152.798L77.7258 152.324L110.913 152.748C110.996 153.222 111.041 153.478 111.041 153.478L116.05 153.009C116.05 153.009 120.405 152.841 121.338 147.318C123.203 136.313 122.201 115.423 121.338 111.925" fill="white"/>
<path d="M88.4672 84.5701C81.4978 105.947 83.2482 132.714 83.2482 132.714L97.1577 84.1172C97.1577 84.1172 91.4564 85.6677 88.4672 84.5701Z" fill="black"/>
<path d="M100.813 99.4102L99.9155 99.2237C101.064 93.661 101.469 86.7023 97.0649 84.1394L96.8491 83.0098C101.277 84.9999 102.622 90.6559 100.813 99.4102Z" fill="#1C1C1C"/>
<path d="M81.2103 101.161L80.2965 101.089C80.5456 98.5612 81.039 96.063 81.7698 93.6298C83.3363 88.4401 85.726 84.982 88.7418 83.3516L88.5101 84.5797C82.3266 88.7092 81.221 101.036 81.2103 101.161Z" fill="#1C1C1C"/>
<path d="M100.624 119.661L99.9629 119.024C100.641 118.322 101.103 117.44 101.295 116.483L103.426 106.023C103.723 104.711 103.548 103.336 102.933 102.139C102.634 101.579 102.213 101.094 101.701 100.72C101.19 100.345 100.6 100.091 99.9762 99.9755C97.328 99.4427 95.0688 101.078 94.4774 103.972L92.3461 114.431C92.1284 115.498 92.2582 116.606 92.7164 117.594L91.8852 117.977C91.3481 116.811 91.1978 115.505 91.4562 114.247L93.5876 103.788C94.2856 100.364 96.9923 98.4277 100.168 99.0751C100.921 99.2194 101.633 99.5295 102.252 99.9829C102.871 100.436 103.381 101.022 103.746 101.697C104.464 103.084 104.671 104.679 104.332 106.204L102.201 116.664C101.971 117.792 101.424 118.831 100.624 119.658" fill="#1C1C1C"/>
<path d="M82.6143 103.007C82.7502 104.36 82.1987 105.546 81.3862 105.652C80.5736 105.759 79.7877 104.749 79.6651 103.396C79.5426 102.042 80.0781 100.859 80.8933 100.75C81.7085 100.641 82.4785 101.653 82.6143 103.007Z" fill="#1C1C1C"/>
<path d="M93.4548 118.268C93.4553 118.506 93.3851 118.739 93.2531 118.938C93.1211 119.136 92.9332 119.291 92.7132 119.382C92.4933 119.474 92.2511 119.498 92.0173 119.452C91.7835 119.406 91.5687 119.291 91.4 119.123C91.2314 118.955 91.1164 118.74 91.0697 118.507C91.023 118.273 91.0467 118.031 91.1378 117.81C91.2289 117.59 91.3832 117.402 91.5813 117.27C91.7794 117.137 92.0123 117.066 92.2506 117.066C92.5693 117.067 92.8748 117.194 93.1004 117.419C93.326 117.644 93.4534 117.949 93.4548 118.268Z" fill="#1C1C1C"/>
<path d="M101.026 119.88C101.027 120.117 100.957 120.349 100.825 120.547C100.694 120.744 100.507 120.898 100.288 120.989C100.069 121.08 99.8278 121.105 99.595 121.059C99.3623 121.013 99.1484 120.899 98.9805 120.731C98.8126 120.564 98.6981 120.35 98.6517 120.117C98.6052 119.885 98.6288 119.644 98.7194 119.424C98.8101 119.205 98.9637 119.018 99.161 118.886C99.3582 118.754 99.5901 118.684 99.8273 118.684C100.145 118.684 100.449 118.81 100.674 119.034C100.899 119.258 101.025 119.562 101.026 119.88Z" fill="#1C1C1C"/>
<path d="M112.887 154.423H73.82C71.1832 154.42 68.6549 153.372 66.7899 151.508C64.925 149.644 63.8756 147.117 63.872 144.48L63.8534 52.5884C63.8583 49.9523 64.9082 47.4257 66.773 45.5624C68.6378 43.6991 71.1652 42.6513 73.8013 42.6484H112.868C115.504 42.6498 118.032 43.6964 119.898 45.5586C121.764 47.4209 122.815 49.9469 122.822 52.583V144.477C122.819 147.114 121.77 149.641 119.906 151.506C118.043 153.37 115.515 154.419 112.879 154.423H112.887ZM73.8013 44.7824C71.7305 44.7859 69.7456 45.6105 68.2818 47.0753C66.818 48.5401 65.9948 50.5255 65.9927 52.5963L66.0114 144.488C66.0142 146.559 66.8384 148.545 68.3033 150.009C69.7681 151.474 71.754 152.297 73.8253 152.299H112.89C114.96 152.294 116.944 151.467 118.407 150.001C119.869 148.534 120.69 146.548 120.69 144.477V52.5857C120.687 50.5144 119.863 48.5288 118.398 47.0645C116.933 45.6001 114.948 44.7765 112.876 44.7744L73.8013 44.7824Z" fill="#1C1C1C"/>
<path d="M80.7414 49.2206C80.7414 51.4816 79.8432 53.65 78.2444 55.2488C76.6456 56.8476 74.4772 57.7458 72.2162 57.7458H42.3138C40.0528 57.7458 37.8844 56.8476 36.2856 55.2488C34.6868 53.65 33.7886 51.4816 33.7886 49.2206C33.7886 46.9595 34.6868 44.7911 36.2856 43.1923C37.8844 41.5935 40.0528 40.6953 42.3138 40.6953H72.2188C74.4799 40.6953 76.6483 41.5935 78.2471 43.1923C79.8459 44.7911 80.7441 46.9595 80.7441 49.2206" fill="white"/>
<path d="M52.4665 67.1692C52.4665 68.571 51.9096 69.9155 50.9184 70.9067C49.9271 71.898 48.5827 72.4548 47.1808 72.4548H37.8164C36.4347 72.4238 35.1201 71.8532 34.1539 70.8651C33.1877 69.8769 32.6467 68.5498 32.6467 67.1679C32.6467 65.7859 33.1877 64.4588 34.1539 63.4706C35.1201 62.4825 36.4347 61.9119 37.8164 61.8809H47.1808C48.5829 61.8809 49.9276 62.4377 50.9193 63.4288C51.911 64.42 52.4684 65.7644 52.4691 67.1665" fill="#FFEDEB"/>
<path d="M39.4151 67.0679C39.4151 67.2414 39.3636 67.4109 39.2672 67.5551C39.1708 67.6993 39.0337 67.8117 38.8734 67.8779C38.7131 67.9442 38.5367 67.9614 38.3666 67.9274C38.1965 67.8933 38.0404 67.8096 37.9179 67.6867C37.7954 67.5639 37.7121 67.4075 37.6786 67.2373C37.6451 67.0671 37.6628 66.8908 37.7296 66.7306C37.7963 66.5705 37.9091 66.4338 38.0536 66.3378C38.1981 66.2418 38.3678 66.1909 38.5413 66.1914C38.6563 66.1914 38.7701 66.2141 38.8763 66.2582C38.9825 66.3023 39.0789 66.3669 39.1601 66.4483C39.2413 66.5297 39.3056 66.6264 39.3494 66.7327C39.3931 66.839 39.4155 66.9529 39.4151 67.0679Z" fill="#DE3831"/>
<path d="M43.3106 67.0652C43.3111 67.2387 43.2602 67.4084 43.1642 67.5529C43.0682 67.6974 42.9315 67.8102 42.7714 67.8769C42.6113 67.9437 42.435 67.9614 42.2648 67.9279C42.0946 67.8944 41.9381 67.8111 41.8153 67.6886C41.6924 67.5662 41.6087 67.41 41.5747 67.2399C41.5406 67.0698 41.5578 66.8934 41.6241 66.7331C41.6903 66.5728 41.8027 66.4357 41.9469 66.3393C42.0911 66.2429 42.2606 66.1914 42.4341 66.1914C42.6661 66.1914 42.8887 66.2834 43.053 66.4472C43.2173 66.611 43.3099 66.8332 43.3106 67.0652Z" fill="#DE3831"/>
<path d="M47.2024 67.0652C47.2024 67.2381 47.1511 67.407 47.0551 67.5507C46.9591 67.6944 46.8226 67.8064 46.663 67.8726C46.5033 67.9387 46.3276 67.956 46.1581 67.9223C45.9886 67.8886 45.8329 67.8053 45.7107 67.6831C45.5884 67.5609 45.5052 67.4052 45.4715 67.2357C45.4378 67.0662 45.4551 66.8905 45.5212 66.7308C45.5874 66.5712 45.6994 66.4347 45.8431 66.3387C45.9868 66.2427 46.1557 66.1914 46.3286 66.1914C46.5599 66.1928 46.7813 66.2853 46.9449 66.4489C47.1085 66.6125 47.201 66.8339 47.2024 67.0652Z" fill="#DE3831"/>
<path d="M110.508 65.0055L102.425 38.1003L108.473 38.0977L110.508 65.0055Z" fill="#C2C2C2"/>
<path d="M33.9195 153.905L24.7788 154.198L24.9919 150.996L28.8629 149.957L33.9195 152.317V153.905Z" fill="black"/>
<path d="M27.8904 129.023C27.9411 125.847 28.6018 116.264 28.6018 116.264C28.6018 116.264 19.7621 97.8125 17.9452 102.216C17.9452 102.216 24.0727 123.703 24.2779 125.536C24.483 127.368 22.9325 130.89 23.9475 137.205C24.4537 140.362 25.5806 150.856 25.5806 150.856L28.2448 150.128C28.2448 150.128 27.8531 131.266 27.8878 129.028" fill="#DE3831"/>
<path d="M20.38 65.3C22.3115 64.8097 24.9783 65.1987 25.5298 68.4356C25.9161 70.7028 26.3796 74.6378 24.949 75.1386C24.3149 75.3624 21.8879 75.1386 21.8879 75.1386L22.5779 78.7832L17.9529 77.8347L18.6829 73.9717C18.6829 73.9717 14.018 66.9064 20.38 65.2973" fill="#DE3831"/>
<path d="M13.496 81.0703C13.496 81.0703 6.26286 93.9328 7.58694 97.8384C9.29465 102.876 15.3742 104.275 15.3742 104.275L13.496 81.073" fill="#6FABD9"/>
<path d="M12.1587 108.741C12.1587 108.741 13.2403 116.15 13.616 125.747C13.9437 134.163 12.164 134.205 13.6879 146.039L13.8851 150.425L16.3227 151.607C16.3227 151.607 16.8955 138.287 20.0525 106.722C20.0525 106.722 13.925 104.324 12.1614 108.741" fill="#DE3831"/>
<path d="M17.2094 154.551H12.8188V153.363L13.6208 149.998H16.4421L17.2094 153.36V154.551Z" fill="black"/>
<path d="M31.7583 111.288L32.4217 113.685L34.0521 113.448L34.0814 111.205L31.7583 111.288Z" fill="#DE3831"/>
<path d="M25.6046 78.3908C25.6046 78.3908 31.6895 80.7672 33.0242 97.0398C33.906 107.827 34.8145 112.036 34.8145 112.036L31.7241 112.082C31.7241 112.082 25.6818 96.9892 25.1357 90.2915C24.8693 87.1265 25.6046 78.3828 25.6046 78.3828" fill="#6FABD9"/>
<path d="M35.0859 115.503C35.0033 113.846 34.1002 112.541 33.0692 112.591C32.7633 112.613 32.4744 112.74 32.2513 112.951C32.0088 113.167 32.2193 114.483 32.3578 115.04C32.4335 115.35 32.471 115.669 32.4697 115.988C32.4902 116.619 32.3273 117.243 32.0009 117.784C32.3685 118.317 32.8507 118.628 33.3676 118.602C34.4012 118.551 35.1712 117.163 35.0859 115.503Z" fill="#DE3831"/>
<path d="M18.3608 77.2354C16.3866 77.358 14.2127 77.7043 13.6053 79.7637C13.1977 82.5744 13.8531 90.4869 12.156 99.6808C10.792 112.594 10.9704 127.708 10.9704 127.708L29.8352 127.843C29.8352 127.843 30.0723 113.686 28.1355 100.888C26.8221 92.2185 27.9064 83.6667 26.6889 79.7584C26.1134 77.9148 23.5745 77.5604 22.301 77.3153C20.9911 77.1976 19.6745 77.1709 18.3608 77.2354Z" fill="#6FABD9"/>
<path d="M16.6289 65.1262C10.1604 69.951 14.1113 90.9444 8.823 94.1973C20.9981 94.6289 20.0124 72.1995 20.0124 72.1995C20.1216 71.8745 18.9787 71.0513 19.4796 70.0842C19.8898 69.3009 20.6731 69.0452 21.1899 70.0149C21.1899 70.0149 22.538 66.0187 24.1205 65.723C23.0548 63.7142 18.3233 63.5437 16.6316 65.1262" fill="#1E1E1E"/>
</svg>
