<svg width="136" height="136" viewBox="0 0 136 136" fill="none" xmlns="http://www.w3.org/2000/svg">
<rect width="136" height="136" fill="white"/>
<path d="M62.8372 122.376C95.2496 122.376 121.525 96.1002 121.525 63.6878C121.525 31.2754 95.2496 5 62.8372 5C30.4248 5 4.14941 31.2754 4.14941 63.6878C4.14941 96.1002 30.4248 122.376 62.8372 122.376Z" fill="#E7F3F7"/>
<path d="M50.9359 44.8335C50.9359 45.1142 50.8527 45.3887 50.6967 45.6221C50.5407 45.8555 50.319 46.0374 50.0597 46.1449C49.8003 46.2523 49.5149 46.2804 49.2396 46.2256C48.9642 46.1709 48.7113 46.0357 48.5128 45.8372C48.3143 45.6387 48.1791 45.3858 48.1243 45.1104C48.0695 44.8351 48.0977 44.5497 48.2051 44.2903C48.3125 44.0309 48.4945 43.8092 48.7279 43.6533C48.9613 43.4973 49.2357 43.4141 49.5165 43.4141C49.8929 43.4141 50.254 43.5636 50.5202 43.8298C50.7864 44.096 50.9359 44.457 50.9359 44.8335Z" fill="#E7F3F7"/>
<path d="M49.7636 45.0861L49.2699 44.5924L71.3405 29.1406H132.188V29.8375H71.6311L49.7636 45.0861Z" fill="#6FABD9"/>
<path opacity="0.4" d="M99.9349 32.7129H72.0889V45.2435H99.9349V32.7129Z" fill="#6FABD9"/>
<path d="M93.5501 35.0898H78.8158V36.1338H93.5501V35.0898Z" fill="#6FABD9"/>
<path d="M93.5501 37.1738H78.8158V38.2178H93.5501V37.1738Z" fill="#6FABD9"/>
<path d="M93.5501 39.2598H78.8158V40.3038H93.5501V39.2598Z" fill="#6FABD9"/>
<path d="M93.5501 41.3418H78.8158V42.3858H93.5501V41.3418Z" fill="#6FABD9"/>
<path opacity="0.4" d="M100.197 62.7344H72.3511V75.265H100.197V62.7344Z" fill="#6FABD9"/>
<path d="M97.1218 66.3906H86.2163V67.4346H97.1218V66.3906Z" fill="#6FABD9"/>
<path d="M97.1218 68.4766H86.2163V69.5206H97.1218V68.4766Z" fill="#6FABD9"/>
<path d="M92.9329 70.5605H86.2163V71.6045H92.9329V70.5605Z" fill="#6FABD9"/>
<path opacity="0.8" d="M79.4866 65.2461C78.649 65.2461 77.8302 65.4945 77.1337 65.9598C76.4372 66.4252 75.8944 67.0866 75.5738 67.8605C75.2533 68.6344 75.1694 69.4859 75.3328 70.3075C75.4963 71.129 75.8996 71.8836 76.4919 72.4759C77.0842 73.0682 77.8388 73.4716 78.6604 73.635C79.4819 73.7984 80.3335 73.7146 81.1073 73.394C81.8812 73.0735 82.5426 72.5306 83.008 71.8342C83.4734 71.1377 83.7218 70.3189 83.7218 69.4812H79.4866V65.2461Z" fill="#6FABD9"/>
<path d="M84.2362 69.0047C84.2362 67.8819 83.7904 66.8051 82.9967 66.0109C82.203 65.2167 81.1264 64.7702 80.0037 64.7695V69.0047H84.2362Z" fill="#6FABD9"/>
<path opacity="0.4" d="M100.107 47.8281H72.2612V60.3587H100.107V47.8281Z" fill="#6FABD9"/>
<path d="M95.4245 52.3047L94.9102 53.3513L93.7556 53.5184L94.5913 54.3336L94.3933 55.4804L95.4245 54.9378L96.4582 55.4804L96.2602 54.3336L97.0959 53.5184L95.9413 53.3513L95.4245 52.3047Z" fill="#6FABD9"/>
<path d="M90.8501 52.3047L90.3359 53.3513L89.1813 53.5184L90.0144 54.3336L89.819 55.4804L90.8501 54.9378L91.8813 55.4804L91.6859 54.3336L92.519 53.5184L91.367 53.3513L90.8501 52.3047Z" fill="#6FABD9"/>
<path d="M86.2756 52.3047L85.7587 53.3513L84.6041 53.5184L85.4398 54.3336L85.2444 55.4804L86.2756 54.9378L87.3067 55.4804L87.1087 54.3336L87.9444 53.5184L86.7898 53.3513L86.2756 52.3047Z" fill="#6FABD9"/>
<path d="M81.6979 52.3047L81.1836 53.3513L80.0291 53.5184L80.8648 54.3336L80.6668 55.4804L81.6979 54.9378L82.7316 55.4804L82.5336 54.3336L83.3668 53.5184L82.2148 53.3513L81.6979 52.3047Z" fill="#6FABD9"/>
<path d="M77.1236 52.3047L76.6067 53.3513L75.4547 53.5184L76.2879 54.3336L76.0924 55.4804L77.1236 54.9378L78.1547 55.4804L77.9593 54.3336L78.7924 53.5184L77.6404 53.3513L77.1236 52.3047Z" fill="#6FABD9"/>
<path opacity="0.4" d="M116.768 49.7638C116.171 49.7643 115.588 49.5879 115.092 49.2569C114.596 48.926 114.21 48.4553 113.981 47.9045C113.753 47.3537 113.693 46.7476 113.809 46.1627C113.925 45.5779 114.212 45.0407 114.634 44.619C115.056 44.1974 115.593 43.9103 116.178 43.7941C116.762 43.6779 117.369 43.7378 117.919 43.9662C118.47 44.1946 118.941 44.5813 119.272 45.0773C119.603 45.5733 119.779 46.1563 119.779 46.7526C119.777 47.5508 119.46 48.3159 118.895 48.8803C118.331 49.4447 117.566 49.7624 116.768 49.7638ZM116.768 44.3843C116.299 44.3843 115.841 44.5232 115.452 44.7835C115.062 45.0437 114.759 45.4136 114.579 45.8463C114.4 46.2791 114.353 46.7552 114.445 47.2146C114.536 47.674 114.762 48.096 115.093 48.4272C115.424 48.7585 115.846 48.984 116.305 49.0754C116.765 49.1668 117.241 49.1199 117.674 48.9406C118.107 48.7614 118.476 48.4578 118.737 48.0684C118.997 47.6789 119.136 47.221 119.136 46.7526C119.135 46.1247 118.885 45.5227 118.441 45.0787C117.997 44.6347 117.395 44.385 116.768 44.3843Z" fill="#6FABD9"/>
<path opacity="0.4" d="M116.767 53.1997C115.491 53.2078 114.24 52.8367 113.175 52.1333C112.109 51.4299 111.276 50.4259 110.782 49.2487C110.288 48.0715 110.154 46.774 110.398 45.5208C110.643 44.2676 111.253 43.1151 112.153 42.2094C113.053 41.3037 114.202 40.6857 115.453 40.4336C116.705 40.1815 118.003 40.3067 119.184 40.7934C120.364 41.2801 121.373 42.1063 122.083 43.1673C122.794 44.2283 123.173 45.4763 123.173 46.7531C123.177 48.4572 122.505 50.0934 121.304 51.3022C120.103 52.5111 118.471 53.1935 116.767 53.1997ZM116.767 40.9519C115.618 40.9443 114.493 41.278 113.534 41.9108C112.575 42.5436 111.825 43.4469 111.38 44.5062C110.935 45.5656 110.815 46.7332 111.034 47.861C111.254 48.9888 111.803 50.0261 112.613 50.8413C113.423 51.6565 114.456 52.2128 115.583 52.4398C116.709 52.6668 117.877 52.5542 118.94 52.1162C120.002 51.6783 120.91 50.9348 121.549 49.98C122.189 49.0252 122.53 47.9021 122.53 46.7531C122.533 45.2202 121.928 43.7485 120.848 42.6609C119.768 41.5734 118.3 40.9587 116.767 40.9519Z" fill="#6FABD9"/>
<path opacity="0.4" d="M116.767 56.1475C114.909 56.148 113.092 55.5973 111.546 54.5651C110.001 53.5328 108.796 52.0654 108.085 50.3484C107.373 48.6314 107.187 46.7419 107.549 44.919C107.912 43.0962 108.807 41.4217 110.121 40.1075C111.435 38.7933 113.11 37.8984 114.932 37.5359C116.755 37.1734 118.645 37.3597 120.362 38.0712C122.079 38.7827 123.546 39.9874 124.578 41.5329C125.611 43.0785 126.161 44.8955 126.161 46.7541C126.158 49.2443 125.167 51.6316 123.406 53.3925C121.645 55.1533 119.258 56.1441 116.767 56.1475ZM116.767 38.0035C115.038 38.0035 113.348 38.5162 111.91 39.4769C110.472 40.4376 109.352 41.803 108.69 43.4006C108.028 44.9981 107.855 46.756 108.193 48.452C108.53 50.1479 109.363 51.7058 110.585 52.9285C111.808 54.1512 113.366 54.9839 115.062 55.3212C116.758 55.6586 118.516 55.4854 120.113 54.8237C121.711 54.162 123.076 53.0414 124.037 51.6036C124.998 50.1659 125.51 48.4755 125.51 46.7463C125.506 44.4286 124.584 42.2069 122.945 40.5678C121.307 38.9287 119.085 38.0057 116.767 38.0009V38.0035Z" fill="#6FABD9"/>
<path opacity="0.4" d="M116.767 59.7955C114.188 59.7955 111.666 59.0306 109.521 57.5975C107.376 56.1644 105.705 54.1275 104.718 51.7443C103.731 49.3611 103.472 46.7388 103.975 44.2088C104.479 41.6789 105.721 39.3549 107.545 37.5309C109.369 35.7069 111.693 34.4648 114.223 33.9615C116.753 33.4583 119.375 33.7166 121.758 34.7037C124.141 35.6909 126.178 37.3625 127.611 39.5073C129.045 41.6521 129.809 44.1737 129.809 46.7532C129.806 50.2112 128.431 53.5266 125.986 55.9718C123.541 58.417 120.225 59.7921 116.767 59.7955ZM116.767 34.3564C114.315 34.3564 111.918 35.0834 109.88 36.4456C107.841 37.8078 106.252 39.7439 105.314 42.0092C104.376 44.2744 104.13 46.767 104.608 49.1718C105.087 51.5765 106.268 53.7854 108.001 55.5192C109.735 57.2529 111.944 58.4336 114.349 58.9119C116.753 59.3902 119.246 59.1448 121.511 58.2065C123.776 57.2682 125.713 55.6792 127.075 53.6406C128.437 51.6019 129.164 49.2051 129.164 46.7532C129.161 43.4664 127.853 40.3152 125.529 37.9911C123.205 35.667 120.054 34.3598 116.767 34.3564Z" fill="#6FABD9"/>
<path d="M116.767 50.5165C115.769 50.5152 114.813 50.1181 114.107 49.4124C113.401 48.7067 113.004 47.75 113.003 46.752H115.15C115.15 47.1809 115.32 47.5923 115.624 47.8957C115.927 48.199 116.338 48.3694 116.767 48.3694V50.5165Z" fill="#6FABD9"/>
<path d="M123.271 49.7892L121.321 48.8866C121.676 48.1195 121.833 47.2758 121.778 46.4324C121.723 45.589 121.458 44.7729 121.006 44.0585C120.554 43.3441 119.931 42.7541 119.193 42.3425C118.455 41.9309 117.625 41.7107 116.78 41.702C115.943 41.7012 115.12 41.9117 114.386 42.314L113.358 40.4317C114.687 39.7294 116.203 39.4607 117.692 39.6634C119.182 39.8661 120.571 40.53 121.664 41.5619C122.757 42.5939 123.5 43.9421 123.788 45.4176C124.076 46.8931 123.895 48.4217 123.271 49.7892Z" fill="#6FABD9"/>
<path d="M109.727 42.9512L107.837 41.9227C108.617 40.4802 109.735 39.2482 111.094 38.3319C112.454 37.4157 114.016 36.8426 115.645 36.6616C117.275 36.4806 118.924 36.6972 120.452 37.2928C121.98 37.8884 123.341 38.8453 124.418 40.0815L122.8 41.4907C121.951 40.5154 120.878 39.7605 119.674 39.2906C118.469 38.8207 117.168 38.6499 115.883 38.7927C114.598 38.9355 113.367 39.3878 112.294 40.1107C111.222 40.8336 110.341 41.8056 109.727 42.9435V42.9512Z" fill="#6FABD9"/>
<path d="M116.768 60.5453V58.3982C119.856 58.3982 122.818 57.1712 125.003 54.9871C127.187 52.8031 128.414 49.8409 128.414 46.7521C128.414 43.6634 127.187 40.7012 125.003 38.5172C122.818 36.3331 119.856 35.1061 116.768 35.1061V32.959C120.426 32.959 123.934 34.4122 126.521 36.9989C129.108 39.5856 130.561 43.094 130.561 46.7521C130.561 50.4103 129.108 53.9187 126.521 56.5054C123.934 59.0921 120.426 60.5453 116.768 60.5453Z" fill="#6FABD9"/>
<path d="M125.59 69.748H122.378V75.1943H125.59V69.748Z" fill="#6FABD9"/>
<path opacity="0.6" d="M121.263 66.3984H118.051V75.1953H121.263V66.3984Z" fill="#6FABD9"/>
<path opacity="0.6" d="M129.779 66.3984H126.567V75.1953H129.779V66.3984Z" fill="#6FABD9"/>
<path opacity="0.6" d="M117.073 64.1641H114V75.1955H117.073V64.1641Z" fill="#6FABD9"/>
<path opacity="0.6" d="M113.023 69.748H109.673V75.1943H113.023V69.748Z" fill="#6FABD9"/>
<path d="M108.696 61.0898H105.484V75.1916H108.696V61.0898Z" fill="#6FABD9"/>
<path fill-rule="evenodd" clip-rule="evenodd" d="M23.8195 128.04C23.1322 120.505 22.4316 115.695 22.4316 115.695C25.4132 108.238 35.6188 112.119 35.929 112.237C35.9338 112.239 35.9362 112.24 35.9362 112.239C35.3478 118.117 34.8195 123.355 34.3451 128.04H23.8195Z" fill="#1C1C1C"/>
<path d="M14.1463 119.764C14.1463 119.764 15.5047 120.023 15.7008 121.851C15.9596 124.276 16.1536 129.273 16.0639 129.413C15.5151 130.248 14.355 125.409 14.355 125.409C14.355 125.409 14.2423 127.435 14.5449 128.555C14.8474 129.676 16.7817 130.778 16.909 131.399C17.0363 132.021 16.7755 132.042 16.404 131.95C16.0326 131.859 13.2741 130.39 12.9674 129.691C12.6606 128.992 11.7697 127.08 11.7008 125.882C11.6319 124.685 12.861 120.422 12.5521 119.691C12.2433 118.961 14.1463 119.764 14.1463 119.764Z" fill="#E7F3F7"/>
<path d="M58.313 119.764C58.313 119.764 56.9567 120.023 56.7606 121.851C56.5018 124.276 56.3057 129.273 56.3975 129.413C56.9463 130.247 58.1043 125.409 58.1043 125.409C58.1043 125.409 58.2191 127.435 57.9165 128.555C57.614 129.676 55.6693 130.788 55.5503 131.41C55.4314 132.032 55.6839 132.052 56.0574 131.961C56.4309 131.869 59.1873 130.4 59.494 129.701C59.8008 129.002 60.6897 127.09 60.7606 125.893C60.8316 124.695 59.6004 120.432 59.9072 119.702C60.2139 118.971 58.313 119.764 58.313 119.764Z" fill="#E7F3F7"/>
<path d="M25.9561 62.5742C25.9561 62.5742 14.8741 67.8012 12.6018 95.6701C11.0931 114.133 11.21 121.336 11.21 121.336L16.4996 121.411C16.4996 121.411 26.8367 95.5783 27.7673 84.1165C28.2076 78.6996 25.9561 62.5742 25.9561 62.5742Z" fill="#FF3126"/>
<path d="M45.8981 62.5742C45.8981 62.5742 57.5477 67.8012 59.8159 95.6639C61.3266 114.126 61.2076 121.329 61.2076 121.329L55.9201 121.404C55.9201 121.404 45.583 95.572 44.6524 84.1102C44.2038 78.6996 45.8981 62.5742 45.8981 62.5742Z" fill="#FF3126"/>
<path d="M34.841 60.6263C31.4627 60.835 27.0954 59.7207 24.917 66.1016C23.2477 77.6073 20.389 121.994 20.389 121.994L52.6795 122.234C52.6795 122.234 51.3524 83.1556 47.3106 66.1037C46.1964 61.4046 43.6799 62.8006 42.3758 61.7928C40.2099 60.8705 37.7122 60.4469 34.841 60.6263Z" fill="#FF3126"/>
<path d="M30.2129 70.4779C30.2129 70.4779 21.3636 66.2421 24.2869 59.9426C27.2103 53.6431 49.7562 56.1428 49.6185 61.7099C49.4808 67.277 38.6241 71.2228 38.6241 71.2228L30.2129 70.4779Z" fill="#FF3126"/>
<path d="M29.6739 49.5376C29.6739 49.5376 28.9144 45.3226 30.2623 42.7185C31.9588 39.4404 36.8519 37.9714 40.9333 41.1222C43.817 43.3487 42.2229 49.9549 42.2229 49.9549L33.7094 46.3367L29.6739 49.5376Z" fill="#1C1C1C"/>
<path d="M39.1394 61.7726L36.0992 64.6625L33.059 61.7726L33.5952 55.2227H38.6052L39.1394 61.7726Z" fill="#FFBAB8"/>
<path d="M30.7427 48.7963C30.5356 48.6671 30.2863 48.6238 30.0478 48.6757C29.8093 48.7275 29.6005 48.8704 29.4657 49.0738C28.9086 49.8146 29.28 52.5981 30.6718 52.5981C32.0635 52.5981 30.7427 48.7963 30.7427 48.7963Z" fill="#FF8885"/>
<path d="M41.4997 48.7963C41.7067 48.6671 41.9561 48.6238 42.1946 48.6757C42.4331 48.7275 42.6419 48.8704 42.7767 49.0738C43.3338 49.8146 42.9624 52.5981 41.5706 52.5981C40.1788 52.5981 41.4997 48.7963 41.4997 48.7963Z" fill="#FF8885"/>
<path d="M41.7331 48.0219C41.7331 44.892 39.2125 42.8555 36.0992 42.8555C32.986 42.8555 30.4653 44.9004 30.4653 48.0219C30.4653 48.0219 30.2191 52.0074 30.2191 52.1952C30.2191 55.1624 33.8519 58.9266 36.0992 58.9266C38.695 58.9266 41.9793 54.4425 41.9793 52.1952C41.9793 52.0074 41.7331 48.0219 41.7331 48.0219Z" fill="#FFD7D7"/>
<path d="M40.5044 36.347C40.5941 39.0388 38.9665 40.7749 36.5189 40.8562C34.0713 40.9376 32.8966 39.2182 32.8068 36.5265C32.7171 33.8348 33.942 31.7732 36.3896 31.6918C38.8372 31.6104 40.4147 33.6574 40.5044 36.347Z" fill="#1C1C1C"/>
<path d="M48.7172 60.9628C48.7166 61.3545 48.5608 61.7299 48.2839 62.0069C48.0069 62.2838 47.6315 62.4396 47.2398 62.4402H44.7922V63.3395H47.2398C47.8704 63.3395 48.4751 63.0892 48.9211 62.6435C49.3672 62.1979 49.618 61.5934 49.6186 60.9628V58.5215H48.7193L48.7172 60.9628Z" fill="#E7F3F7"/>
<path d="M47.2398 37.206C47.6315 37.2065 48.0069 37.3624 48.2839 37.6393C48.5608 37.9162 48.7166 38.2917 48.7172 38.6833V41.1309H49.6186V38.6833C49.618 38.0531 49.3675 37.449 48.9219 37.0034C48.4763 36.5578 47.8721 36.3072 47.2419 36.3066H44.7922V37.206H47.2398Z" fill="#E7F3F7"/>
<path d="M24.9603 62.4402C24.5685 62.4396 24.1928 62.2839 23.9155 62.007C23.6383 61.7301 23.482 61.3547 23.4809 60.9628V58.5215H22.5815V60.9628C22.5826 61.5932 22.8337 62.1974 23.2796 62.6429C23.7255 63.0884 24.3299 63.3389 24.9603 63.3395H27.4079V62.4402H24.9603Z" fill="#E7F3F7"/>
<path d="M23.4809 38.6833C23.4814 38.2913 23.6375 37.9155 23.9149 37.6385C24.1923 37.3616 24.5683 37.206 24.9603 37.206H27.4079V36.3066H24.9603C24.3299 36.3072 23.7255 36.5577 23.2796 37.0032C22.8337 37.4488 22.5826 38.053 22.5815 38.6833V41.1309H23.4809V38.6833Z" fill="#E7F3F7"/>
<path d="M49.9128 122.131H38.2141L39.0413 128.157H49.3219L49.9128 122.131Z" fill="#1C1C1C"/>
</svg>
