<svg width="136" height="136" viewBox="0 0 136 136" fill="none" xmlns="http://www.w3.org/2000/svg">
<g clip-path="url(#clip0)">
<rect width="136" height="136" fill="white"/>
<path d="M69.8375 131.912C105.269 131.912 133.992 103.189 133.992 67.7577C133.992 32.3263 105.269 3.60352 69.8375 3.60352C34.4061 3.60352 5.68335 32.3263 5.68335 67.7577C5.68335 103.189 34.4061 131.912 69.8375 131.912Z" fill="#E7F3F7"/>
<path d="M101.808 102.153C119.382 102.153 133.63 101.188 133.63 99.9977C133.63 98.807 119.382 97.8418 101.808 97.8418C84.2328 97.8418 69.9856 98.807 69.9856 99.9977C69.9856 101.188 84.2328 102.153 101.808 102.153Z" fill="#6FABD9"/>
<path d="M100.492 33.3926C102.475 33.3926 104.438 33.7831 106.269 34.5418C108.101 35.3005 109.765 36.4125 111.166 37.8144C112.568 39.2163 113.68 40.8806 114.438 42.7122C115.196 44.5437 115.587 46.5068 115.586 48.4892V90.0447C115.588 91.4092 115.321 92.7607 114.799 94.0217C114.278 95.2827 113.513 96.4285 112.548 97.3934C111.583 98.3583 110.438 99.1233 109.176 99.6446C107.915 100.166 106.564 100.433 105.199 100.431H95.7855C94.4209 100.433 93.0695 100.166 91.8084 99.6446C90.5474 99.1233 89.4017 98.3583 88.4368 97.3934C87.4719 96.4285 86.7069 95.2827 86.1856 94.0217C85.6642 92.7607 85.3968 91.4092 85.3987 90.0447V48.4892C85.3983 46.5068 85.7885 44.5437 86.5468 42.7122C87.3052 40.8806 88.4169 39.2163 89.8186 37.8144C91.2202 36.4125 92.8842 35.3005 94.7157 34.5418C96.5471 33.7831 98.5101 33.3926 100.492 33.3926Z" fill="#DBDBDB"/>
<path d="M115.682 51.3105H85.3987V84.8118H115.682V51.3105Z" fill="white"/>
<path d="M110.801 55.2344H89.7218V57.6594H110.801V55.2344Z" fill="#757575"/>
<path d="M110.801 59.6328H89.7218V64.2501H110.801V59.6328Z" fill="#757575"/>
<path d="M105.079 20.4661C105.079 20.4661 95.7741 16.1152 84.0529 20.1634V22.3641C84.0529 22.3641 90.0186 20.0372 95.8806 21.6548V28.2513H105.079V20.4661Z" fill="#757575"/>
<path d="M100.785 22.4615V23.067H95.8814V21.6653C93.2377 20.9364 90.5745 21.0093 88.4467 21.3092C88.4467 21.3092 95.2114 19.6047 100.785 22.4615Z" fill="#1F1F1F"/>
<path d="M106.77 27.9336H94.2194V34.5301H106.77V27.9336Z" fill="#757575"/>
<path d="M75.2703 76.6641C75.646 78.8143 70.3586 81.5336 63.465 82.7335C56.5713 83.9334 50.6756 83.1709 50.3028 81.0206C49.9299 78.8704 55.2116 76.1538 62.1081 74.9511C69.0046 73.7485 74.8946 74.5082 75.2703 76.6641Z" fill="#E87671"/>
<path d="M64.8335 80.2378C64.8335 80.2378 70.0115 74.8944 70.4264 74.6309C70.8413 74.3674 73.6588 68.525 76.5659 69.5202C79.4731 70.5155 74.9792 78.1521 74.9792 78.1521L67.5725 80.9555L64.8335 80.2378Z" fill="#E87671"/>
<path d="M70.7677 79.0969L74.7121 72.7836C74.7121 72.7836 74.914 68.8139 76.1279 66.6636C77.3418 64.5134 78.9538 63.7845 79.464 63.8238C79.9742 63.863 80.1649 72.7415 80.1649 72.7415L75.0878 80.3641L70.7677 79.0969Z" fill="#E87671"/>
<path d="M74.2334 78.8311L79.574 70.8889C79.574 70.8889 81.4074 63.5999 83.5212 62.7589C85.635 61.9179 86.5125 62.9832 86.5125 62.9832L84.5501 72.3411L74.2334 78.8311Z" fill="#E87671"/>
<g opacity="0.7">
<path opacity="0.7" d="M77.491 57.8444C76.9081 56.3833 75.8317 55.1727 74.4489 54.4229C73.066 53.6731 71.4642 53.4315 69.9217 53.7401C68.8646 53.9753 67.8781 54.4569 67.0426 55.1458C66.207 55.8347 65.5461 56.7114 65.1138 57.7042C64.5531 58.9153 63.7121 58.5733 63.1177 58.1303C62.4794 57.6575 61.7482 57.3249 60.9723 57.1543C60.1964 56.9838 59.3932 56.9791 58.6154 57.1407C56.5072 57.5781 55.013 59.1592 54.3654 61.0656C54.3161 61.2502 54.2306 61.4232 54.1137 61.5744C53.9969 61.7256 53.8511 61.8521 53.6848 61.9463C53.5186 62.0405 53.3352 62.1007 53.1454 62.1232C52.9556 62.1457 52.7633 62.1303 52.5796 62.0776C51.642 61.6956 50.623 61.5576 49.6176 61.6764C48.6122 61.7952 47.6534 62.1669 46.8307 62.7568C46.008 63.3468 45.3483 64.1356 44.9132 65.0497C44.4781 65.9639 44.2819 66.9733 44.3429 67.9838C44.4039 68.9944 44.72 69.9729 45.2619 70.8281C45.8037 71.6833 46.5535 72.3871 47.4411 72.8738C48.3288 73.3606 49.3254 73.6143 50.3377 73.6113C51.3501 73.6084 52.3452 73.3488 53.23 72.8569C53.8467 74.1532 54.8805 75.205 56.166 75.8439C57.4515 76.4829 58.9142 76.6719 60.3199 76.3808C61.2086 76.1958 62.7953 75.6071 64.0849 77.3732C66.0165 80.0169 69.6442 81.0738 73.0784 80.3617C77.7826 79.3889 81.2084 75.0352 80.5888 70.4095C80.3814 68.8564 81.8224 68.3181 82.2709 68.0938C84.124 67.1603 85.136 64.7801 84.6847 62.599C84.1576 60.0451 81.7747 58.4752 79.2208 58.6742C78.2564 58.7331 77.7321 58.4359 77.491 57.8444Z" fill="#FDF5F5"/>
<path opacity="0.7" d="M67.7992 52.1447C69.4388 52.1447 70.768 50.8155 70.768 49.1759C70.768 47.5362 69.4388 46.207 67.7992 46.207C66.1595 46.207 64.8303 47.5362 64.8303 49.1759C64.8303 50.8155 66.1595 52.1447 67.7992 52.1447Z" fill="#FDF5F5"/>
<path opacity="0.7" d="M54.5674 47.6815C55.0011 47.6815 55.4251 47.5528 55.7857 47.3118C56.1463 47.0708 56.4273 46.7282 56.5931 46.3275C56.759 45.9267 56.8022 45.4858 56.7174 45.0605C56.6326 44.6351 56.4235 44.2445 56.1166 43.938C55.8097 43.6315 55.4188 43.4229 54.9934 43.3387C54.568 43.2544 54.1271 43.2982 53.7265 43.4646C53.326 43.6309 52.9838 43.9123 52.7432 44.2732C52.5027 44.6341 52.3746 45.0583 52.3751 45.492C52.3751 45.7797 52.4319 46.0647 52.5421 46.3305C52.6523 46.5963 52.8138 46.8378 53.0174 47.0412C53.221 47.2445 53.4627 47.4058 53.7287 47.5156C53.9946 47.6255 54.2797 47.6818 54.5674 47.6815Z" fill="#FDF5F5"/>
</g>
<path d="M1.28406 91.8727L25.8731 90.8411C25.8731 90.8411 44.2469 90.0365 47.1793 90.4206C50.1117 90.8046 59.3435 88.6376 63.3609 87.7012C69.7107 86.2238 73.7673 85.3631 77.165 83.496C82.8364 80.3786 91.0982 67.9509 91.0786 66.6585C91.0449 65.2876 87.4173 66.2548 85.923 67.5893C83.8877 68.7891 78.2163 75.01 76.3913 76.2603C74.4737 77.5667 65.1775 79.246 63.445 79.0638C62.0264 78.9124 57.9502 77.4602 57.9502 77.4602L55.9037 73.4849L62.8955 70.0563C62.8955 70.0563 73.9551 70.3366 74.1822 67.665C74.4849 64.0681 66.711 64.0765 63.9608 64.0429C59.9771 63.9868 51.8891 63.8298 48.0456 64.7325C42.3434 66.0698 26.5908 73.6083 26.5908 73.6083L4.54727 70.8525L1.28406 91.8727Z" fill="#EB8883"/>
<path d="M-24 70.6275L21.8532 67.9727L23.74 100.381C23.74 100.381 -0.226742 105.458 -24 108.99V70.6275Z" fill="#FF3126"/>
<path d="M98.4042 79.2931L93.4757 73.6554L95.2223 72.1724L98.6565 76.1L106.601 69.4727L108.093 71.2052L98.4042 79.2931Z" fill="#757575"/>
</g>
<defs>
<clipPath id="clip0">
<rect width="136" height="136" fill="white"/>
</clipPath>
</defs>
</svg>
