<svg width="136" height="136" viewBox="0 0 136 136" fill="none" xmlns="http://www.w3.org/2000/svg">
<rect width="136" height="136" fill="white"/>
<path d="M61.8483 129.001C95.2834 129.001 122.388 101.897 122.388 68.4616C122.388 35.0264 95.2834 7.92188 61.8483 7.92188C28.4131 7.92188 1.30859 35.0264 1.30859 68.4616C1.30859 101.897 28.4131 129.001 61.8483 129.001Z" fill="#E7F3F7"/>
<path d="M44.585 102.911C44.585 103.882 34.9986 104.667 23.1734 104.667C11.3482 104.667 1.75122 103.882 1.75122 102.911C1.75122 101.94 11.3376 101.152 23.1628 101.152C34.988 101.152 44.585 101.94 44.585 102.911Z" fill="#969696"/>
<path d="M103.913 54.0712L97.7536 59.0474L92.5175 54.0712L93.4406 42.7924L102.99 41.0391L103.913 54.0712Z" fill="#EB8883"/>
<path d="M119.261 61.1454C117.64 59.5326 109.637 54.6307 103.921 54.071C103.759 54.0524 93.0162 54.4158 92.7801 54.4821C90.1647 55.2355 81.2998 59.8059 77.6604 63.6919C77.6604 63.6919 71.0821 69.8246 69.3658 82.1299C69.3658 82.1299 73.8752 105.621 72.9999 111.308C72.0609 117.43 70.8778 122.86 69.8433 128.139H122.998C122.709 103.926 121.043 73.4878 119.261 61.1454Z" fill="#D9D9D9"/>
<path d="M128.895 128.148C130.845 124.206 132.468 120.241 133.033 117.095C135.441 103.646 136.463 76.8603 119.261 61.1465C113.717 62.6744 112.68 73.725 113.072 84.6483C113.486 96.1313 119.149 112.975 119.149 112.975L115.598 128.148H128.895Z" fill="#D9D9D9"/>
<path d="M126.157 111.939C124.685 111.566 123.16 111.449 121.648 111.594L121.595 110.909C123.189 110.752 124.798 110.878 126.348 111.281L126.157 111.939Z" fill="#A1A1A1"/>
<path d="M71.9812 72.5645C71.9812 72.5645 66.6495 86.944 64.4797 113.372C64.3179 115.34 63.1879 121.425 61.8643 128.146H77.7797C80.2042 122.088 82.2705 116.475 82.9708 113.372C85.0159 104.231 71.9812 72.5645 71.9812 72.5645Z" fill="#D9D9D9"/>
<path d="M77.204 128.147C78.8831 124.324 80.8221 119.658 81.7452 116.539C83.5383 110.494 82.8407 94.1936 82.8327 94.0292L83.5171 94C83.5463 94.6738 84.2253 110.581 82.403 116.735C81.4932 119.804 79.6099 124.356 77.952 128.141L77.204 128.147Z" fill="#A1A1A1"/>
<path d="M122.574 128.146C122.393 124.412 122.043 120.478 121.709 116.404C120.815 105.929 119.892 95.0954 121.269 84.8379L121.948 84.9281C120.582 95.1219 121.502 105.915 122.393 116.356C122.741 120.449 123.08 124.401 123.261 128.157L122.574 128.146Z" fill="#A1A1A1"/>
<path d="M84.1854 39.3965C84.0442 39.4204 83.9015 39.4337 83.7583 39.4363C83.2666 39.4282 82.783 39.3091 82.3438 39.0876C81.9047 38.8662 81.5213 38.5483 81.2225 38.1577C80.5123 37.2731 80.1117 36.1802 80.0818 35.0463C79.9943 32.8075 81.2437 30.9003 82.9864 30.6059C83.5466 30.5173 84.1203 30.5863 84.6435 30.805C85.1668 31.0238 85.6189 31.3837 85.9493 31.8446C86.6597 32.7299 87.0596 33.824 87.0873 34.9587C87.1642 37.1842 85.9281 39.1047 84.1854 39.3965ZM83.0448 30.9613C81.4532 31.2266 80.3312 32.9826 80.4108 35.0436C80.4404 36.0931 80.8131 37.104 81.4718 37.9217C81.7407 38.2738 82.0859 38.5606 82.4814 38.7604C82.877 38.9603 83.3126 39.068 83.7557 39.0755C83.8828 39.0747 84.0097 39.0632 84.135 39.041C85.7265 38.7758 86.8512 37.0224 86.7716 34.9614C86.742 33.9119 86.3693 32.901 85.7106 32.0833C85.4426 31.7301 85.0976 31.4426 84.7019 31.2427C84.3062 31.0428 83.8701 30.9356 83.4267 30.9295C83.2988 30.9294 83.171 30.9401 83.0448 30.9613Z" fill="white"/>
<path d="M102.082 30.5302C101.204 24.6734 96.1884 21.6335 90.8302 21.6309C85.472 21.6282 82.8009 25.1455 82.7982 30.5196C82.7982 30.5196 82.7982 30.9387 82.7982 31.5807C82.7982 32.3764 83.1537 33.525 83.159 34.6099C83.159 36.151 82.846 37.1537 82.8353 38.0025C82.7929 41.4509 86.3049 49.3131 90.175 49.3158C94.6393 49.3158 102.26 43.3767 102.26 39.5013C102.265 39.1644 102.417 32.7478 102.082 30.5302Z" fill="#EB8883"/>
<path d="M109.486 28.9619C109.486 33.5216 107.155 40.5748 103.163 43.8985C103.163 43.8985 97.7937 46.124 91.2259 35.5217C90.4302 34.2325 87.1038 30.5667 84.9685 23.8848C87.1038 20.1341 91.6875 17.3887 97.0085 17.3887C103.876 17.3913 109.486 22.158 109.486 28.9619Z" fill="#1C1C1C"/>
<path d="M90.1627 34.1785L80.3943 34.877L80.4191 35.2236L90.1874 34.5251L90.1627 34.1785Z" fill="white"/>
<path d="M90.1668 33.2466C90.432 32.5994 91.3604 31.8938 92.9493 32.9548C94.5382 34.0158 95.4507 39.5862 92.5965 40.4934C89.7423 41.4006 89.4426 35.0158 90.1668 33.2466Z" fill="#E97A75"/>
<path d="M93.1299 46.5801L92.9521 48.7472C92.9521 48.7472 91.1192 49.4077 90.0343 49.3069L93.1299 46.5801Z" fill="#E5605A"/>
<path d="M84.2463 31.1763C83.7658 31.0887 83.2785 31.0435 82.7901 31.041C82.119 31.041 82.1455 32.736 82.7901 32.736C83.0946 32.7501 83.3997 32.7233 83.6972 32.6564C84.485 32.3779 84.2463 31.1763 84.2463 31.1763Z" fill="#1C1C1C"/>
<path d="M107.058 12.0306C107.212 16.6646 104.406 19.6514 100.196 19.792C95.9864 19.9326 93.9598 16.9697 93.806 12.3383C93.6521 7.70691 95.7583 4.15246 99.9732 4.01187C104.188 3.87129 106.912 7.39921 107.058 12.0306Z" fill="#1C1C1C"/>
<path d="M101.048 19.4129C97.3764 19.4129 95.2729 16.8531 95.119 12.2058C95.0421 9.94318 95.5249 7.99619 96.5143 6.57707C97.5753 5.06775 99.1509 4.23484 101.101 4.16853H101.334C102.244 4.15606 103.145 4.35205 103.967 4.74149C104.79 5.13092 105.512 5.70347 106.079 6.41526C107.22 7.80255 107.889 9.75485 107.96 11.9167C108.032 14.0785 107.43 15.9486 106.225 17.2908C105.021 18.633 103.339 19.3519 101.321 19.4129H101.048ZM101.334 4.43909H101.109C99.2517 4.5001 97.7398 5.29322 96.7371 6.72826C95.7822 8.09964 95.318 9.98828 95.3922 12.1926C95.4665 14.3969 95.9652 16.0759 96.883 17.2616C97.891 18.564 99.3844 19.1954 101.313 19.1184C103.241 19.0415 104.881 18.3465 106.021 17.0786C107.162 15.8107 107.756 13.9963 107.687 11.8955C107.618 9.79464 106.971 7.9007 105.87 6.5585C105.325 5.88299 104.633 5.34072 103.847 4.97298C103.061 4.60524 102.202 4.42173 101.334 4.43644V4.43909Z" fill="#1C1C1C"/>
<path d="M90.5015 71.4457C95.8624 71.4032 113.518 67.1326 117.171 59.9972C120.823 52.8618 115.929 47.5301 108.173 45.0367C100.417 42.5432 85.1593 45.0605 81.9656 52.1747C78.7719 59.2889 83.0876 71.4881 90.5015 71.4457Z" fill="#D9D9D9"/>
<path d="M102.942 68.5512C103.811 68.554 104.678 68.4883 105.536 68.3549C114.849 66.8668 116.696 61.4794 116.77 61.2513L116.117 61.0391C116.101 61.0921 114.298 66.262 105.427 67.6705C96.4432 69.1029 83.6021 61.6412 83.4721 61.5696L83.1246 62.1611C85.5993 63.558 88.1699 64.7777 90.8171 65.811C95.4591 67.6334 99.5255 68.5512 102.942 68.5512Z" fill="#A1A1A1"/>
<path d="M26.6516 69.0748H26.4925C26.4925 69.0748 25.8612 70.0032 25.9116 70.1809C25.962 70.3586 27.6569 70.2711 27.6569 70.2711C27.6569 70.2711 28.4262 69.7247 28.3387 69.0138C28.2962 68.6769 27.6384 67.0535 27.4103 66.8227C26.8585 66.271 26.4925 67.3533 26.4925 67.3533L27.7843 68.7512L26.6516 69.0748Z" fill="#E87671"/>
<path d="M25.5743 63.2617C25.5743 63.2617 26.0279 64.1583 25.9616 64.3705C25.8128 64.8538 25.7237 65.3536 25.6964 65.8586C25.6619 66.5695 25.9934 68.0337 26.012 68.2459C26.0306 68.4581 26.1155 69.8852 26.6513 69.8375C27.1367 69.8056 26.9855 68.2937 26.9855 68.1637C26.9855 68.0337 26.9563 67.1026 27.0863 67.1026C27.2163 67.1026 27.6725 65.1106 27.1579 64.5137C26.6796 64.0373 26.1482 63.6173 25.5743 63.2617Z" fill="#EB8883"/>
<path d="M26.8608 67.1589C27.0662 67.2472 27.2479 67.3826 27.3914 67.5541C27.5293 67.7716 27.7388 69.387 27.7388 69.387C27.7388 69.387 26.6778 70.1483 26.5638 70.4719C26.4497 70.7955 26.4656 71.0953 26.6009 71.0369C27.333 70.7239 28.1155 70.2597 28.4338 69.7265C28.654 69.3605 28.6991 68.0262 28.6991 68.0262C28.7995 67.8285 28.8488 67.6087 28.8423 67.387C28.7999 67.1217 28.1023 65.4028 28.1023 65.4028L27.7362 62.9492L25.585 63.2543L26.8608 67.1589Z" fill="#EB8883"/>
<path d="M24.0331 35.9512C26.2189 37.6462 26.829 48.1106 27.4815 51.8825C28.134 55.6545 29.6566 61.1268 28.9086 64.0844C28.7521 64.7051 28.2613 64.6308 26.012 64.4106C25.0411 62.5034 25.439 56.5166 25.439 56.5166C25.439 56.5166 18.728 36.6541 24.0331 35.9512Z" fill="#E45C56"/>
<path d="M22.4441 99.2162L24.1232 100.747L25.2664 98.6087V95.9376L22.4441 95.8262V99.2162Z" fill="#EB8883"/>
<path d="M16.1681 55.4874C16.1681 55.4874 20.3512 76.9733 20.5263 78.6524C20.7013 80.3314 20.1761 88.5067 22.1045 96.0984C22.1045 96.0984 24.4441 96.4724 25.789 96.2204C25.8898 93.0771 26.1656 81.801 26.1975 79.7585C26.2426 76.8619 26.3381 60.4345 26.3381 60.4345C26.3381 60.4345 17.8286 51.4741 16.1681 55.4874Z" fill="black"/>
<path d="M22.1922 98.8679C21.988 98.9236 21.4362 102.536 21.7651 102.725C22.0941 102.913 31.3144 103.059 31.8449 102.536C32.1261 102.271 31.829 101.043 31.6354 100.987C29.4461 100.364 27.3704 99.395 25.4867 98.1172C25.4867 98.1172 24.5769 98.4435 24.6909 98.9315L24.7997 99.1384C24.7997 99.1384 24.2241 99.6689 23.667 99.6212C23.11 99.5735 22.7068 98.7246 22.1922 98.8679Z" fill="white"/>
<path d="M27.6055 99.377C27.4998 99.4148 27.3985 99.4637 27.3031 99.5228C26.9458 99.7598 26.6815 100.113 26.5551 100.523L26.693 100.565C26.8083 100.188 27.0512 99.8627 27.38 99.6449C27.506 99.5677 27.6428 99.5096 27.7858 99.4724L27.6055 99.377Z" fill="#96C2E3"/>
<path d="M26.7512 98.9102C26.722 98.9254 26.6937 98.9422 26.6664 98.9606C26.3073 99.1957 26.0425 99.5497 25.9183 99.9606L26.0563 100.003C26.1713 99.6264 26.4131 99.3012 26.7406 99.0826C26.7926 99.0506 26.8466 99.0223 26.9024 98.9977L26.7512 98.9102Z" fill="#96C2E3"/>
<path d="M14.7405 99.9314L12.0879 99.2072L12.1489 95.8066H14.958L14.7405 99.9314Z" fill="#EB8883"/>
<path d="M10.083 60.2615C10.083 60.2615 11.022 70.3413 11.3695 79.6253C10.7621 87.3894 11.4279 94.9625 11.4305 96.0315C12.1573 96.692 15.3616 96.0315 15.3616 96.0315C15.3961 93.9996 15.8338 86.6387 16.6879 80.0152C17.9532 70.2856 19.7914 59.5904 19.7914 59.5904C19.7914 59.5904 11.6958 56.2296 10.083 60.2615Z" fill="black"/>
<path d="M11.0345 102.271C10.8674 103.385 12.0796 104.046 13.3688 104.046C14.6579 104.046 15.9338 103.436 15.7057 102.271C15.5704 101.589 15.215 100.68 15.016 99.783C14.8171 98.8865 14.2203 98.2578 13.459 98.2578C12.6977 98.2578 12.1327 98.8679 11.886 99.6743C11.565 100.767 11.1645 101.42 11.0345 102.271Z" fill="white"/>
<path d="M14.3556 100.126L14.4537 100.02C14.1767 99.7584 13.8133 99.6074 13.4325 99.5957C13.0645 99.6101 12.713 99.7517 12.4377 99.9962L12.5306 100.105C12.7812 99.8848 13.0993 99.7567 13.4325 99.7416C13.7762 99.7557 14.1035 99.8921 14.3556 100.126Z" fill="#96C2E3"/>
<path d="M14.5258 100.97L14.6239 100.864C14.2986 100.562 13.8738 100.39 13.4303 100.381C13.0023 100.394 12.5918 100.554 12.2684 100.834L12.3613 100.946C12.6565 100.689 13.0311 100.541 13.4223 100.527C13.8321 100.533 14.2251 100.691 14.5258 100.97Z" fill="#96C2E3"/>
<path d="M10.7279 34.9551C11.2398 34.4458 14.3593 32.918 16.1683 32.7402C16.2214 32.7402 19.4018 33.0267 19.4761 33.0479C20.3037 33.2867 22.7387 34.5334 23.89 35.7615C23.89 35.7615 25.3674 36.8225 25.9112 40.7192C25.9112 40.7192 25.0863 49.0297 25.3648 50.8334C26.195 56.2394 27.0863 58.9901 26.3383 64.7011C26.3383 64.7011 18.5503 64.3165 14.9322 62.3138L9.87111 64.9053C5.71452 60.4915 9.83662 41.0905 10.7279 34.9551Z" fill="#EB8883"/>
<path d="M10.9585 61.721L12.9002 60.4902L14.94 62.3046C14.94 62.3046 12.8179 64.5566 12.2025 64.3948C11.7118 63.7609 10.9585 61.721 10.9585 61.721Z" fill="#EB8883"/>
<path d="M12.8924 60.4901L9.87111 62.4027C9.87111 62.4027 3.97178 55.8402 3.41209 52.7234C2.6455 48.4793 5.26889 39.9274 10.7199 34.9512C12.4733 35.4366 12.8022 38.93 12.6775 42.3784C12.5476 46.0124 8.41219 51.604 8.41219 51.604L12.8924 60.4901Z" fill="#EB8883"/>
<path d="M9.68569 62.0236C11.6168 61.8247 13.516 60.257 13.5956 60.1907L13.6699 60.1297L13.6168 60.0474C13.5691 59.9732 8.75463 52.5539 8.48938 51.6865C8.43102 51.4956 8.57426 50.6255 10.187 47.0578C11.1128 45.01 12.081 43.0445 12.0916 43.0259L11.8979 42.9277C11.4974 43.7235 8.00661 50.8457 8.28248 51.7502C8.54773 52.607 12.8237 59.2225 13.3807 60.0846C13.0094 60.3764 11.3197 61.6363 9.66712 61.8088L9.68569 62.0236Z" fill="#E45C56"/>
<path d="M8.35117 51.8225L8.42014 51.6183C7.20791 51.2151 6.44663 51.3901 6.41479 51.3981L6.46519 51.6076L6.43867 51.5042L6.46519 51.6076C7.10192 51.52 7.75047 51.5939 8.35117 51.8225Z" fill="#E45C56"/>
<path d="M16.3939 32.7491L18.3409 34.3247L20.0094 33.2451L19.707 29.1813L16.6857 28.627L16.3939 32.7491Z" fill="#EB8883"/>
<path d="M16.5505 30.537L16.6646 28.9004L19.7071 29.1816L19.914 31.9482C19.8052 31.9482 19.7151 31.9482 19.6063 31.9482C18.463 31.9482 17.15 31.163 16.5505 30.537Z" fill="#E76E69"/>
<path d="M18.3042 34.466C16.9063 34.3944 16.084 33.1397 16.015 32.7631C16.015 32.71 18.2538 32.2617 18.2538 32.2617L20.3467 33.397C20.1367 33.7451 19.8352 34.0289 19.475 34.2174C19.1149 34.4059 18.7099 34.4919 18.3042 34.466Z" fill="#EB8883"/>
<path d="M14.4519 24.5178C14.4519 26.6716 16.2132 28.6425 18.3857 28.6425C20.5581 28.6425 22.3194 26.6716 22.3194 24.5178C22.3194 23.4745 21.905 22.4739 21.1673 21.7362C20.4295 20.9984 19.429 20.584 18.3857 20.584C17.3424 20.584 16.3418 20.9984 15.6041 21.7362C14.8664 22.4739 14.4519 23.4745 14.4519 24.5178Z" fill="#1C1C1C"/>
<path d="M21.8097 25.6857C21.922 25.615 22.0576 25.5909 22.1874 25.6187C22.3172 25.6464 22.431 25.7238 22.5047 25.8342C22.8071 26.24 22.6055 27.7573 21.8468 27.7573C21.0882 27.7573 21.8097 25.6857 21.8097 25.6857Z" fill="#E76E69"/>
<path d="M15.8096 25.6585C15.669 25.486 15.3215 25.3614 14.9422 25.8335C14.5629 26.3057 14.8149 28.075 15.7618 28.075C16.7088 28.075 16.1836 26.1227 15.8096 25.6585Z" fill="#EB8883"/>
<path d="M16.1119 25.2636C16.3931 23.4068 17.9687 22.4492 19.6743 22.4492C21.3799 22.4492 22.2155 23.5633 22.2155 25.2636C22.2155 25.2636 22.2022 27.4334 22.2022 27.5395C22.2022 28.8101 21.1014 31.2054 19.8759 31.2054C18.4621 31.2054 16.0536 29.3247 16.0536 28.0992C16.0249 27.1536 16.0444 26.2072 16.1119 25.2636Z" fill="#EB8883"/>
<path d="M19.3167 25.2054C19.3167 25.2054 18.0541 25.0807 17.81 25.1046C17.6822 25.111 17.5596 25.1575 17.4596 25.2375C17.3596 25.3175 17.2874 25.4269 17.253 25.5502C17.2318 25.598 18.9029 25.7624 19.1469 25.6749C19.391 25.5874 19.3167 25.2054 19.3167 25.2054Z" fill="#1C1C1C"/>
<path d="M20.5848 25.2054C20.5848 25.2054 21.8475 25.0807 22.0915 25.1046C22.1346 25.1069 22.1773 25.114 22.2188 25.1258C22.3541 25.155 22.3541 25.6059 22.2453 25.6219C21.7517 25.692 21.252 25.7097 20.7546 25.6749C20.5053 25.5874 20.5848 25.2054 20.5848 25.2054Z" fill="#1C1C1C"/>
<path d="M20.5687 28.3867H19.4493L20.1151 28.6414L20.5687 28.3867Z" fill="#E76E69"/>
<path d="M20.3615 27.0031C20.3116 26.6484 20.3787 26.2871 20.5525 25.9739C20.6256 25.8367 20.7287 25.7178 20.8541 25.626C20.9794 25.5341 21.1239 25.4717 21.2767 25.4434C21.3217 25.4407 21.3669 25.4407 21.412 25.4434C21.9717 25.4434 22.473 25.9739 22.5526 26.6768C22.6031 27.0327 22.535 27.3953 22.3589 27.7087C22.2863 27.8462 22.1834 27.9654 22.0579 28.0573C21.9325 28.1492 21.7878 28.2114 21.6348 28.2392C21.5898 28.2431 21.5445 28.2431 21.4995 28.2392C20.9398 28.2365 20.4517 27.706 20.3615 27.0031ZM21.2926 25.5548C21.1544 25.5797 21.0238 25.636 20.9107 25.7192C20.7976 25.8024 20.705 25.9104 20.6401 26.0349C20.4785 26.3244 20.4161 26.6589 20.4623 26.9872C20.5472 27.6344 20.9929 28.1225 21.4995 28.1225H21.6215C21.7589 28.0962 21.8886 28.0395 22.0011 27.9564C22.1136 27.8733 22.2059 27.7659 22.2714 27.6424C22.4342 27.3523 22.4967 27.0166 22.4491 26.6874C22.3669 26.0402 21.9186 25.5521 21.412 25.5521C21.3722 25.5491 21.3322 25.55 21.2926 25.5548Z" fill="white"/>
<path d="M18.2899 28.2255C17.6852 28.1327 17.274 27.4297 17.3721 26.6632C17.4623 25.9602 17.9504 25.4297 18.5101 25.4297C18.5552 25.4271 18.6003 25.4271 18.6454 25.4297C18.7983 25.4577 18.9429 25.52 19.0683 25.6119C19.1938 25.7037 19.2967 25.8228 19.3695 25.9602C19.5454 26.2727 19.6135 26.6344 19.5632 26.9894C19.473 27.6924 18.9823 28.2229 18.4252 28.2229C18.3803 28.2277 18.335 28.2286 18.2899 28.2255ZM17.4756 26.6791C17.3854 27.3846 17.7568 28.0292 18.3032 28.1141C18.3438 28.1167 18.3846 28.1167 18.4252 28.1141C18.9319 28.1141 19.3775 27.626 19.4597 26.9788C19.5073 26.6505 19.4448 26.3156 19.282 26.0265C19.2173 25.9023 19.1252 25.7946 19.0126 25.7114C18.8999 25.6282 18.7698 25.5717 18.6321 25.5464C18.5915 25.5425 18.5507 25.5425 18.5101 25.5464C18.0035 25.5438 17.5578 26.0424 17.4756 26.6791Z" fill="white"/>
<path d="M20.3696 26.9387L20.4492 26.8671C20.4019 26.7808 20.3322 26.7088 20.2475 26.6586C20.1628 26.6085 20.0662 26.582 19.9678 26.582C19.8693 26.582 19.7727 26.6085 19.688 26.6586C19.6033 26.7088 19.5337 26.7808 19.4863 26.8671L19.5659 26.9387C19.6056 26.868 19.6633 26.8092 19.7333 26.7683C19.8032 26.7273 19.8828 26.7057 19.9638 26.7057C20.0448 26.7057 20.1244 26.7273 20.1943 26.7683C20.2643 26.8092 20.322 26.868 20.3617 26.9387H20.3696Z" fill="white"/>
<path d="M27.7348 31.0605L27.6277 31.3574L76.6401 49.032L76.7471 48.735L27.7348 31.0605Z" fill="#E0463F"/>
<path d="M27.2854 28.3945H26.9697V33.896H27.2854V28.3945Z" fill="#E0463F"/>
<path d="M77.7901 41.5352H77.4745V56.1668H77.7901V41.5352Z" fill="#E0463F"/>
<path d="M28.3491 32.2779V30.6758L27.2827 31.079L28.3491 32.2779Z" fill="#E0463F"/>
<path d="M75.5303 49.8088V47.1562L77.4746 49.1828L75.5303 49.8088Z" fill="#E0463F"/>
</svg>
