<svg width="136" height="136" viewBox="0 0 136 136" fill="none" xmlns="http://www.w3.org/2000/svg">
<rect width="136" height="136" fill="white"/>
<path d="M65.2612 130.511C98.158 130.511 124.826 103.843 124.826 70.9458C124.826 38.049 98.158 11.3809 65.2612 11.3809C32.3644 11.3809 5.69629 38.049 5.69629 70.9458C5.69629 103.843 32.3644 130.511 65.2612 130.511Z" fill="#E7F3F7"/>
<path d="M62.2182 40.5825C62.2182 40.5825 60.1303 39.9718 58.3687 34.4597C56.607 28.9477 62.3069 22.9998 69.3927 26.0612C76.4785 29.1226 79.8896 13.2885 73.592 12.0645C67.2944 10.8405 66.3314 12.6752 66.3314 12.6752C66.3314 12.6752 67.2083 4.36539 57.9328 2.61678C48.6574 0.868167 48.3102 6.90217 48.3102 6.90217C48.3102 6.90217 42.4485 5.15356 36.1483 6.46372C29.8481 7.77387 27.2251 14.951 28.5379 17.4878C28.5379 17.4878 19.0015 17.3129 18.6517 24.2238C18.302 31.1348 27.2251 34.6346 27.2251 34.6346C27.2251 34.6346 18.9258 43.9936 22.1516 50.4686C25.3774 56.9437 31.688 59.042 35.1878 54.3182C38.6877 49.5943 53.115 35.8586 62.2182 40.5825Z" fill="#CECECE"/>
<path d="M97.6051 76.3342C97 77.2173 96.485 78.159 96.0679 79.145C96.0679 79.145 94.763 82.6918 94.0688 83.4591C93.3745 84.2264 92.2862 84.0881 92.0252 83.8636C91.6446 83.5944 91.2001 83.4297 90.736 83.386C90.214 83.3182 89.8564 82.2351 89.8564 82.2351C89.8564 82.2351 88.9404 82.363 88.7316 81.734C88.5228 81.105 89.5511 79.3694 90.7438 78.8057C91.3921 78.522 91.9863 78.1282 92.5002 77.6417C92.5002 77.6417 92.8786 76.7152 93.6538 74.4629C95.0266 74.8413 96.2871 75.7208 97.6051 76.3342Z" fill="#E7F3F7"/>
<path d="M105.223 35.4922C105.223 35.4922 108.371 38.5483 109.323 41.3618C110.276 44.1752 105.753 64.3834 105.753 64.3834C105.753 64.3834 98.1842 77.4066 97.3256 77.879C96.4669 78.3514 96.0781 78.581 96.0781 78.581L92.8601 76.8925C92.8601 76.8925 96.1146 65.4247 96.8897 63.8562C97.255 63.1578 97.5774 62.4379 97.8554 61.7004L99.4578 41.9229L105.223 35.4922Z" fill="#DE3831"/>
<path d="M88.4394 96.7305H94.1263V90.7826H88.4394V96.7305Z" fill="#1C1C1C"/>
<path d="M94.9558 92.2189H96.6443C96.6963 92.2189 96.7461 92.2395 96.7828 92.2762C96.8195 92.3129 96.8401 92.3627 96.8401 92.4146V95.8284H94.7522V92.4146C94.7522 92.3883 94.7575 92.3622 94.7678 92.3379C94.7781 92.3136 94.7933 92.2917 94.8123 92.2734C94.8313 92.2551 94.8538 92.2409 94.8785 92.2315C94.9031 92.2221 94.9294 92.2179 94.9558 92.2189Z" fill="#0D0D0D"/>
<path d="M96.6814 95.7914C95.9219 92.9441 96.5065 88.0167 98.2734 86.1141C99.7637 84.5116 101.927 83.5695 104.049 83.1388C108.183 82.2906 113.481 84.1567 115.908 79.0283C116.843 77.0526 117.297 74.2705 116.01 72.4305C113.922 69.4553 109.746 70.1443 104.331 67.5919C99.8498 65.4805 96.5013 62.1999 95.0111 57.5726C94.9112 57.3049 94.7953 57.0434 94.664 56.7896C94.5361 56.5104 94.095 56.6591 94.0976 56.9436C94.0884 57.2307 94.1121 57.5179 94.1681 57.7996C94.9876 61.0307 97.5949 64.7732 101.919 67.37C107.533 70.7394 111.699 70.2722 114.23 71.9843C116.101 73.2527 116.159 75.3901 115.488 77.5668C113.719 83.3085 108.979 81.5729 104.581 82.2489C101.711 82.6925 98.1455 84.2924 96.8432 86.8814C95.7236 89.1024 95.3791 92.3777 95.734 94.9145C95.7817 95.2773 95.8532 95.6365 95.948 95.9898C95.9789 96.0825 96.0442 96.1598 96.1305 96.2057C96.2167 96.2517 96.3173 96.2627 96.4115 96.2366C96.5056 96.2104 96.5861 96.1491 96.6364 96.0653C96.6866 95.9815 96.7027 95.8816 96.6814 95.7862V95.7914Z" fill="#0D0D0D"/>
<path d="M95.1131 90.957H87.3931C87.2194 90.957 87.0528 90.888 86.9299 90.7652C86.8071 90.6423 86.7381 90.4757 86.7381 90.302V87.4572H95.7682V90.302C95.7682 90.4757 95.6992 90.6423 95.5763 90.7652C95.4535 90.888 95.2869 90.957 95.1131 90.957Z" fill="#1C1C1C"/>
<path d="M96.731 129.119L85.2163 129.119C84.864 129.119 84.5261 128.979 84.277 128.73C84.0279 128.481 83.8879 128.143 83.8879 127.791V94.8725C83.8879 94.5576 84.013 94.2555 84.2357 94.0328C84.4584 93.8101 84.7604 93.685 85.0754 93.685H96.8694C97.1843 93.685 97.4863 93.8101 97.709 94.0328C97.9317 94.2555 98.0568 94.5576 98.0568 94.8725V127.78C98.0582 127.955 98.025 128.129 97.959 128.291C97.893 128.453 97.7956 128.601 97.6724 128.725C97.5492 128.85 97.4026 128.949 97.241 129.016C97.0795 129.084 96.9061 129.119 96.731 129.119Z" fill="#1C1C1C"/>
<path d="M95.0319 131.301C95.225 131.186 95.8645 130.661 95.9845 130.118C96.1331 129.221 96.2012 128.313 96.1881 127.404L100.166 127.242L101.136 134.973C101.136 134.973 90.8796 135.774 88.168 134.973C87.1031 134.665 91.4172 132.616 95.0319 131.301Z" fill="#B41A13"/>
<path d="M118.341 130.935C118.555 130.797 119.492 129.92 119.523 129.369C119.578 128.472 119.499 127.047 119.499 127.047L123.474 126.885L124.646 135.497C124.646 135.497 113.726 135.878 111.312 135.249C110.237 134.97 114.726 132.251 118.341 130.935Z" fill="#B41A13"/>
<path d="M93.5495 54.3147L93.5913 54.3329C93.8429 54.4565 94.0351 54.6749 94.1257 54.9402C94.2162 55.2055 94.1977 55.4959 94.0741 55.7475C93.9506 55.9991 93.7321 56.1913 93.4669 56.2819C93.2016 56.3724 92.9112 56.3539 92.6596 56.2303L92.6361 56.2173L65.5431 42.9409L66.005 41.9883L93.5495 54.3147Z" fill="#1C1C1C"/>
<path d="M102.533 69.9902L99.7168 72.621L93.4688 103.918C93.4688 103.918 92.1142 123.675 95.2095 128.242C96.0212 129.443 100.628 129.524 101.003 128.125C102.261 123.456 103.352 106.239 103.313 104.597C103.274 102.955 112.62 76.186 112.62 76.186L102.533 69.9902Z" fill="#DE3831"/>
<path d="M99.3644 42.1508C99.8864 39.7784 103.825 35.0076 106.351 34.3839C108.877 33.7601 113.001 34.2716 113.001 34.2716C113.001 34.2716 116.764 34.6918 117.769 35.3887C118.902 36.1716 120.183 37.9672 120.183 37.9672C120.183 37.9672 116.081 53.9709 116.172 57.6325C116.242 60.4642 117.879 69.4265 117.879 69.4265C117.879 69.4265 118.865 76.9038 118.662 79.5319C118.573 80.6959 118.09 96.556 118.717 97.5661C124.043 106.179 126.664 126.204 124.416 128.362C123.359 129.375 119.541 129.333 118.563 128.245C115.838 125.218 110.994 106.322 110 103.368C109.204 100.982 99.9177 73.0229 99.7115 72.6288C99.7115 72.6288 99.4714 64.1807 99.4114 62.0093C99.3513 59.8379 98.0777 47.9656 99.3644 42.1508Z" fill="#FF3126"/>
<path d="M104.036 29.1935C104.06 29.5286 104.181 29.8495 104.385 30.1167C104.588 30.3839 104.866 30.5858 105.183 30.6976C105.499 30.8094 105.842 30.8263 106.168 30.7461C106.495 30.6659 106.79 30.4921 107.019 30.2462C107.248 30.0002 107.4 29.6928 107.457 29.3616C107.514 29.0304 107.472 28.6899 107.338 28.3818C107.204 28.0738 106.983 27.8116 106.702 27.6276C106.42 27.4435 106.092 27.3455 105.756 27.3457C105.283 27.3641 104.837 27.5687 104.515 27.9149C104.192 28.2611 104.02 28.7208 104.036 29.1935Z" fill="#1C1C1C"/>
<path d="M111.849 28.9871L112.807 34.2277C112.807 34.2277 109.018 38.0538 107.188 37.5396C105.654 37.109 107.384 34.2695 107.384 34.2695C107.384 34.2695 108.13 31.1664 107.841 29.6318C107.551 28.0972 111.849 28.9871 111.849 28.9871Z" fill="#1E1E1E"/>
<path d="M107.841 29.6302C107.549 28.093 111.871 28.2235 111.871 28.2235L111.931 29.4344C111.833 29.7201 111.683 29.9855 111.49 30.2174C110.525 31.2521 109.207 31.8872 107.797 31.9973C107.923 31.2143 107.938 30.4174 107.841 29.6302Z" fill="black"/>
<path d="M112.361 28.4853L111.766 28.0391L111.451 28.4071L111.145 29.344L112.361 28.4853Z" fill="black"/>
<path d="M112.066 21.3795C112.4 21.9641 112.956 26.1034 112.009 28.2565C111.098 30.3235 107.791 33.4188 106.632 32.0956C105.348 30.6341 103.589 21.6405 106.043 19.8136C108.496 17.9867 111.709 20.7558 112.066 21.3795Z" fill="#3D8ECB"/>
<path d="M104.769 25.7767C104.787 25.6175 107.298 26.163 107.434 26.2256H107.452C107.954 26.4696 108.504 26.6002 109.062 26.6083C109.621 26.6164 110.174 26.5018 110.683 26.2726L113.791 24.8633L114.574 25.9412L110.169 31.8708L110.156 31.8421C109.772 32.3507 109.215 32.7 108.59 32.8234C107.682 33.1235 106.567 33.2931 106.178 32.8495C105.435 32.0143 104.411 28.6398 104.769 25.7767Z" fill="#1E1E1E"/>
<path d="M106.915 29.4253C106.94 29.7664 107.063 30.0928 107.271 30.3644C107.479 30.6361 107.761 30.8411 108.084 30.9545C108.407 31.0679 108.755 31.0847 109.087 31.0027C109.419 30.9208 109.72 30.7437 109.953 30.4932C110.186 30.2427 110.34 29.9297 110.398 29.5926C110.455 29.2555 110.413 28.9089 110.276 28.5955C110.14 28.282 109.915 28.0152 109.628 27.8279C109.342 27.6406 109.008 27.5409 108.666 27.541C108.184 27.5607 107.73 27.7698 107.402 28.1227C107.074 28.4756 106.899 28.9438 106.915 29.4253Z" fill="#1C1C1C"/>
<path d="M112.849 22.3753H112.74C111.85 22.4458 105.855 22.8973 104.743 22.2631C103.54 21.5819 104.192 25.8464 104.375 26.0813C104.558 26.3162 104.874 25.7942 105.396 25.8464C105.917 25.8986 106.494 26.7599 108.266 26.786C110.038 26.8121 113.59 25.0817 113.59 25.0817L112.849 22.3753Z" fill="#1C1C1C"/>
<path d="M107.332 34.0904C107.567 33.8555 106.578 33.0725 106.886 33.0725C109.574 33.0725 111.098 30.3243 112.009 28.2573C112.956 26.1042 112.401 21.9649 112.067 21.3803C111.709 20.754 108.496 17.9614 106.043 19.7987C105.873 19.9274 105.725 20.0825 105.604 20.2581V20.2294C105.604 20.2294 105.448 19.2089 106.126 18.713C106.805 18.2172 108.475 17.3272 110.023 17.1471C111.571 16.967 115.488 17.4081 116.587 18.974C117.686 20.5399 117.503 25.9058 117.868 27.2395C118.234 28.5731 115.123 31.8955 114.809 32.1982C114.496 32.501 115.712 34.8655 115.712 34.8655C115.712 34.8655 108.269 37.9791 107.361 37.7155C106.453 37.4519 106.079 36.173 106.158 35.5728C106.236 34.9725 107.095 34.3279 107.332 34.0904Z" fill="#FF3126"/>
<path d="M47.5296 19.4941C47.5296 19.575 47.6992 20.88 48.015 22.3519C49.4739 29.195 52.7937 36.5914 59.2739 39.0786V39.1203C56.2465 38.2277 53.7228 36.2677 51.8097 33.8536C48.6283 29.9205 46.3943 24.0249 45.5643 19.8674L47.5296 19.4941Z" fill="white"/>
<path d="M55.9202 37.4327C52.5587 36.8316 49.1229 36.769 45.7417 37.2474C42.2236 37.7364 38.795 38.7333 35.5632 40.207L35.391 39.5754C38.6988 38.1845 42.192 37.2842 45.76 36.9029C49.1532 36.5347 52.5836 36.7136 55.9202 37.4327Z" fill="white"/>
<path d="M89.3373 81.7015C89.3373 81.7015 90.0367 80.1356 90.3656 79.8746C90.6944 79.6136 91.1746 79.4805 91.1746 79.8511C91.1746 80.2217 91.7436 79.6319 92.028 79.5667C92.3125 79.5014 92.2029 80.2243 92.289 80.2896C92.3752 80.3548 92.6805 79.3918 93.0537 79.5901C93.4269 79.7885 93.3382 80.3731 93.5757 80.6184C93.8132 80.8638 95.0633 81.9938 95.0633 81.9938L89.3373 81.7015Z" fill="#1E1E1E"/>
<path d="M87.8262 82.865C87.8297 82.9002 87.8358 82.9351 87.8445 82.9694C87.8445 82.9276 89.0972 88.7946 89.1755 89.1521L89.8828 89.0008C89.7601 86.584 89.1624 83.1025 89.1337 82.9198C91.955 82.9929 94.1055 82.9198 94.2595 82.9198C93.8289 85.1852 93.6958 86.3283 93.6592 86.5736C93.4687 88.1213 93.4557 88.4814 93.4531 88.5023L94.1577 88.6719L94.2517 88.2831C94.497 87.2826 94.7406 86.283 94.9824 85.2843C95.1025 84.7963 95.2199 84.3082 95.34 83.8202C95.46 83.3322 95.708 82.711 95.4705 82.2073C95.4026 82.0616 95.3037 81.9326 95.1806 81.8294C95.0575 81.7261 94.9132 81.6511 94.758 81.6096C94.5153 81.5548 89.1729 81.5757 88.8806 81.5783H88.7892C88.6401 81.5964 88.4962 81.6445 88.3662 81.7197C88.2362 81.7948 88.1228 81.8956 88.0328 82.0159C87.9427 82.1361 87.878 82.2733 87.8425 82.4193C87.807 82.5652 87.8015 82.7168 87.8262 82.865Z" fill="#1C1C1C"/>
<path d="M90.1045 82.8352C90.1045 82.8352 91.2842 80.168 91.8087 80.168C92.3333 80.168 91.3076 83.4929 91.3076 83.4929C91.3076 83.4929 90.2794 83.6678 90.1045 82.8352Z" fill="#E7F3F7"/>
<path d="M88.9664 82.1147C88.9664 82.1147 90.4541 79.6431 90.8247 80.0268C91.1953 80.4104 90.5637 82.8976 90.5637 82.8976C90.5637 82.8976 89.0317 84.0825 88.9664 82.1147Z" fill="#E7F3F7"/>
<path d="M93.0457 83.295C93.0013 82.7939 93.8104 80.2336 92.9361 80.3433C92.0618 80.4529 90.9683 82.8801 91.3702 83.3394C91.7721 83.7987 93.0457 83.295 93.0457 83.295Z" fill="#E7F3F7"/>
<path d="M90.4048 79.0156C90.4048 79.0156 88.6092 80.6233 87.7427 80.6233C86.8762 80.6233 86.4378 81.7168 87.1946 81.8917C87.9515 82.0666 89.2825 81.542 89.2825 81.542L90.4048 79.0156Z" fill="#E7F3F7"/>
<path d="M97.3857 83.8848L97.2108 84.0596L97.3857 83.8848Z" fill="black"/>
<path d="M115.997 72.4305C113.888 69.4553 109.642 70.1443 104.156 67.5919C99.6099 65.4805 96.204 62.1999 94.7059 57.5726C94.6031 57.3053 94.4855 57.0439 94.3536 56.7896C94.2257 56.5104 93.7768 56.6591 93.7794 56.9436C93.7711 57.2308 93.7956 57.518 93.8525 57.7996C94.6824 61.0307 97.3236 64.7732 101.711 67.37C107.403 70.7394 111.628 70.2722 114.194 71.9843C116.094 73.2527 116.149 75.3901 115.47 77.5668C113.677 83.3085 108.87 81.5729 104.409 82.2489C101.489 82.6925 97.8847 84.2924 96.5641 86.8814C95.7812 88.429 95.3636 90.4882 95.3088 92.4534L95.8308 92.0437C96.1596 89.8566 96.9165 87.2702 98.0126 86.1088C99.5211 84.5064 101.729 83.5642 103.867 83.1336C108.061 82.2854 113.432 84.1515 115.893 79.0231C116.843 77.0526 117.318 74.2705 115.997 72.4305Z" fill="#0D0D0D"/>
<path d="M117.393 35.2734C117.393 35.2734 120.196 35.6832 120.786 38.0007C121.527 40.9107 115.827 57.6687 113.977 59.9445C112.127 62.2203 95.9846 59.0415 94.4996 58.4281C93.0145 57.8148 90.6787 56.3872 90.6787 56.3872L91.9836 52.5273C94.761 52.7742 97.5579 52.6866 100.314 52.2663C104.777 51.5668 106.638 52.5951 106.638 52.5951C106.638 52.5951 110.918 35.6232 117.393 35.2734Z" fill="#DE3831"/>
<path d="M92.3728 57.6558C92.3728 57.6558 88.4789 55.5339 87.3566 55.5522C85.7542 55.5757 83.6532 54.6179 83.2748 54.2473C82.9486 53.9237 81.808 50.3168 82.792 49.988C83.7759 49.6591 86.4666 49.8575 87.8447 50.5778C89.2227 51.2981 89.2514 52.0028 89.2514 52.0028L94.351 52.6239L92.3728 57.6558Z" fill="#E7F3F7"/>
<path d="M61.3152 39.6417L60.8794 40.5034C60.8143 40.6321 60.8659 40.7891 60.9945 40.8541L66.3044 43.5398C66.433 43.6049 66.59 43.5534 66.6551 43.4248L67.0909 42.5631C67.156 42.4344 67.1045 42.2774 66.9758 42.2124L61.6659 39.5266C61.5373 39.4616 61.3803 39.5131 61.3152 39.6417Z" fill="#1C1C1C"/>
<path d="M92.1425 15.5021C91.8333 15.4172 91.5562 15.2426 91.3463 15.0003C91.1364 14.758 91.003 14.4588 90.9631 14.1407C90.9233 13.8226 90.9786 13.4998 91.1223 13.2131C91.2659 12.9264 91.4913 12.6888 91.77 12.5303C92.0487 12.3718 92.3681 12.2995 92.6879 12.3226C93.0077 12.3456 93.3134 12.463 93.5665 12.6599C93.8195 12.8568 94.0085 13.1243 94.1095 13.4286C94.2105 13.7329 94.219 14.0603 94.1339 14.3694C94.0198 14.7835 93.746 15.1355 93.3726 15.3479C92.9992 15.5602 92.5568 15.6157 92.1425 15.5021Z" fill="#9C9C9C"/>
<path d="M71.4287 9.22277C71.1195 9.13795 70.8424 8.96333 70.6324 8.721C70.4225 8.47867 70.2892 8.17952 70.2493 7.86139C70.2094 7.54327 70.2648 7.22046 70.4084 6.9338C70.552 6.64715 70.7774 6.40954 71.0561 6.25102C71.3348 6.0925 71.6542 6.0202 71.974 6.04326C72.2938 6.06633 72.5996 6.18372 72.8526 6.3806C73.1057 6.57747 73.2946 6.84498 73.3956 7.14927C73.4966 7.45357 73.5051 7.78098 73.42 8.09009C73.3059 8.50424 73.0321 8.85617 72.6587 9.06856C72.2854 9.28095 71.8429 9.33641 71.4287 9.22277Z" fill="#9C9C9C"/>
<path d="M71.2193 26.1894C70.9109 26.1041 70.6348 25.9294 70.4257 25.6872C70.2166 25.445 70.0841 25.1462 70.0447 24.8287C70.0054 24.5112 70.0611 24.1891 70.2048 23.9032C70.3485 23.6173 70.5737 23.3805 70.8519 23.2225C71.1302 23.0646 71.4491 22.9927 71.7682 23.016C72.0873 23.0392 72.3923 23.1566 72.6448 23.3532C72.8972 23.5498 73.0857 23.8168 73.1864 24.1205C73.2872 24.4241 73.2956 24.7509 73.2107 25.0594C73.1542 25.2644 73.0579 25.4563 72.9273 25.624C72.7966 25.7918 72.6342 25.9322 72.4492 26.0371C72.2643 26.1421 72.0605 26.2096 71.8494 26.2357C71.6384 26.2618 71.4243 26.2461 71.2193 26.1894Z" fill="#9C9C9C"/>
<path d="M89.0084 25.6692C88.6381 25.5672 88.3065 25.3577 88.0553 25.0672C87.8042 24.7768 87.6448 24.4184 87.5973 24.0373C87.5498 23.6562 87.6164 23.2697 87.7886 22.9265C87.9608 22.5832 88.2309 22.2988 88.5647 22.109C88.8986 21.9193 89.2812 21.8328 89.6642 21.8605C90.0472 21.8882 90.4134 22.0289 90.7165 22.2647C91.0195 22.5005 91.2459 22.8208 91.3669 23.1852C91.4879 23.5497 91.4982 23.9418 91.3964 24.3121C91.2592 24.8084 90.9307 25.23 90.483 25.4844C90.0353 25.7389 89.505 25.8053 89.0084 25.6692Z" fill="#9C9C9C"/>
<path d="M89.9686 19.6593C89.7667 19.5734 89.5947 19.4296 89.4745 19.246C89.3543 19.0623 89.2912 18.8471 89.2934 18.6277C89.2955 18.4082 89.3627 18.1943 89.4865 18.013C89.6103 17.8318 89.785 17.6913 89.9887 17.6094C90.1923 17.5275 90.4157 17.5079 90.6305 17.553C90.8453 17.5981 91.0419 17.7059 91.1954 17.8628C91.3488 18.0197 91.4524 18.2186 91.4928 18.4343C91.5332 18.65 91.5087 18.8729 91.4223 19.0747C91.3068 19.3448 91.0889 19.558 90.8164 19.6676C90.5439 19.7772 90.239 19.7742 89.9686 19.6593Z" fill="#9C9C9C"/>
<path d="M77.0575 27.2726C76.8463 27.2146 76.6569 27.0954 76.5133 26.93C76.3697 26.7645 76.2783 26.5602 76.2507 26.3429C76.223 26.1256 76.2604 25.9049 76.358 25.7088C76.4556 25.5126 76.6091 25.3498 76.7991 25.2408C76.9892 25.1318 77.2072 25.0815 77.4258 25.0963C77.6444 25.111 77.8537 25.1902 78.0273 25.3238C78.201 25.4574 78.3312 25.6394 78.4015 25.8469C78.4718 26.0543 78.4791 26.278 78.4225 26.4896C78.3847 26.6309 78.3193 26.7633 78.2302 26.8793C78.141 26.9952 78.0298 27.0923 77.9029 27.1651C77.7761 27.2379 77.6361 27.2848 77.491 27.3033C77.3459 27.3217 77.1986 27.3113 77.0575 27.2726Z" fill="#9C9C9C"/>
<path d="M79.4744 11.7433C79.2632 11.6854 79.0738 11.5661 78.9302 11.4007C78.7866 11.2352 78.6952 11.0309 78.6676 10.8136C78.6399 10.5963 78.6773 10.3756 78.7749 10.1795C78.8725 9.98335 79.026 9.82051 79.216 9.7115C79.406 9.6025 79.6241 9.55221 79.8427 9.56698C80.0612 9.58175 80.2706 9.66092 80.4442 9.7945C80.6178 9.92808 80.748 10.1101 80.8184 10.3176C80.8887 10.5251 80.896 10.7487 80.8394 10.9604C80.8013 11.1015 80.7357 11.2336 80.6465 11.3494C80.5572 11.4651 80.446 11.5621 80.3192 11.6348C80.1925 11.7076 80.0526 11.7546 79.9076 11.7732C79.7627 11.7918 79.6155 11.7816 79.4744 11.7433Z" fill="#9C9C9C"/>
<path d="M85.1796 13.3065C84.704 13.1752 84.278 12.906 83.9554 12.5326C83.6328 12.1593 83.4281 11.6987 83.3672 11.2091C83.3063 10.7195 83.392 10.2228 83.6134 9.78187C83.8347 9.34093 84.1818 8.97551 84.6109 8.73182C85.0399 8.48813 85.5315 8.3771 86.0236 8.41278C86.5157 8.44846 86.9862 8.62925 87.3756 8.93228C87.7649 9.2353 88.0557 9.64697 88.2112 10.1152C88.3666 10.5835 88.3797 11.0874 88.2488 11.5631C88.0726 12.201 87.6504 12.7429 87.075 13.0698C86.4995 13.3967 85.8178 13.4818 85.1796 13.3065Z" fill="#9C9C9C"/>
<path d="M78.7231 21.7382C78.2466 21.6075 77.8197 21.3384 77.4962 20.9649C77.1727 20.5915 76.9673 20.1305 76.9059 19.6403C76.8444 19.1501 76.9298 18.6526 77.1511 18.2109C77.3724 17.7692 77.7197 17.403 78.1491 17.1587C78.5785 16.9144 79.0708 16.803 79.5636 16.8385C80.0563 16.874 80.5275 17.0548 80.9175 17.3581C81.3075 17.6615 81.5988 18.0736 81.7545 18.5425C81.9102 19.0114 81.9233 19.5159 81.7923 19.9922C81.6166 20.6307 81.1946 21.1732 80.6191 21.5006C80.0436 21.828 79.3616 21.9135 78.7231 21.7382Z" fill="#9C9C9C"/>
<path d="M81.604 31.8318C81.1275 31.7009 80.7006 31.4316 80.3772 31.058C80.0538 30.6844 79.8485 30.2232 79.7873 29.7329C79.7261 29.2426 79.8117 28.7451 80.0333 28.3034C80.2548 27.8618 80.6025 27.4957 81.0321 27.2517C81.4618 27.0076 81.9542 26.8965 82.447 26.9324C82.9398 26.9682 83.4109 27.1495 83.8007 27.4532C84.1905 27.7568 84.4815 28.1693 84.6368 28.6384C84.7921 29.1075 84.8048 29.6121 84.6732 30.0884C84.5862 30.4045 84.4379 30.7003 84.2365 30.959C84.0352 31.2177 83.7849 31.4342 83.4998 31.5961C83.2148 31.758 82.9007 31.8622 82.5754 31.9026C82.2501 31.943 81.92 31.919 81.604 31.8318Z" fill="#9C9C9C"/>
<path d="M32.3954 29.4529C32.1934 29.242 32.0357 28.9927 31.9317 28.7197C31.8276 28.4468 31.7792 28.1558 31.7894 27.8639C31.7996 27.572 31.8682 27.2851 31.9911 27.0201C32.1141 26.7551 32.2888 26.5174 32.5051 26.3211C32.9672 25.9367 33.5605 25.7468 34.16 25.7916C34.7594 25.8364 35.318 26.1124 35.7178 26.5612C35.9212 26.7728 36.08 27.023 36.1849 27.2971C36.2897 27.5712 36.3385 27.8635 36.3283 28.1568C36.3181 28.4501 36.249 28.7384 36.1254 29.0045C36.0017 29.2706 35.8258 29.5092 35.6082 29.7061C35.1445 30.0889 34.5501 30.2766 33.9506 30.2293C33.3511 30.1821 32.7935 29.9037 32.3954 29.4529Z" fill="#9C9C9C"/>
<path d="M27.9111 3.67871C27.7077 3.46714 27.5489 3.2169 27.4441 2.94281C27.3392 2.66872 27.2904 2.37636 27.3006 2.08308C27.3109 1.78979 27.3799 1.50154 27.5036 1.23542C27.6273 0.969296 27.8031 0.730716 28.0207 0.533821C28.4834 0.150331 29.0769 -0.0386744 29.6761 0.00659767C30.2753 0.0518697 30.8336 0.327887 31.2335 0.776539C31.4352 0.98769 31.5926 1.23705 31.6964 1.50994C31.8003 1.78282 31.8486 2.07373 31.8384 2.36555C31.8282 2.65736 31.7597 2.94418 31.637 3.20914C31.5143 3.4741 31.3398 3.71184 31.1239 3.90838C30.6631 4.29408 30.0705 4.48572 29.4711 4.44287C28.8717 4.40002 28.3124 4.12604 27.9111 3.67871Z" fill="#9C9C9C"/>
<path d="M13.0797 18.2477C12.878 18.0367 12.7205 17.7876 12.6164 17.5149C12.5123 17.2422 12.4637 16.9515 12.4734 16.6598C12.4831 16.3681 12.551 16.0813 12.673 15.8162C12.7951 15.551 12.9688 15.3129 13.1841 15.1159C13.6468 14.7324 14.2402 14.5434 14.8395 14.5886C15.4387 14.6339 15.997 14.9099 16.3969 15.3586C16.5985 15.5697 16.7559 15.8191 16.8598 16.092C16.9637 16.3649 17.012 16.6558 17.0017 16.9476C16.9915 17.2394 16.9231 17.5262 16.8004 17.7912C16.6776 18.0561 16.5032 18.2939 16.2872 18.4904C15.8254 18.8736 15.2328 19.0624 14.6344 19.0171C14.0361 18.9719 13.4786 18.696 13.0797 18.2477Z" fill="#9C9C9C"/>
<path d="M21.1728 38.6426C20.929 38.3891 20.7387 38.0892 20.613 37.7606C20.4874 37.4321 20.429 37.0817 20.4415 36.7301C20.4539 36.3786 20.5368 36.0332 20.6853 35.7143C20.8338 35.3955 21.0449 35.1097 21.3059 34.874C21.8603 34.4134 22.5719 34.1862 23.2906 34.2403C24.0093 34.2943 24.6789 34.6254 25.1581 35.1637C25.4022 35.4171 25.5929 35.7169 25.7187 36.0455C25.8446 36.3741 25.903 36.7246 25.8906 37.0762C25.8782 37.4279 25.7952 37.7734 25.6465 38.0923C25.4977 38.4111 25.2864 38.6968 25.025 38.9323C24.4704 39.3923 23.7589 39.6191 23.0404 39.5651C22.3219 39.511 21.6524 39.1803 21.1728 38.6426Z" fill="#9C9C9C"/>
<path d="M26.7366 32.5253C26.6175 32.3641 26.5324 32.1803 26.4864 31.9852C26.4405 31.7901 26.4346 31.5877 26.4693 31.3902C26.504 31.1928 26.5784 31.0044 26.688 30.8366C26.7977 30.6688 26.9403 30.525 27.1072 30.414C27.4575 30.1961 27.8782 30.1215 28.282 30.2056C28.6858 30.2896 29.0418 30.5259 29.276 30.8655C29.3952 31.0265 29.4805 31.2102 29.5267 31.4052C29.5728 31.6002 29.5789 31.8026 29.5445 32C29.51 32.1975 29.4359 32.3858 29.3265 32.5538C29.2171 32.7217 29.0747 32.8656 28.908 32.9768C28.5573 33.1948 28.1362 33.2695 27.732 33.1855C27.3277 33.1014 26.9713 32.865 26.7366 32.5253Z" fill="#9C9C9C"/>
<path d="M5.71182 31.2711C5.57225 31.1264 5.46324 30.9551 5.39127 30.7674C5.31931 30.5797 5.28585 30.3794 5.29292 30.1785C5.29998 29.9776 5.34741 29.7801 5.43238 29.5979C5.51735 29.4157 5.63812 29.2525 5.78751 29.118C6.10425 28.855 6.51082 28.7253 6.92134 28.7565C7.33187 28.7877 7.71421 28.9772 7.98762 29.285C8.12718 29.4297 8.2362 29.601 8.30817 29.7887C8.38013 29.9764 8.41358 30.1767 8.40652 30.3776C8.39946 30.5785 8.35203 30.776 8.26706 30.9582C8.18209 31.1404 8.06132 31.3036 7.91193 31.4381C7.59519 31.7012 7.18862 31.8308 6.77809 31.7996C6.36757 31.7684 5.98522 31.5789 5.71182 31.2711Z" fill="#9C9C9C"/>
<path d="M39.2173 3.6316C39.0777 3.4869 38.9687 3.31559 38.8968 3.12788C38.8248 2.94016 38.7913 2.73989 38.7984 2.53897C38.8055 2.33806 38.8529 2.14062 38.9379 1.95843C39.0228 1.77623 39.1436 1.613 39.293 1.47846C39.6094 1.21512 40.0158 1.08506 40.4263 1.11574C40.8368 1.14642 41.2194 1.33544 41.4931 1.64288C41.6327 1.78758 41.7417 1.95889 41.8137 2.1466C41.8856 2.33431 41.9191 2.53459 41.912 2.73551C41.905 2.93642 41.8575 3.13385 41.7726 3.31605C41.6876 3.49825 41.5668 3.66148 41.4174 3.79602C41.101 4.05935 40.6946 4.18941 40.2841 4.15873C39.8736 4.12805 39.4911 3.93904 39.2173 3.6316Z" fill="#9C9C9C"/>
<path d="M30.7587 17.0511C29.4381 15.6079 29.5138 13.4391 30.9284 12.2046C32.3429 10.9701 34.5587 11.1346 35.8871 12.5778C36.2012 12.9032 36.4466 13.2886 36.6086 13.7109C36.7707 14.1331 36.846 14.5837 36.8302 15.0358C36.8143 15.4878 36.7077 15.932 36.5165 16.3419C36.3253 16.7518 36.0536 17.1191 35.7175 17.4217C34.2951 18.6588 32.0793 18.4918 30.7587 17.0511Z" fill="#9C9C9C"/>
<path d="M17.9733 10.3525C17.6597 10.0268 17.4148 9.64124 17.2532 9.21889C17.0916 8.79654 17.0166 8.346 17.0326 7.89408C17.0487 7.44215 17.1555 6.99808 17.3467 6.58827C17.5379 6.17847 17.8096 5.81131 18.1456 5.50864C19.5601 4.27156 21.7759 4.43859 23.1043 5.87924C24.4327 7.31988 24.3492 9.49129 22.9347 10.7258C21.5201 11.9602 19.2939 11.7958 17.9733 10.3525Z" fill="#9C9C9C"/>
<path d="M19.2913 54.4721C18.9774 54.1463 18.7322 53.7607 18.5704 53.3382C18.4085 52.9157 18.3333 52.465 18.3491 52.0129C18.3649 51.5608 18.4715 51.1164 18.6625 50.7063C18.8535 50.2962 19.125 49.9287 19.4609 49.6256C20.8754 48.3911 23.0912 48.5582 24.4196 49.9988C24.7338 50.3242 24.9792 50.7096 25.1412 51.1319C25.3032 51.5542 25.3785 52.0047 25.3627 52.4568C25.3469 52.9088 25.2402 53.353 25.049 53.7629C24.8579 54.1728 24.5861 54.5401 24.25 54.8427C22.8407 56.0902 20.6092 55.9128 19.2913 54.4721Z" fill="#9C9C9C"/>
</svg>
