<?xml version="1.0" encoding="UTF-8"?>
<svg width="22px" height="22px" viewBox="0 0 22 22" version="1.1" xmlns="http://www.w3.org/2000/svg" xmlns:xlink="http://www.w3.org/1999/xlink">
    <!-- Generator: Sketch 63.1 (92452) - https://sketch.com -->
    <title>icon-phone</title>
    <desc>Created with Sketch.</desc>
    <g id="Page-1" stroke="none" stroke-width="1" fill="none" fill-rule="evenodd">
        <g id="icon-phone" fill="#1173AF" fill-rule="nonzero">
            <path d="M14.921683,22 C16.702791,21.9996978 18.295497,21.4020934 19.527618,20.1689676 L21.327064,18.368575 C22.224362,17.4700461 22.224362,16.0081928 21.326762,15.1102716 L18.592728,12.3743398 C18.124979,11.905964 17.479135,11.6629812 16.817531,11.7039305 C16.157136,11.7463977 15.54661,12.0712895 15.142369,12.595179 L13.36914,14.8930692 C12.079274,14.2002141 10.875349,13.298347 9.7854,12.207493 C8.701062,11.1224015 7.803159,9.9244659 7.112451,8.6421968 L9.414506,6.8633401 C9.938032,6.4589708 10.262695,5.8480211 10.305136,5.1876224 C10.347425,4.5269216 10.103395,3.8792672 9.635344,3.4108915 L6.901463,0.67495963 C6.466606,0.23964825 5.888365,0 5.273289,0 C4.658216,0 4.080124,0.23964825 3.64542,0.67495963 L2.21429,2.1067809 C2.066507,2.2323693 1.943734,2.344609 1.829754,2.4586689 C-1.502984,5.7934174 -0.191593,11.763991 5.018499,16.9776996 C8.302134,20.2636139 11.885874,22 14.921683,22 Z M2.926828,3.5571091 C3.027167,3.4570024 3.132661,3.3632661 3.240127,3.2728678 C3.256951,3.2586091 3.273168,3.2437459 3.288781,3.2279727 L4.742952,1.7730977 C4.884671,1.6311281 5.072923,1.5531685 5.273299,1.5531685 C5.473676,1.5531685 5.662077,1.6311316 5.803948,1.7730977 L8.537829,4.5090295 C8.692585,4.6640421 8.770189,4.8697159 8.756242,5.088127 C8.742146,5.3065417 8.639078,5.5003812 8.465984,5.6341602 L5.853814,7.6526652 C5.44321,7.9699708 5.314224,8.5351153 5.546881,8.9968184 C6.33308,10.5569583 7.389983,12.0066751 8.687882,13.305631 C9.991844,14.6106516 11.448442,15.6720815 13.017503,16.4601874 C13.477973,16.6913395 14.041816,16.5621143 14.358451,16.1522846 L16.370856,13.5443692 C16.504542,13.3711554 16.6984,13.2680163 16.916663,13.2540597 C17.135533,13.2379843 17.340457,13.317764 17.495209,13.4724744 L20.229393,16.2084062 C20.521927,16.5011402 20.521622,16.9777065 20.229393,17.2704405 L18.430249,19.070833 C15.743353,21.7588338 10.679981,20.4468384 6.115882,15.8795685 C1.552079,11.312302 0.240692,6.2451099 2.926828,3.5571091 Z" id="Shape"></path>
        </g>
    </g>
</svg>