<svg width="17" height="20" viewBox="0 0 17 20" fill="none" xmlns="http://www.w3.org/2000/svg">
<path d="M8.53662 9.82836C5.85369 9.82836 3.65857 7.63324 3.65857 4.95031C3.65857 2.26739 5.85369 0.0722656 8.53662 0.0722656C11.2195 0.0722656 13.4147 2.26739 13.4147 4.95031C13.4147 7.63324 11.2195 9.82836 8.53662 9.82836ZM8.53662 1.56007C6.65857 1.56007 5.12198 3.09666 5.12198 4.9747C5.12198 6.85275 6.65857 8.38934 8.53662 8.38934C10.4147 8.38934 11.9513 6.85275 11.9513 4.9747C11.9513 3.09666 10.4147 1.56007 8.53662 1.56007Z" fill="#3D8FCB"/>
<path d="M16.1951 19.9011C15.791 19.9011 15.4634 19.5735 15.4634 19.1694V18.6816C15.4634 15.0474 12.5122 12.0962 8.87807 12.0962H8.19514C4.561 12.0962 1.60978 15.0474 1.60978 18.6816V19.1694C1.60978 19.5735 1.28218 19.9011 0.87807 19.9011C0.473959 19.9011 0.146362 19.5735 0.146362 19.1694V18.6816C0.146362 14.2426 3.75612 10.6328 8.19514 10.6328H8.87807C13.3171 10.6328 16.9268 14.2426 16.9268 18.6816V19.1694C16.9268 19.5735 16.5993 19.9011 16.1951 19.9011Z" fill="#3D8FCB"/>
</svg>
