<svg width="24" height="24" viewBox="0 0 24 24" fill="none" xmlns="http://www.w3.org/2000/svg">
<rect width="24" height="24" fill="white"/>
<path d="M8.2439 2.82927V2H2V8.2439H2.82927V3.41463L8.78049 9.36585L9.36585 8.78049L3.41463 2.82927H8.2439ZM15.7561 2V2.82927H20.5854L14.6341 8.78049L15.2195 9.36585L21.1707 3.41463V8.2439H22V2H15.7561ZM8.78049 14.6341L2.82927 20.5854V15.7561H2V22H8.2439V21.1707H3.41463L9.36585 15.2195L8.78049 14.6341ZM21.1707 20.5854L15.2195 14.6341L14.6341 15.2195L20.5854 21.1707H15.7561V22H22V15.7561H21.1707V20.5854Z" fill="#FF3126"/>
</svg>
