<svg width="16" height="16" viewBox="0 0 16 16" fill="none" xmlns="http://www.w3.org/2000/svg">
<path opacity="0.9" d="M8.03756 5.07042C8.16276 5.07042 8.28795 5.04538 8.41315 4.99531C8.53834 4.94523 8.6385 4.88263 8.71361 4.80751C8.81377 4.73239 8.88889 4.63224 8.93897 4.50704C8.98905 4.38185 9.01408 4.25665 9.01408 4.13146C9.01408 4.00626 8.98905 3.88106 8.93897 3.75587C8.88889 3.63067 8.81377 3.53052 8.71361 3.4554C8.6385 3.35524 8.53834 3.28013 8.41315 3.23005C8.28795 3.17997 8.16276 3.15493 8.03756 3.15493C7.91236 3.15493 7.78717 3.17997 7.66197 3.23005C7.53678 3.28013 7.43662 3.35524 7.3615 3.4554C7.26134 3.53052 7.18623 3.63067 7.13615 3.75587C7.08607 3.88106 7.06103 4.00626 7.06103 4.13146C7.06103 4.25665 7.08607 4.38185 7.13615 4.50704C7.18623 4.63224 7.26134 4.73239 7.3615 4.80751C7.43662 4.88263 7.53678 4.94523 7.66197 4.99531C7.78717 5.04538 7.91236 5.07042 8.03756 5.07042ZM8.67606 6.38498V5.74648H6.76056V6.38498H7.39906V11.831H6.76056V12.4695H9.35211V11.831H8.67606V6.38498ZM8 0C6.89827 0 5.85916 0.206571 4.88263 0.619719C3.9061 1.03287 3.05478 1.6025 2.32864 2.32864C1.6025 3.05478 1.03287 3.9061 0.619719 4.88263C0.206571 5.85916 0 6.89827 0 8C0 9.10173 0.206571 10.1408 0.619719 11.1174C1.03287 12.0939 1.6025 12.9452 2.32864 13.6714C3.05478 14.3975 3.9061 14.9671 4.88263 15.3803C5.85916 15.7934 6.89827 16 8 16C9.10173 16 10.1408 15.7934 11.1174 15.3803C12.0939 14.9671 12.9452 14.3975 13.6714 13.6714C14.3975 12.9452 14.9671 12.0939 15.3803 11.1174C15.7934 10.1408 16 9.10173 16 8C16 6.89827 15.7934 5.85916 15.3803 4.88263C14.9671 3.9061 14.3975 3.05478 13.6714 2.32864C12.9452 1.6025 12.0939 1.03287 11.1174 0.619719C10.1408 0.206571 9.10173 0 8 0ZM8 15.3615C6.97339 15.3615 6.01565 15.1675 5.12676 14.7793C4.23787 14.3912 3.4554 13.8717 2.77934 13.2207C2.12832 12.5446 1.60877 11.7621 1.22066 10.8732C0.832549 9.98435 0.638498 9.02661 0.638498 8C0.638498 6.97339 0.832549 6.01565 1.22066 5.12676C1.60877 4.23787 2.12832 3.4554 2.77934 2.77934C3.4554 2.12832 4.23787 1.60877 5.12676 1.22066C6.01565 0.832549 6.97339 0.638498 8 0.638498C9.02661 0.638498 9.98435 0.832549 10.8732 1.22066C11.7621 1.60877 12.5446 2.12832 13.2207 2.77934C13.8717 3.4554 14.3912 4.23787 14.7793 5.12676C15.1675 6.01565 15.3615 6.97339 15.3615 8C15.3615 9.02661 15.1675 9.98435 14.7793 10.8732C14.3912 11.7621 13.8717 12.5446 13.2207 13.2207C12.5446 13.8717 11.7621 14.3912 10.8732 14.7793C9.98435 15.1675 9.02661 15.3615 8 15.3615Z" fill="black"/>
</svg>
