<svg width="22" height="20" viewBox="0 0 22 20" fill="none" xmlns="http://www.w3.org/2000/svg">
<g clip-path="url(#clip0)">
<path d="M11.1691 4.85714C10.4091 4.85714 9.69553 4.98701 9.02825 5.24675C8.36097 5.52381 7.78174 5.89177 7.29055 6.35065C6.79936 6.80953 6.40548 7.35065 6.10892 7.97403C5.83088 8.59741 5.69187 9.26407 5.69187 9.97403C5.69187 10.684 5.83088 11.3506 6.10892 11.974C6.40548 12.5974 6.79936 13.1385 7.29055 13.5974C7.78174 14.0563 8.36097 14.4242 9.02825 14.7013C9.69553 14.961 10.4091 15.0909 11.1691 15.0909C11.929 15.0909 12.6427 14.961 13.3099 14.7013C13.9772 14.4242 14.5564 14.0563 15.0476 13.5974C15.5388 13.1385 15.9327 12.5974 16.2293 11.974C16.5073 11.3506 16.6463 10.684 16.6463 9.97403C16.6463 9.26407 16.5073 8.59741 16.2293 7.97403C15.9327 7.35065 15.5388 6.80953 15.0476 6.35065C14.5564 5.89177 13.9772 5.52381 13.3099 5.24675C12.6427 4.98701 11.929 4.85714 11.1691 4.85714ZM11.1691 13.2987C10.1867 13.2987 9.34799 12.974 8.65291 12.3247C7.95782 11.6753 7.61029 10.8918 7.61029 9.97403C7.61029 9.05627 7.95782 8.27273 8.65291 7.62338C9.34799 6.97402 10.1867 6.64935 11.1691 6.64935C12.1515 6.64935 12.9902 6.97402 13.6853 7.62338C14.3804 8.27273 14.7279 9.05627 14.7279 9.97403C14.7279 10.8918 14.3804 11.6753 13.6853 12.3247C12.9902 12.974 12.1515 13.2987 11.1691 13.2987ZM18.1477 4.64935C18.1477 4.32034 18.0226 4.04329 17.7723 3.81818C17.5221 3.59307 17.2209 3.48052 16.8687 3.48052C16.5166 3.48052 16.2154 3.59307 15.9651 3.81818C15.7149 4.04329 15.5898 4.32034 15.5898 4.64935C15.5898 4.99567 15.7149 5.28138 15.9651 5.50649C16.2154 5.7316 16.5166 5.84416 16.8687 5.84416C17.2209 5.84416 17.5221 5.7316 17.7723 5.50649C18.0226 5.28138 18.1477 4.99567 18.1477 4.64935ZM21.2894 3.45455C21.0114 2.77922 20.599 2.18615 20.0522 1.67532C19.5054 1.1645 18.8798 0.779222 18.1755 0.519481C17.7492 0.380951 17.3182 0.272728 16.8826 0.194805C16.4471 0.116882 16.0068 0.0779215 15.562 0.0779215C15.0059 0.0432895 14.4962 0.0216447 14.0328 0.0129873C13.5694 0.00432873 12.6149 0 11.1691 0C9.72332 0 8.76875 0.00432873 8.30537 0.0129873C7.84198 0.0216447 7.33226 0.0432895 6.77619 0.0779215C6.33134 0.0779215 5.89113 0.116882 5.45554 0.194805C5.01996 0.272728 4.59828 0.380951 4.1905 0.519481C3.46761 0.779222 2.83278 1.1645 2.28598 1.67532C1.73918 2.18615 1.32677 2.77922 1.04874 3.45455C0.900454 3.8355 0.784609 4.22943 0.701199 4.63636C0.617789 5.04329 0.566818 5.45454 0.548282 5.87013C0.529747 6.40693 0.515845 6.88744 0.506578 7.31169C0.497309 7.73593 0.492676 8.62337 0.492676 9.97403C0.492676 11.3247 0.497309 12.2164 0.506578 12.6493C0.515845 13.0823 0.529747 13.5671 0.548282 14.1039C0.566818 14.5195 0.617789 14.9264 0.701199 15.3247C0.784609 15.7229 0.900454 16.1212 1.04874 16.5195C1.32677 17.1948 1.73918 17.7835 2.28598 18.2857C2.83278 18.7879 3.46761 19.1688 4.1905 19.4286C4.59828 19.5844 5.01996 19.7056 5.45554 19.7922C5.89113 19.8788 6.33134 19.9221 6.77619 19.9221C7.35079 19.9567 7.86515 19.9784 8.31927 19.987C8.77339 19.9957 9.72332 20 11.1691 20C12.6149 20 13.5694 19.9957 14.0328 19.987C14.4962 19.9784 15.0152 19.9567 15.5898 19.9221C16.0161 19.9221 16.4471 19.8831 16.8826 19.8052C17.3182 19.7273 17.7492 19.619 18.1755 19.4805C18.8984 19.2208 19.5286 18.8355 20.0661 18.3247C20.6036 17.8139 21.0114 17.2208 21.2894 16.5455C21.4563 16.1645 21.5814 15.7706 21.6648 15.3636C21.7482 14.9567 21.7899 14.5455 21.7899 14.1299C21.8084 13.5931 21.8223 13.1126 21.8316 12.6883C21.8409 12.2641 21.8455 11.3766 21.8455 10.026C21.8455 8.658 21.8455 7.76191 21.8455 7.33766C21.8455 6.91342 21.827 6.4329 21.7899 5.8961C21.7899 5.48052 21.7482 5.06494 21.6648 4.64935C21.5814 4.23376 21.4563 3.8355 21.2894 3.45455ZM19.8437 14C19.8437 14.329 19.8112 14.6493 19.7464 14.961C19.6815 15.2727 19.5935 15.5758 19.4822 15.8701C19.2969 16.3203 19.0281 16.71 18.6759 17.039C18.3238 17.368 17.916 17.6104 17.4526 17.7662C17.1375 17.8874 16.8131 17.974 16.4795 18.026C16.1459 18.0779 15.8122 18.1126 15.4786 18.1299C14.904 18.1472 14.3989 18.1602 13.9633 18.1688C13.5277 18.1775 12.5871 18.1818 11.1413 18.1818C9.69552 18.1818 8.75485 18.1775 8.31927 18.1688C7.88368 18.1602 7.3786 18.1472 6.80399 18.1299C6.45182 18.1299 6.11355 18.0996 5.78918 18.039C5.46481 17.9784 5.13581 17.8874 4.80217 17.7662C4.33878 17.6104 3.931 17.368 3.57883 17.039C3.22665 16.71 2.95789 16.3203 2.77254 15.8701C2.66132 15.5758 2.57328 15.2727 2.50841 14.961C2.44353 14.6493 2.4111 14.3377 2.4111 14.026C2.37402 13.5065 2.35549 13.039 2.35549 12.6234C2.35549 12.2078 2.35549 11.3247 2.35549 9.97403C2.35549 8.62337 2.35549 7.74459 2.35549 7.33766C2.35549 6.93073 2.37402 6.45888 2.4111 5.92208C2.4111 5.61039 2.44353 5.2987 2.50841 4.98701C2.57328 4.67532 2.66132 4.36364 2.77254 4.05195C2.95789 3.61905 3.22665 3.2381 3.57883 2.90909C3.931 2.58009 4.33878 2.32901 4.80217 2.15584C5.13581 2.05195 5.46481 1.9697 5.78918 1.90909C6.11355 1.84848 6.45182 1.81818 6.80399 1.81818C7.36006 1.80087 7.86051 1.78788 8.30537 1.77922C8.75022 1.77056 9.69552 1.76623 11.1413 1.76623C12.5871 1.76623 13.5277 1.76623 13.9633 1.76623C14.3989 1.76623 14.904 1.78355 15.4786 1.81818C15.8122 1.81818 16.1459 1.84848 16.4795 1.90909C16.8131 1.9697 17.1375 2.05195 17.4526 2.15584C17.916 2.32901 18.3238 2.58009 18.6759 2.90909C19.0281 3.2381 19.2969 3.61905 19.4822 4.05195C19.5935 4.36364 19.6815 4.67099 19.7464 4.97403C19.8112 5.27706 19.8437 5.59307 19.8437 5.92208C19.8622 6.44156 19.8761 6.90909 19.8854 7.32468C19.8947 7.74026 19.8993 8.62337 19.8993 9.97403C19.8993 11.3247 19.8993 12.2035 19.8993 12.6104C19.8993 13.0173 19.89 13.4805 19.8715 14H19.8437Z" fill="white"/>
</g>
<defs>
<clipPath id="clip0">
<rect width="21.4084" height="20" fill="white" transform="translate(0.492676)"/>
</clipPath>
</defs>
</svg>
