<svg width="22" height="20" viewBox="0 0 22 20" fill="none" xmlns="http://www.w3.org/2000/svg">
<g clip-path="url(#clip0)">
<path d="M5.30702 2.41956C5.30702 3.07165 5.05445 3.63363 4.54932 4.10553C4.04418 4.57744 3.44262 4.81338 2.74462 4.81338C2.02824 4.81338 1.4175 4.57744 0.912362 4.10553C0.407227 3.63363 0.154663 3.07165 0.154663 2.41956C0.154663 1.75032 0.407227 1.17975 0.912362 0.70785C1.4175 0.235948 2.02824 0 2.74462 0C3.44262 0 4.04418 0.235948 4.54932 0.70785C5.05445 1.17975 5.30702 1.75032 5.30702 2.41956ZM11.9748 6.64093V8.46847H12.0574C12.3513 7.9365 12.8519 7.44316 13.559 6.98842C14.2662 6.53367 15.1617 6.30631 16.2454 6.30631C18.4864 6.30631 19.9329 6.91548 20.585 8.13385C21.2371 9.35221 21.5631 10.8623 21.5631 12.6641V19.9743H17.1271V13.4878C17.1271 12.7156 17.0261 11.9348 16.824 11.1454C16.622 10.3561 15.9515 9.96139 14.8127 9.96139C13.6738 9.96139 12.9483 10.3132 12.636 11.0167C12.3238 11.7203 12.1676 12.5096 12.1676 13.3848V19.9743H7.73165V6.64093H11.9748ZM0.512849 6.64093H4.94883V19.9743H0.512849V6.64093Z" fill="white"/>
</g>
<defs>
<clipPath id="clip0">
<rect width="21.4084" height="20" fill="white" transform="translate(0.154663)"/>
</clipPath>
</defs>
</svg>
