<svg width="456" height="21" viewBox="0 0 456 21" fill="none" xmlns="http://www.w3.org/2000/svg">
<path d="M0 0L456 0V14.7607L454.453 11.5073L452.669 11.1516L451.284 11.5073L449.762 10.8318L448.302 11.1516L445.406 11.2414L441.559 13.0048L439.651 13.4724L435.853 15.063L432.233 15.168L429.905 15.7228L426.726 13.8167L423.613 14.7759L420.972 14.1395L418.695 15.3365L417.38 14.0104L415.848 14.8262L412.217 14.1736L406.613 16.2545L403.822 15.3616L400.873 16.1456L399.131 14.8715L394.965 15.5346L392.899 14.7607L386.686 15.2726L383.495 14.4009L376.575 14.8956L372.043 12.1933L368.049 12.311L364.095 10.7787L357.961 12.7688L352.699 13.2761L347.864 15.5376L341.119 19.1727L332.599 20.1L320.446 14.8022L312.478 14.408L307.173 15.5376L295.662 11.5073L289.634 12.7688L281.895 11.5073L277.219 12.5208L270.364 9.64117L262.835 10.7787L256.84 8.24445L250.278 9.10913L237.483 11.5073L233.576 13.1461L223.319 14.408L216.65 13.2761L212.869 13.1461L206.593 11.5073L200.672 13.9147L195.684 11.5073L192.884 13.1461L189.808 12.7688L183.999 12.5781L176.87 10.7787L170.684 9.64117L166.46 9.46552L160.83 10.7787L157.508 13.1461L152.824 11.5073L148.967 13.9147L144.913 14.9075L140.56 13.1461L138.26 12.5208L135.703 13.1461L133.731 14.408L131.741 15.5376L130.119 14.9075L125.763 14.8192L122.894 16.2555L118.885 17.0897L114.367 17.6345L111.97 18.2074L108.664 18.1757L106.374 20.1H104.842H103.238L101.374 15.5376L99.1343 13.9147L97.169 12.5781L94.8657 12.5208L92.3897 13.1461L88.7152 12.5208L85.2365 11.5073L82.9491 10.7787L79.4799 9.46552L76.1887 9.10913L73.1812 9.10913L70.1923 9.01233L67.933 8.93915L65.7098 9.46552L63.7844 8.93915L61.6272 8.87L59.9509 8.24445L58.1363 9.46552L56.7987 8.87L55.3087 9.46552L53.2915 9.46552L51.6078 8.87L49.9908 9.46552L46.9278 8.87H43.9889H41.0636L39.1281 9.46552L37.9972 11.5073L35.4873 13.9147L32.3779 14.8192L30.683 15.5376H28.2571L25.8025 13.9147L24.5412 13.1461H22.2159L20.4261 13.9147L18.4946 13.1461L15.334 13.9147L13.3575 14.8192L10.6886 14.8192L8.04124 15.5376L6.55238 16.2555L4.01822 17.0897L0 14.7759L0 0Z" fill="#DE3831"/>
</svg>
