<svg width="743" height="33" viewBox="0 0 743 33" fill="none" xmlns="http://www.w3.org/2000/svg">
<path d="M0 0.158203L743 0.158203V24.2761L740.479 18.9601L737.573 18.3789L735.315 18.9601L732.836 17.8566L730.457 18.3789L725.738 18.5257L719.47 21.407L716.362 22.1709L710.173 24.77L704.274 24.9415L700.481 25.8481L695.301 22.7336L690.229 24.3008L685.925 23.2611L682.216 25.2169L680.074 23.0501L677.577 24.3831L671.661 23.3168L662.53 26.7167L657.982 25.2579L653.176 26.5388L650.339 24.4571L643.551 25.5405L640.185 24.2761L630.06 25.1124L624.861 23.6881L613.587 24.4964L606.201 20.0811L599.693 20.2734L593.251 17.7697L583.256 21.0214L574.682 21.8503L566.804 25.5454L555.815 31.4849L541.932 32.9999L522.131 24.3438L509.148 23.6997L500.504 25.5454L481.747 18.9601L471.925 21.0214L459.315 18.9601L451.697 20.6162L440.527 15.9111L428.26 17.7697L418.492 13.629L407.799 15.0418L386.951 18.9601L380.586 21.6379L363.872 23.6997L353.006 21.8503L346.846 21.6379L336.619 18.9601L326.971 22.8938L318.845 18.9601L314.283 21.6379L309.27 21.0214L299.805 20.7098L288.189 17.7697L278.109 15.9111L271.228 15.6241L262.054 17.7697L256.642 21.6379L249.009 18.9601L242.724 22.8938L236.118 24.5158L229.027 21.6379L225.278 20.6162L221.113 21.6379L217.9 23.6997L214.657 25.5454L212.015 24.5158L204.917 24.3716L200.241 26.7184L193.71 28.0814L186.347 28.9716L182.442 29.9076L177.056 29.8558L173.324 32.9999H170.828H168.214L165.178 25.5454L161.528 22.8938L158.326 20.7098L154.573 20.6162L150.538 21.6379L144.551 20.6162L138.883 18.9601L135.156 17.7697L129.503 15.6241L124.141 15.0418H119.24L114.37 14.8836L110.689 14.7641L107.067 15.6241L103.929 14.7641L100.414 14.6511L97.6832 13.629L94.7264 15.6241L92.547 14.6511L90.1193 15.6241H86.8324L84.089 14.6511L81.4542 15.6241L76.4635 14.6511H71.6749L66.9084 14.6511L63.7548 15.6241L61.9121 18.9601L57.8226 22.8938L52.7561 24.3716L49.9944 25.5454H46.0418L42.0422 22.8938L39.987 21.6379L36.1983 21.6379L33.2821 22.8938L30.1348 21.6379L24.9849 22.8938L21.7646 24.3716H17.4159L13.1023 25.5454L10.6764 26.7184L6.54724 28.0814L0 24.3008L0 0.158203Z" fill="#F5F5F5"/>
</svg>
