<svg width="155" height="155" viewBox="0 0 155 155" fill="none" xmlns="http://www.w3.org/2000/svg">
<rect width="155" height="155" fill="white"/>
<path d="M72.4661 126.922C102.689 126.922 127.189 102.422 127.189 72.1995C127.189 41.9768 102.689 17.4766 72.4661 17.4766C42.2434 17.4766 17.7432 41.9768 17.7432 72.1995C17.7432 102.422 42.2434 126.922 72.4661 126.922Z" fill="#E7F3F7"/>
<path d="M136.101 149.234C136.101 151.315 101.274 153 73.2956 153C45.3167 153 34.7788 151.322 34.7788 149.234C34.7788 147.145 45.3167 145.467 73.2956 145.467C101.274 145.467 136.101 147.152 136.101 149.234Z" fill="#CECECE"/>
<path d="M76.2886 109.33C76.3653 104.408 76.4252 93.3926 76.4252 93.3926C76.4252 93.3926 70.3878 101.084 70.6875 103.923C70.9872 106.762 68.5991 112.222 70.172 122.007C70.9584 126.898 72.1693 143.536 72.1693 143.536L75.7227 146.674L76.8328 142.032C76.8328 142.032 76.231 112.797 76.2886 109.33Z" fill="#EC8A85"/>
<path d="M52.064 104.247C52.5723 117.29 49.8126 117.352 52.1695 135.697L52.4764 142.492L56.2504 144.336C56.2504 144.336 56.7779 132.125 59.2499 104.239C59.9932 95.8546 51.4862 89.3712 52.064 104.247Z" fill="#EC8A85"/>
<path d="M56.6121 72.7559C52.8069 72.7559 50.5003 89.6309 51.071 104.286C51.2277 108.026 51.0906 111.773 50.661 115.493C50.1814 120.192 49.7499 124.633 51.1789 135.784C53.3454 136.308 55.6095 136.272 57.7582 135.679C58.4128 125.848 59.8154 107.355 62.6471 78.7166L56.6121 72.7559Z" fill="#1C1C1C"/>
<path d="M62.5925 81.4328C64.832 87.7124 69.5459 102.624 69.6993 104.026C69.7857 104.83 69.601 106 69.3661 107.479C68.8673 110.649 68.1097 115.442 69.191 122.165C69.6034 124.743 70.1501 130.696 70.5577 135.679C70.5577 135.679 72.6869 136.595 77.6981 135.679C77.5255 126.877 77.2425 111.752 77.2809 109.345C77.3576 104.475 77.4176 93.5197 77.4176 93.3998V93.208L77.348 93.0306C77.3217 92.9634 74.6962 86.2858 71.6055 79.6945C69.7809 75.803 68.1504 72.698 66.7597 70.4609L62.5925 81.4328Z" fill="#1C1C1C"/>
<path d="M60.5405 29.0598C57.481 29.2468 51.8584 31.8124 50.9185 35.0013C50.2855 39.3556 53.5559 49.5914 50.9185 63.8386C48.7989 83.8546 49.0698 106.173 49.0698 106.173C61.4468 109.947 78.3075 106.388 78.3075 106.388C78.3075 106.388 78.6791 85.5522 75.67 65.716C75.1617 62.3592 78.8254 48.1719 75.495 36.2889C74.603 33.4308 68.6088 29.5609 66.6354 29.1797C64.6088 29.0021 62.5725 28.9621 60.5405 29.0598Z" fill="white"/>
<path d="M67.2363 31.9826L69.9625 53.3294L60.5251 29.0742L67.2363 31.9826Z" fill="#757575"/>
<path d="M57.1351 38.4872L57.7873 38.4584C57.6098 34.4183 58.1349 29.491 61.5205 28.1914L61.7051 27.4434C58.437 28.3905 56.8593 32.198 57.1351 38.4872Z" fill="#1C1C1C"/>
<path d="M70.3515 41.8832L71.0013 41.9359C71.1134 40.1318 71.05 38.321 70.8119 36.5291C70.306 32.7575 69.0951 30.0889 67.2153 28.5879L67.1482 29.3839C71.0157 32.9853 70.3587 41.7921 70.3515 41.8832Z" fill="#1C1C1C"/>
<path d="M54.9724 52.7456L55.5071 52.3715C55.1091 51.8011 54.882 51.1291 54.8525 50.4342L54.5408 42.8406C54.4802 41.884 54.7587 40.9365 55.3273 40.1648C55.6007 39.8055 55.9515 39.5124 56.3538 39.3073C56.756 39.1023 57.1993 38.9905 57.6507 38.9803C59.5688 38.9012 60.9763 40.3135 61.0626 42.4138L61.3767 50.0098C61.4089 50.7831 61.1939 51.5465 60.7629 52.1893L61.3048 52.5514C61.8133 51.7936 62.0655 50.8927 62.0241 49.981L61.7076 42.3875C61.6045 39.901 59.9237 38.2322 57.6171 38.3281C57.0709 38.3443 56.5352 38.4818 56.0488 38.7306C55.5623 38.9794 55.1373 39.3334 54.8046 39.7668C54.142 40.6604 53.8152 41.7589 53.8815 42.8694L54.1956 50.4629C54.2305 51.2825 54.5002 52.0748 54.9724 52.7456Z" fill="#1C1C1C"/>
<path d="M69.155 43.0215C68.9152 43.959 69.155 44.8533 69.7185 45.0212C70.2819 45.189 70.9341 44.5656 71.1835 43.6305C71.4328 42.6954 71.1835 41.7987 70.62 41.6308C70.0566 41.463 69.4044 42.0864 69.155 43.0215Z" fill="#1C1C1C"/>
<path d="M60.1683 52.576C60.1412 52.743 60.1641 52.9144 60.2343 53.0684C60.3045 53.2225 60.4188 53.3522 60.5628 53.4413C60.7067 53.5303 60.8738 53.5747 61.043 53.5689C61.2121 53.563 61.3757 53.5071 61.5131 53.4082C61.6505 53.3094 61.7555 53.172 61.8149 53.0135C61.8742 52.8549 61.8852 52.6824 61.8465 52.5176C61.8078 52.3528 61.7211 52.2032 61.5974 52.0877C61.4736 51.9722 61.3184 51.896 61.1514 51.8686C61.0404 51.8505 60.9269 51.8544 60.8174 51.8801C60.7079 51.9058 60.6046 51.9529 60.5133 52.0186C60.422 52.0843 60.3445 52.1673 60.2853 52.263C60.2262 52.3586 60.1864 52.465 60.1683 52.576Z" fill="#1C1C1C"/>
<path d="M54.6633 52.8522C54.636 53.0189 54.6588 53.1899 54.7288 53.3436C54.7988 53.4974 54.9128 53.6269 55.0564 53.7158C55.2001 53.8047 55.3668 53.8489 55.5356 53.843C55.7044 53.8371 55.8677 53.7812 56.0047 53.6825C56.1417 53.5837 56.2464 53.4466 56.3054 53.2883C56.3645 53.13 56.3752 52.9578 56.3363 52.7935C56.2975 52.6291 56.2107 52.48 56.087 52.3649C55.9633 52.2499 55.8083 52.1741 55.6416 52.1473C55.4185 52.1119 55.1905 52.1662 55.0072 52.2982C54.824 52.4303 54.7004 52.6294 54.6633 52.8522Z" fill="#1C1C1C"/>
<path d="M67.3497 26.2324L67.237 31.9869C63.9522 32.9124 60.5234 29.0785 60.5234 29.0785L63.3479 22.1875L67.3497 26.2324Z" fill="#EC8A85"/>
<path d="M75.0695 35.375L77.7861 41.8176L73.3215 43.1148L75.0695 35.375Z" fill="white"/>
<path d="M52.8671 32.3203C48.0981 35.1232 39.5479 48.1092 37.4163 54.6406C35.2847 61.1719 34.6997 75.5006 34.6997 75.5006L40.8762 77.0568C40.8762 77.0568 42.3796 61.9512 43.9932 59.7093C45.2712 57.9326 50.467 51.2238 52.6034 48.4761C53.1764 47.7424 53.2484 35.7778 52.8671 32.3203Z" fill="white"/>
<path d="M97.3309 34.6133C96.3015 35.2784 95.1847 35.7972 94.0125 36.155C93.2465 36.3881 92.4581 36.54 91.6604 36.6082C90.9544 36.6706 90.2438 36.6569 89.5408 36.5674L89.6559 36.5818L91.8474 36.8647C92.5505 36.9531 93.261 36.9667 93.9669 36.9055C94.7648 36.8365 95.5532 36.6838 96.3191 36.4499C97.4918 36.0925 98.6093 35.5745 99.6399 34.9106L97.3309 34.6133Z" fill="#3D8ECB"/>
<path d="M85.8861 38.4492C87.0969 40.8014 89.5522 42.1321 92.4079 41.8899C93.0087 41.8381 93.6025 41.724 94.1798 41.5495C95.0612 41.2792 95.9011 40.8887 96.6758 40.389L98.3062 57.4798C99.3157 68.0777 90.0198 75.2852 89.4659 75.7024C88.8808 75.6473 78.7217 74.3022 77.7171 63.6779L76.0867 46.587C76.3571 46.5925 76.6276 46.5837 76.8971 46.5607C77.4948 46.5086 78.0854 46.3945 78.6594 46.2202C82.2392 45.1436 85.0709 41.9547 85.8861 38.4492Z" fill="#E0463F"/>
<path d="M101.802 57.6218C103.15 71.7419 90.7322 81.3304 90.0536 81.8387L89.4686 75.6982C90.0224 75.2785 99.3184 68.071 98.3089 57.4756L96.6785 40.3847C95.9038 40.8844 95.0639 41.2749 94.1825 41.5452C93.6052 41.7198 93.0114 41.8339 92.4106 41.8857C89.5549 42.1254 87.0996 40.7971 85.9176 38.4473L85.3325 32.3164C86.9006 35.4478 90.1687 37.2221 93.9643 36.9008C94.7621 36.8318 95.5505 36.6791 96.3164 36.4453C97.4891 36.0879 98.6066 35.5698 99.6372 34.9059L101.802 57.6218Z" fill="#EA7E79"/>
<path d="M85.3179 32.2539L85.9245 38.452C85.0805 41.9526 82.2488 45.144 78.6618 46.223C78.0878 46.3973 77.4972 46.5114 76.8995 46.5634C76.63 46.5865 76.3595 46.5953 76.0891 46.5898L77.7195 63.6807C78.7314 74.3049 88.8904 75.65 89.4467 75.7172L90.0629 81.8601C89.9454 81.8457 89.7177 81.8169 89.37 81.7546C86.8332 81.2942 78.0336 79.0596 75.2115 69.8236L75.1276 69.5383C74.9933 69.0587 74.907 68.7135 74.8303 68.3586L72.2695 43.1539C72.4206 43.1539 72.574 43.1539 72.7299 43.1539C72.9697 43.1539 73.1471 43.1347 73.3221 43.1203C73.9698 43.0662 74.6115 42.9563 75.2403 42.7918C75.4033 42.7487 75.5448 42.7103 75.6863 42.6672C76.7326 42.3491 77.7354 41.9021 78.6714 41.3364C82.2632 38.9627 84.5338 35.721 85.3179 32.2539Z" fill="#DE3831"/>
<path d="M85.2889 32.2422L82.9823 31.9473V32.036C82.9151 32.3237 82.8352 32.609 82.7425 32.892C82.7425 32.892 82.7425 32.9111 82.7425 32.9183C82.7233 32.9855 82.7017 33.0502 82.6802 33.1173C81.6875 36.1409 79.544 38.9294 76.3574 41.0298C75.4219 41.5965 74.419 42.0435 73.3723 42.3605C73.2308 42.4037 73.0893 42.4444 72.9263 42.4876C72.297 42.6497 71.6555 42.7596 71.0081 42.8161C70.8331 42.8305 70.658 42.8401 70.4159 42.8472C70.26 42.8472 70.1066 42.8472 69.9531 42.8472L72.2621 43.1422C72.4132 43.1422 72.5666 43.1422 72.7225 43.1422C72.9622 43.1422 73.1397 43.123 73.3147 43.1086C73.9624 43.0545 74.6041 42.9446 75.2329 42.7801C75.3959 42.737 75.5374 42.6986 75.6788 42.6554C76.7252 42.3374 77.728 41.8903 78.664 41.3247C80.5706 40.0952 82.2031 38.4855 83.4594 36.5964L83.5385 36.4741L83.7064 36.2032L83.7783 36.0809L83.8718 35.9227C83.8934 35.8819 83.9174 35.8435 83.939 35.8052L84.0277 35.6397C84.0492 35.6038 84.0684 35.5654 84.09 35.527L84.1787 35.3568L84.2315 35.2513C84.2626 35.1914 84.2914 35.1314 84.3202 35.0715L84.3657 34.9804L84.4569 34.7862L84.476 34.7382C84.5887 34.4984 84.6918 34.2419 84.7877 33.9901V33.9685C84.8165 33.8918 84.8453 33.8151 84.8717 33.7288L84.8908 33.676L84.9556 33.489C84.963 33.4702 84.9695 33.451 84.9748 33.4314C84.9748 33.4314 84.9748 33.4075 84.9868 33.3955C85.0083 33.3307 85.0275 33.2684 85.0467 33.2061C85.0473 33.1973 85.0473 33.1885 85.0467 33.1797C85.0456 33.1733 85.0456 33.1669 85.0467 33.1605C85.0467 33.1605 85.0467 33.1341 85.0587 33.1221C85.1402 32.8512 85.2145 32.5755 85.2793 32.2997L85.2937 32.2398H85.2673L85.2889 32.2422Z" fill="#EA7E79"/>
<path d="M88.0034 81.4721C86.7949 81.1248 85.6083 80.7053 84.45 80.2157C83.8668 79.9588 83.3006 79.6649 82.7549 79.3357C81.782 78.7335 80.8525 78.0637 79.9735 77.3312C79.2822 76.6943 78.6341 76.0118 78.0338 75.2884C77.5539 74.6819 77.1195 74.0408 76.7342 73.3702L76.5328 73.0154H76.5472C76.4609 72.8571 76.3746 72.6965 76.293 72.5358C76.2643 72.4807 76.2355 72.4255 76.2091 72.368C76.1612 72.2721 76.1156 72.1738 76.07 72.0778C75.9022 71.699 75.7224 71.2794 75.5737 70.9078C75.521 70.7639 75.4658 70.6176 75.4155 70.4714L75.3388 70.2484C75.2884 70.0997 75.2428 69.9487 75.2021 69.8192C75.2021 69.8192 75.1206 69.5459 75.1182 69.5459C75.1038 69.4955 75.0918 69.4428 75.0774 69.3924C74.9839 69.0567 74.8976 68.7115 74.8208 68.3566L72.2697 43.1543L69.9607 42.8594L72.5143 68.0689C72.5478 68.2223 72.5838 68.3758 72.6245 68.5484L72.6533 68.6611L72.7468 69.0136C72.7468 69.0447 72.7636 69.0759 72.7708 69.1047C72.7852 69.1526 72.7972 69.2006 72.8116 69.2509C72.826 69.3013 72.8403 69.3445 72.8955 69.5363C72.941 69.6801 72.9866 69.824 73.0345 69.9655C73.0585 70.0398 73.0825 70.1141 73.1089 70.1861L73.1377 70.2628C73.1377 70.2796 73.1496 70.2963 73.1544 70.3131C73.1592 70.3299 73.1425 70.282 73.1377 70.2652L73.1592 70.3299L73.1712 70.3635C73.1928 70.4258 73.2168 70.4858 73.2384 70.5457L73.2743 70.6416C73.2743 70.6632 73.2911 70.6824 73.2983 70.704L73.3175 70.7519C73.3343 70.7975 73.3511 70.8406 73.3702 70.8838L73.399 70.9605C73.4182 71.0109 73.4374 71.0612 73.4589 71.1092V71.1308C73.5093 71.2506 73.5596 71.3705 73.6124 71.4856L73.6484 71.5695L73.7131 71.7062L73.821 71.934C73.8426 71.9771 73.8618 72.0227 73.8833 72.0659C73.9049 72.109 73.9385 72.1786 73.9673 72.2337L74.0392 72.3728C74.08 72.4495 74.1183 72.5238 74.1591 72.5958C74.1998 72.6677 74.1998 72.6773 74.2214 72.7156C77.8396 79.2926 84.8193 81.0453 87.0324 81.4457C87.3081 81.496 87.5119 81.5248 87.6366 81.5416L89.7778 81.8149C89.1807 81.7318 88.5885 81.6173 88.0034 81.4721ZM73.3007 70.7016C73.3052 70.7163 73.3109 70.7308 73.3175 70.7447L73.3007 70.7016Z" fill="#E0463F"/>
<path d="M102.468 47.5442C102.889 48.4942 103.019 49.5476 102.841 50.5712C102.663 51.5948 102.185 52.5427 101.469 53.2949C100.752 54.0472 99.8284 54.57 98.8146 54.7974C97.8008 55.0248 96.7424 54.9464 95.7731 54.5723C94.8039 54.1981 93.9673 53.5449 93.3693 52.6954C92.7712 51.8458 92.4385 50.838 92.4132 49.7993C92.3879 48.7606 92.6711 47.7378 93.2271 46.8601C93.7831 45.9824 94.5868 45.2893 95.5367 44.8684C96.1675 44.5889 96.8473 44.4363 97.537 44.4195C98.2268 44.4027 98.9132 44.522 99.5569 44.7705C100.201 45.0189 100.789 45.3918 101.289 45.8677C101.788 46.3437 102.189 46.9133 102.468 47.5442Z" fill="#DEDEDE"/>
<path d="M93.9281 51.29C94.0076 51.4695 94.0321 51.6686 93.9984 51.862C93.9648 52.0555 93.8745 52.2346 93.7391 52.3767C93.6036 52.5188 93.429 52.6176 93.2374 52.6605C93.0458 52.7034 92.8458 52.6886 92.6627 52.6178C92.4795 52.547 92.3215 52.4235 92.2085 52.2629C92.0956 52.1023 92.0328 51.9118 92.0281 51.7155C92.0234 51.5192 92.0771 51.326 92.1823 51.1601C92.2874 50.9943 92.4394 50.8635 92.619 50.784C92.8597 50.6776 93.1328 50.6711 93.3783 50.766C93.6238 50.8608 93.8216 51.0493 93.9281 51.29Z" fill="#ADADAD"/>
<path d="M96.9542 49.9471C97.0334 50.1266 97.0577 50.3255 97.024 50.5188C96.9902 50.7121 96.9 50.8911 96.7646 51.0331C96.6292 51.1751 96.4547 51.2738 96.2633 51.3167C96.0718 51.3596 95.8719 51.3449 95.6889 51.2743C95.5058 51.2036 95.3478 51.0804 95.2347 50.92C95.1217 50.7596 95.0587 50.5693 95.0538 50.3732C95.0488 50.177 95.1021 49.9838 95.2069 49.8179C95.3117 49.652 95.4633 49.5209 95.6426 49.4412C95.7619 49.3881 95.8905 49.3591 96.0211 49.3558C96.1516 49.3525 96.2815 49.375 96.4034 49.422C96.5252 49.469 96.6366 49.5396 96.7311 49.6297C96.8256 49.7198 96.9014 49.8276 96.9542 49.9471Z" fill="#ADADAD"/>
<path d="M99.9867 48.6044C100.066 48.7839 100.091 48.983 100.057 49.1765C100.023 49.3699 99.9331 49.549 99.7977 49.6912C99.6622 49.8333 99.4876 49.9321 99.296 49.975C99.1044 50.0179 98.9044 50.003 98.7213 49.9322C98.5381 49.8615 98.3801 49.738 98.2671 49.5774C98.1542 49.4168 98.0914 49.2263 98.0867 49.03C98.082 48.8337 98.1357 48.6404 98.2408 48.4746C98.346 48.3088 98.498 48.1779 98.6776 48.0985C98.9183 47.992 99.1914 47.9855 99.4369 48.0804C99.6824 48.1753 99.8802 48.3638 99.9867 48.6044Z" fill="#ADADAD"/>
<path d="M103.017 47.2626C103.097 47.4421 103.121 47.6412 103.088 47.8347C103.054 48.0281 102.964 48.2072 102.828 48.3494C102.693 48.4915 102.518 48.5903 102.327 48.6332C102.135 48.6761 101.935 48.6612 101.752 48.5904C101.569 48.5197 101.411 48.3962 101.298 48.2356C101.185 48.075 101.122 47.8845 101.117 47.6882C101.113 47.4919 101.166 47.2986 101.272 47.1328C101.377 46.967 101.529 46.8361 101.708 46.7567C101.949 46.6502 102.222 46.6437 102.468 46.7386C102.713 46.8335 102.911 47.022 103.017 47.2626Z" fill="#ADADAD"/>
<path d="M93.4175 48.302C93.4853 48.4547 93.5063 48.6239 93.4779 48.7885C93.4495 48.9531 93.3729 49.1055 93.2578 49.2265C93.1427 49.3475 92.9943 49.4316 92.8313 49.4682C92.6684 49.5048 92.4983 49.4923 92.3425 49.4322C92.1867 49.3721 92.0522 49.2671 91.9561 49.1306C91.86 48.994 91.8065 48.832 91.8025 48.6651C91.7985 48.4981 91.8441 48.3337 91.9335 48.1927C92.023 48.0517 92.1522 47.9404 92.305 47.8729C92.5094 47.7825 92.7414 47.7769 92.95 47.8573C93.1586 47.9378 93.3267 48.0977 93.4175 48.302Z" fill="#ADADAD"/>
<path d="M95.9944 47.1622C96.0622 47.3148 96.0832 47.4841 96.0548 47.6486C96.0264 47.8132 95.9498 47.9656 95.8347 48.0866C95.7196 48.2076 95.5712 48.2917 95.4082 48.3284C95.2453 48.365 95.0752 48.3525 94.9194 48.2923C94.7636 48.2322 94.6291 48.1273 94.533 47.9907C94.4369 47.8542 94.3834 47.6922 94.3794 47.5252C94.3754 47.3583 94.421 47.1939 94.5104 47.0529C94.5999 46.9118 94.7291 46.8005 94.8819 46.733C94.9831 46.6879 95.0922 46.6632 95.2029 46.6604C95.3137 46.6576 95.4239 46.6767 95.5273 46.7166C95.6306 46.7564 95.7251 46.8163 95.8053 46.8928C95.8854 46.9693 95.9497 47.0608 95.9944 47.1622Z" fill="#ADADAD"/>
<path d="M98.5672 46.0306C98.635 46.1832 98.656 46.3525 98.6276 46.517C98.5991 46.6816 98.5225 46.834 98.4074 46.955C98.2923 47.076 98.1439 47.1601 97.981 47.1967C97.8181 47.2334 97.6479 47.2208 97.4921 47.1607C97.3363 47.1006 97.2018 46.9956 97.1057 46.8591C97.0096 46.7225 96.9562 46.5605 96.9521 46.3936C96.9481 46.2266 96.9937 46.0622 97.0832 45.9212C97.1726 45.7802 97.3019 45.6689 97.4546 45.6014C97.6591 45.511 97.8911 45.5054 98.0997 45.5859C98.3082 45.6663 98.4764 45.8263 98.5672 46.0306Z" fill="#ADADAD"/>
<path d="M101.143 44.8822C101.21 45.0349 101.231 45.2042 101.202 45.3686C101.173 45.5331 101.096 45.6853 100.981 45.806C100.865 45.9267 100.717 46.0104 100.554 46.0467C100.391 46.083 100.221 46.0701 100.065 46.0098C99.9095 45.9494 99.7752 45.8442 99.6794 45.7075C99.5835 45.5708 99.5303 45.4088 99.5266 45.2419C99.5228 45.075 99.5686 44.9107 99.6582 44.7699C99.7479 44.629 99.8772 44.5179 100.03 44.4506C100.235 44.3603 100.467 44.3551 100.676 44.436C100.884 44.517 101.052 44.6774 101.143 44.8822Z" fill="#ADADAD"/>
<path d="M95.1844 44.9475C95.233 45.0577 95.2478 45.1799 95.2269 45.2985C95.206 45.4171 95.1505 45.5269 95.0672 45.6139C94.984 45.701 94.8768 45.7614 94.7593 45.7875C94.6417 45.8136 94.519 45.8043 94.4068 45.7608C94.2945 45.7172 94.1976 45.6413 94.1285 45.5427C94.0593 45.4441 94.021 45.3272 94.0182 45.2068C94.0155 45.0864 94.0485 44.9679 94.1131 44.8663C94.1777 44.7646 94.271 44.6844 94.3812 44.6358C94.4544 44.6035 94.5333 44.586 94.6133 44.5841C94.6932 44.5823 94.7728 44.5963 94.8474 44.6252C94.922 44.6542 94.9902 44.6975 95.048 44.7528C95.1058 44.8081 95.1522 44.8743 95.1844 44.9475Z" fill="#ADADAD"/>
<path d="M97.0395 44.1135C97.0885 44.2236 97.1037 44.3457 97.0832 44.4644C97.0627 44.5832 97.0075 44.6932 96.9245 44.7805C96.8415 44.8678 96.7345 44.9286 96.6169 44.9551C96.4994 44.9816 96.3766 44.9726 96.2642 44.9293C96.1518 44.886 96.0547 44.8103 95.9853 44.7119C95.9159 44.6134 95.8772 44.4965 95.8742 44.3761C95.8712 44.2556 95.904 44.137 95.9685 44.0352C96.0329 43.9334 96.1261 43.853 96.2363 43.8042C96.3838 43.7388 96.5513 43.7346 96.7019 43.7926C96.8525 43.8506 96.9739 43.966 97.0395 44.1135Z" fill="#ADADAD"/>
<path d="M99.4692 54.6201C99.5182 54.7302 99.5334 54.8523 99.5129 54.9711C99.4924 55.0898 99.4372 55.1998 99.3542 55.2871C99.2712 55.3745 99.1641 55.4352 99.0466 55.4617C98.9291 55.4882 98.8063 55.4792 98.6939 55.4359C98.5814 55.3926 98.4844 55.317 98.415 55.2185C98.3455 55.12 98.3069 55.0032 98.3039 54.8827C98.3009 54.7623 98.3337 54.6436 98.3982 54.5418C98.4626 54.44 98.5558 54.3596 98.666 54.3108C98.739 54.2781 98.8177 54.2602 98.8977 54.258C98.9777 54.2559 99.0573 54.2696 99.1319 54.2983C99.2066 54.3271 99.2748 54.3703 99.3327 54.4255C99.3906 54.4808 99.437 54.5469 99.4692 54.6201Z" fill="#ADADAD"/>
<path d="M101.325 53.7982C101.374 53.9083 101.39 54.0305 101.369 54.1494C101.349 54.2683 101.294 54.3785 101.211 54.4659C101.127 54.5534 101.02 54.6142 100.903 54.6407C100.785 54.6672 100.662 54.6581 100.55 54.6146C100.437 54.5712 100.34 54.4953 100.271 54.3966C100.201 54.2979 100.163 54.1808 100.16 54.0602C100.157 53.9396 100.191 53.821 100.255 53.7192C100.32 53.6175 100.414 53.5373 100.524 53.4888C100.671 53.4242 100.838 53.4205 100.988 53.4784C101.138 53.5363 101.259 53.6513 101.325 53.7982Z" fill="#ADADAD"/>
<path d="M95.7954 53.672C95.8633 53.8246 95.8843 53.9939 95.8558 54.1584C95.8274 54.323 95.7508 54.4754 95.6357 54.5964C95.5206 54.7174 95.3722 54.8015 95.2093 54.8381C95.0463 54.8748 94.8762 54.8622 94.7204 54.8021C94.5646 54.742 94.4301 54.637 94.334 54.5005C94.2379 54.3639 94.1844 54.2019 94.1804 54.035C94.1764 53.868 94.222 53.7036 94.3114 53.5626C94.4009 53.4216 94.5302 53.3103 94.6829 53.2428C94.7841 53.1977 94.8932 53.173 95.004 53.1702C95.1147 53.1674 95.2249 53.1864 95.3283 53.2263C95.4317 53.2662 95.5261 53.3261 95.6063 53.4026C95.6865 53.479 95.7507 53.5706 95.7954 53.672Z" fill="#ADADAD"/>
<path d="M98.3709 52.5313C98.4387 52.6839 98.4597 52.8532 98.4313 53.0178C98.4028 53.1823 98.3262 53.3348 98.2111 53.4557C98.096 53.5767 97.9476 53.6609 97.7847 53.6975C97.6218 53.7341 97.4516 53.7216 97.2958 53.6615C97.14 53.6014 97.0056 53.4964 96.9094 53.3598C96.8133 53.2233 96.7599 53.0613 96.7559 52.8943C96.7518 52.7274 96.7974 52.563 96.8869 52.422C96.9763 52.281 97.1056 52.1697 97.2583 52.1021C97.3595 52.057 97.4686 52.0324 97.5794 52.0296C97.6902 52.0267 97.8004 52.0458 97.9037 52.0857C98.0071 52.1256 98.1016 52.1855 98.1817 52.2619C98.2619 52.3384 98.3262 52.4299 98.3709 52.5313Z" fill="#ADADAD"/>
<path d="M100.946 51.3919C101.014 51.5447 101.034 51.714 101.005 51.8784C100.977 52.0428 100.9 52.195 100.784 52.3157C100.669 52.4364 100.52 52.5202 100.357 52.5565C100.195 52.5928 100.024 52.5799 99.8688 52.5195C99.7132 52.4591 99.5789 52.354 99.4831 52.2173C99.3872 52.0806 99.3341 51.9186 99.3303 51.7517C99.3265 51.5848 99.3724 51.4205 99.462 51.2797C99.5516 51.1388 99.6809 51.0277 99.8337 50.9604C100.038 50.8701 100.271 50.8649 100.479 50.9458C100.688 51.0267 100.856 51.1872 100.946 51.3919Z" fill="#ADADAD"/>
<path d="M103.521 50.2502C103.589 50.4028 103.609 50.5719 103.581 50.7363C103.552 50.9007 103.476 51.053 103.361 51.1739C103.246 51.2947 103.097 51.3788 102.935 51.4154C102.772 51.4521 102.602 51.4396 102.446 51.3797C102.29 51.3197 102.156 51.215 102.06 51.0787C101.963 50.9423 101.91 50.7805 101.906 50.6137C101.901 50.4469 101.947 50.2826 102.036 50.1415C102.125 50.0004 102.254 49.8889 102.406 49.821C102.507 49.7759 102.617 49.7512 102.728 49.7483C102.839 49.7455 102.949 49.7645 103.052 49.8044C103.156 49.8443 103.251 49.9042 103.331 49.9806C103.411 50.0571 103.476 50.1487 103.521 50.2502Z" fill="#ADADAD"/>
<path d="M119.442 40.1253C119.732 41.2795 119.672 42.4935 119.271 43.6139C118.87 44.7342 118.146 45.7106 117.191 46.4194C116.235 47.1283 115.091 47.5378 113.902 47.5962C112.714 47.6546 111.535 47.3593 110.514 46.7475C109.493 46.1358 108.677 45.2351 108.169 44.1594C107.66 43.0837 107.482 41.8814 107.656 40.7044C107.831 39.5274 108.351 38.4286 109.15 37.5471C109.949 36.6655 110.992 36.0408 112.146 35.7518C113.694 35.3651 115.331 35.6085 116.699 36.4286C118.067 37.2486 119.054 38.5782 119.442 40.1253Z" fill="#DEDEDE"/>
<path d="M109.074 42.6737C109.128 42.8918 109.117 43.1211 109.041 43.3327C108.965 43.5442 108.828 43.7285 108.647 43.8623C108.467 43.9961 108.251 44.0733 108.026 44.0842C107.802 44.0951 107.579 44.0392 107.386 43.9236C107.194 43.8079 107.039 43.6378 106.943 43.4346C106.847 43.2313 106.814 43.0042 106.847 42.7819C106.88 42.5596 106.978 42.3521 107.129 42.1856C107.28 42.0191 107.477 41.9011 107.695 41.8465C107.84 41.8103 107.99 41.8029 108.138 41.8248C108.286 41.8468 108.428 41.8976 108.556 41.9745C108.684 42.0513 108.795 42.1526 108.884 42.2726C108.973 42.3925 109.037 42.5289 109.074 42.6737Z" fill="#ADADAD"/>
<path d="M112.755 41.7577C112.809 41.9758 112.798 42.2051 112.722 42.4166C112.646 42.6282 112.509 42.8125 112.329 42.9463C112.148 43.08 111.932 43.1573 111.708 43.1682C111.483 43.1791 111.26 43.1232 111.068 43.0076C110.875 42.8919 110.721 42.7217 110.625 42.5185C110.529 42.3153 110.495 42.0882 110.528 41.8659C110.561 41.6436 110.659 41.4361 110.81 41.2696C110.961 41.1031 111.158 40.9851 111.376 40.9305C111.521 40.8942 111.672 40.8869 111.819 40.9088C111.967 40.9308 112.109 40.9816 112.237 41.0584C112.365 41.1353 112.477 41.2366 112.566 41.3565C112.655 41.4765 112.719 41.6129 112.755 41.7577Z" fill="#ADADAD"/>
<path d="M116.436 40.8378C116.49 41.0559 116.479 41.2852 116.403 41.4967C116.327 41.7083 116.19 41.8926 116.01 42.0264C115.829 42.1601 115.613 42.2373 115.388 42.2482C115.164 42.2592 114.941 42.2033 114.748 42.0876C114.556 41.972 114.401 41.8018 114.305 41.5986C114.209 41.3954 114.176 41.1683 114.209 40.946C114.242 40.7237 114.34 40.5162 114.491 40.3497C114.642 40.1832 114.839 40.0652 115.057 40.0106C115.202 39.9743 115.352 39.967 115.5 39.9889C115.648 40.0109 115.79 40.0617 115.918 40.1385C116.046 40.2153 116.157 40.3166 116.246 40.4366C116.335 40.5566 116.4 40.6929 116.436 40.8378Z" fill="#ADADAD"/>
<path d="M120.116 39.9137C120.171 40.1317 120.16 40.3611 120.084 40.5729C120.009 40.7846 119.872 40.9692 119.692 41.1034C119.511 41.2375 119.295 41.3151 119.071 41.3263C118.846 41.3375 118.623 41.2819 118.43 41.1665C118.237 41.0511 118.083 40.881 117.987 40.6779C117.89 40.4747 117.857 40.2475 117.889 40.0251C117.922 39.8027 118.02 39.595 118.171 39.4284C118.322 39.2617 118.519 39.1436 118.737 39.0889C119.029 39.0155 119.339 39.0612 119.597 39.2159C119.856 39.3706 120.042 39.6215 120.116 39.9137Z" fill="#ADADAD"/>
<path d="M109.084 39.2117C109.128 39.3954 109.117 39.5882 109.053 39.7658C108.988 39.9435 108.872 40.098 108.72 40.2101C108.568 40.3221 108.386 40.3867 108.197 40.3956C108.008 40.4045 107.821 40.3575 107.659 40.2603C107.496 40.1631 107.367 40.0202 107.285 39.8495C107.204 39.6787 107.175 39.4878 107.202 39.3007C107.229 39.1136 107.311 38.9386 107.437 38.7978C107.563 38.6569 107.728 38.5565 107.911 38.5091C108.034 38.4772 108.162 38.4702 108.288 38.4883C108.414 38.5065 108.535 38.5495 108.644 38.6149C108.754 38.6803 108.849 38.7667 108.924 38.8692C108.999 38.9716 109.054 39.088 109.084 39.2117Z" fill="#ADADAD"/>
<path d="M112.211 38.4279C112.255 38.6117 112.245 38.8046 112.18 38.9824C112.115 39.1602 111.999 39.3148 111.847 39.4269C111.695 39.5391 111.512 39.6036 111.324 39.6124C111.135 39.6213 110.947 39.574 110.785 39.4767C110.623 39.3793 110.493 39.2361 110.412 39.0652C110.331 38.8942 110.302 38.7031 110.33 38.5159C110.357 38.3287 110.439 38.1538 110.566 38.0131C110.692 37.8724 110.857 37.7723 111.041 37.7253C111.164 37.6938 111.292 37.687 111.417 37.7054C111.543 37.7237 111.664 37.7668 111.772 37.8321C111.881 37.8975 111.976 37.9838 112.051 38.0861C112.126 38.1883 112.181 38.3045 112.211 38.4279Z" fill="#ADADAD"/>
<path d="M115.337 37.6388C115.382 37.8226 115.371 38.0156 115.306 38.1933C115.241 38.3711 115.126 38.5258 114.973 38.6379C114.821 38.75 114.639 38.8145 114.45 38.8234C114.261 38.8322 114.073 38.785 113.911 38.6876C113.749 38.5902 113.619 38.447 113.538 38.2761C113.457 38.1051 113.429 37.914 113.456 37.7268C113.483 37.5396 113.565 37.3647 113.692 37.224C113.818 37.0834 113.984 36.9833 114.167 36.9363C114.29 36.9048 114.418 36.898 114.543 36.9163C114.669 36.9346 114.79 36.9777 114.899 37.0431C115.007 37.1084 115.102 37.1947 115.177 37.297C115.253 37.3993 115.307 37.5154 115.337 37.6388Z" fill="#ADADAD"/>
<path d="M118.466 36.862C118.51 37.0458 118.5 37.2386 118.435 37.4162C118.37 37.5939 118.255 37.7484 118.102 37.8605C117.95 37.9725 117.768 38.0371 117.579 38.046C117.39 38.0549 117.203 38.0079 117.041 37.9107C116.879 37.8135 116.749 37.6706 116.668 37.4999C116.586 37.3291 116.558 37.1382 116.585 36.9511C116.612 36.764 116.693 36.589 116.819 36.4482C116.945 36.3073 117.11 36.2069 117.293 36.1595C117.417 36.1276 117.545 36.1206 117.671 36.1387C117.797 36.1569 117.918 36.1999 118.027 36.2653C118.136 36.3307 118.231 36.4171 118.306 36.5195C118.382 36.622 118.436 36.7384 118.466 36.862Z" fill="#ADADAD"/>
<path d="M111.731 35.7708C111.764 35.9048 111.757 36.0457 111.711 36.1756C111.664 36.3056 111.58 36.4188 111.469 36.5009C111.358 36.583 111.225 36.6303 111.087 36.6369C110.949 36.6434 110.812 36.6089 110.694 36.5376C110.576 36.4664 110.481 36.3616 110.422 36.2367C110.364 36.1117 110.343 35.9721 110.364 35.8356C110.385 35.699 110.445 35.5717 110.538 35.4697C110.632 35.3677 110.753 35.2956 110.887 35.2625C111.066 35.2183 111.256 35.2469 111.414 35.3422C111.572 35.4375 111.686 35.5916 111.731 35.7708Z" fill="#ADADAD"/>
<path d="M113.978 35.206C114.012 35.34 114.005 35.481 113.959 35.6111C113.912 35.7413 113.829 35.8548 113.718 35.9373C113.607 36.0197 113.474 36.0674 113.336 36.0743C113.198 36.0812 113.061 36.0469 112.943 35.9759C112.824 35.9048 112.729 35.8002 112.67 35.6753C112.611 35.5503 112.591 35.4107 112.611 35.2741C112.632 35.1374 112.692 35.0099 112.785 34.9078C112.878 34.8056 113 34.7333 113.134 34.7001C113.313 34.6558 113.502 34.6842 113.66 34.779C113.818 34.8738 113.932 35.0273 113.978 35.206Z" fill="#ADADAD"/>
<path d="M114.673 47.5228C114.707 47.6567 114.7 47.7976 114.653 47.9276C114.606 48.0576 114.522 48.1708 114.411 48.2529C114.3 48.335 114.167 48.3823 114.029 48.3888C113.891 48.3954 113.755 48.3608 113.636 48.2896C113.518 48.2183 113.424 48.1136 113.365 47.9886C113.306 47.8636 113.286 47.724 113.306 47.5875C113.327 47.451 113.388 47.3236 113.481 47.2216C113.574 47.1196 113.695 47.0475 113.829 47.0144C114.009 46.9702 114.198 46.9989 114.356 47.0942C114.515 47.1895 114.628 47.3436 114.673 47.5228Z" fill="#ADADAD"/>
<path d="M116.929 46.956C116.963 47.09 116.956 47.231 116.91 47.3611C116.864 47.4913 116.78 47.6048 116.669 47.6873C116.558 47.7697 116.425 47.8174 116.287 47.8243C116.149 47.8312 116.012 47.7969 115.894 47.7259C115.775 47.6548 115.681 47.5502 115.622 47.4253C115.563 47.3003 115.542 47.1607 115.563 47.0241C115.583 46.8874 115.644 46.7599 115.737 46.6578C115.83 46.5556 115.951 46.4833 116.085 46.4501C116.264 46.4058 116.453 46.4342 116.611 46.529C116.77 46.6238 116.884 46.7773 116.929 46.956Z" fill="#ADADAD"/>
<path d="M110.716 45.7326C110.761 45.9164 110.75 46.1093 110.686 46.2871C110.621 46.4649 110.505 46.6195 110.353 46.7316C110.2 46.8437 110.018 46.9083 109.829 46.9171C109.64 46.926 109.453 46.8787 109.291 46.7813C109.129 46.684 108.999 46.5408 108.918 46.3698C108.837 46.1989 108.808 46.0078 108.835 45.8206C108.863 45.6334 108.945 45.4585 109.071 45.3178C109.198 45.1771 109.363 45.077 109.546 45.03C109.669 44.9985 109.797 44.9917 109.923 45.0101C110.049 45.0284 110.169 45.0715 110.278 45.1368C110.387 45.2022 110.482 45.2885 110.557 45.3908C110.632 45.493 110.686 45.6092 110.716 45.7326Z" fill="#ADADAD"/>
<path d="M113.843 44.9491C113.888 45.1328 113.878 45.3259 113.814 45.5039C113.749 45.6818 113.634 45.8368 113.482 45.9493C113.329 46.0617 113.147 46.1266 112.958 46.1358C112.769 46.145 112.582 46.098 112.419 46.0008C112.257 45.9037 112.127 45.7606 112.046 45.5897C111.964 45.4188 111.935 45.2276 111.963 45.0403C111.99 44.853 112.072 44.678 112.198 44.5371C112.324 44.3963 112.49 44.296 112.673 44.2489C112.796 44.2174 112.924 44.2105 113.049 44.2287C113.175 44.2468 113.295 44.2897 113.404 44.3548C113.513 44.4199 113.608 44.506 113.683 44.608C113.759 44.71 113.813 44.8259 113.843 44.9491Z" fill="#ADADAD"/>
<path d="M116.973 44.1687C117.017 44.3524 117.006 44.5452 116.942 44.7229C116.877 44.9005 116.761 45.0551 116.609 45.1671C116.457 45.2792 116.275 45.3437 116.086 45.3526C115.897 45.3616 115.71 45.3145 115.548 45.2173C115.386 45.1202 115.256 44.9772 115.174 44.8065C115.093 44.6358 115.064 44.4448 115.091 44.2577C115.118 44.0706 115.2 43.8956 115.326 43.7548C115.452 43.614 115.617 43.5135 115.8 43.4662C115.923 43.4343 116.052 43.4272 116.178 43.4454C116.303 43.4635 116.424 43.5065 116.534 43.5719C116.643 43.6373 116.738 43.7237 116.813 43.8262C116.888 43.9286 116.943 44.0451 116.973 44.1687Z" fill="#ADADAD"/>
<path d="M120.099 43.3933C120.143 43.577 120.133 43.7698 120.068 43.9475C120.003 44.1251 119.888 44.2797 119.735 44.3917C119.583 44.5038 119.401 44.5683 119.212 44.5773C119.023 44.5862 118.836 44.5391 118.674 44.4419C118.512 44.3448 118.382 44.2018 118.301 44.0311C118.22 43.8604 118.191 43.6695 118.218 43.4823C118.245 43.2952 118.326 43.1202 118.452 42.9794C118.579 42.8386 118.743 42.7382 118.926 42.6908C119.05 42.6589 119.178 42.6518 119.304 42.67C119.43 42.6881 119.551 42.7312 119.66 42.7965C119.769 42.8619 119.864 42.9483 119.939 43.0508C120.015 43.1533 120.069 43.2697 120.099 43.3933Z" fill="#ADADAD"/>
<path d="M114.955 57.0362C114.649 57.839 114.111 58.533 113.411 59.0303C112.71 59.5276 111.877 59.806 111.019 59.8302C110.16 59.8543 109.313 59.6233 108.585 59.1662C107.857 58.7091 107.282 58.0466 106.931 57.2623C106.58 56.478 106.469 55.6072 106.613 54.7601C106.757 53.9129 107.148 53.1274 107.739 52.5029C108.329 51.8784 109.091 51.443 109.929 51.2517C110.766 51.0603 111.642 51.1217 112.445 51.428C112.978 51.6314 113.466 51.9378 113.88 52.3297C114.295 52.7216 114.629 53.1914 114.862 53.7122C115.095 54.2329 115.223 54.7945 115.239 55.3649C115.255 55.9352 115.159 56.5032 114.955 57.0362Z" fill="#DEDEDE"/>
<path d="M107.762 54.26C107.705 54.4114 107.604 54.5424 107.472 54.6363C107.34 54.7303 107.183 54.7831 107.021 54.7881C106.859 54.7931 106.7 54.75 106.562 54.6643C106.425 54.5786 106.316 54.4541 106.249 54.3065C106.182 54.1589 106.161 53.9949 106.187 53.8351C106.213 53.6753 106.286 53.5268 106.397 53.4085C106.508 53.2902 106.651 53.2073 106.808 53.1702C106.966 53.1331 107.131 53.1436 107.283 53.2003C107.384 53.2381 107.477 53.2956 107.556 53.3694C107.635 53.4432 107.699 53.5319 107.743 53.6304C107.788 53.7289 107.812 53.8352 107.816 53.9433C107.819 54.0513 107.801 54.159 107.762 54.26Z" fill="#ADADAD"/>
<path d="M110.324 55.2386C110.266 55.3899 110.165 55.5209 110.033 55.6149C109.901 55.7088 109.744 55.7616 109.582 55.7666C109.421 55.7716 109.261 55.7285 109.123 55.6428C108.986 55.5571 108.877 55.4326 108.81 55.285C108.743 55.1375 108.722 54.9734 108.748 54.8136C108.775 54.6538 108.848 54.5054 108.958 54.387C109.069 54.2687 109.212 54.1858 109.37 54.1487C109.527 54.1116 109.692 54.1221 109.844 54.1788C110.048 54.2562 110.213 54.4112 110.303 54.6097C110.392 54.8083 110.4 55.0344 110.324 55.2386Z" fill="#ADADAD"/>
<path d="M112.882 56.2151C112.825 56.3665 112.724 56.4974 112.592 56.5914C112.46 56.6854 112.303 56.7382 112.141 56.7432C111.979 56.7481 111.819 56.705 111.682 56.6193C111.545 56.5336 111.436 56.4092 111.369 56.2616C111.302 56.114 111.28 55.95 111.307 55.7902C111.333 55.6304 111.406 55.4819 111.517 55.3636C111.627 55.2453 111.771 55.1623 111.928 55.1253C112.086 55.0882 112.251 55.0987 112.403 55.1553C112.504 55.1932 112.597 55.2506 112.676 55.3245C112.755 55.3983 112.818 55.487 112.863 55.5855C112.908 55.684 112.932 55.7903 112.936 55.8984C112.939 56.0064 112.921 56.1141 112.882 56.2151Z" fill="#ADADAD"/>
<path d="M115.443 57.1897C115.385 57.3411 115.284 57.4721 115.152 57.566C115.02 57.66 114.863 57.7128 114.701 57.7178C114.539 57.7227 114.38 57.6797 114.242 57.594C114.105 57.5082 113.996 57.3838 113.929 57.2362C113.862 57.0886 113.841 56.9246 113.867 56.7648C113.893 56.605 113.967 56.4565 114.077 56.3382C114.188 56.2199 114.331 56.1369 114.489 56.0999C114.646 56.0628 114.811 56.0733 114.963 56.1299C115.064 56.1678 115.157 56.2252 115.236 56.2991C115.315 56.3729 115.379 56.4616 115.423 56.5601C115.468 56.6586 115.493 56.7649 115.496 56.873C115.499 56.981 115.481 57.0887 115.443 57.1897Z" fill="#ADADAD"/>
<path d="M109.201 52.2113C109.151 52.3396 109.064 52.4502 108.951 52.5291C108.838 52.6081 108.705 52.6519 108.567 52.655C108.429 52.6582 108.294 52.6206 108.178 52.5469C108.061 52.4732 107.969 52.3667 107.913 52.2409C107.857 52.1151 107.84 51.9755 107.863 51.8398C107.887 51.7041 107.949 51.5782 108.044 51.4782C108.139 51.3781 108.261 51.3083 108.395 51.2775C108.529 51.2466 108.669 51.2562 108.798 51.305C108.884 51.3377 108.963 51.3871 109.03 51.4505C109.097 51.5138 109.151 51.5898 109.189 51.6741C109.226 51.7584 109.246 51.8493 109.249 51.9415C109.251 52.0337 109.234 52.1254 109.201 52.2113Z" fill="#ADADAD"/>
<path d="M111.379 53.0423C111.329 53.1711 111.243 53.2825 111.131 53.3623C111.018 53.4422 110.885 53.4869 110.747 53.4909C110.609 53.4949 110.473 53.4579 110.356 53.3847C110.239 53.3115 110.147 53.2053 110.09 53.0795C110.034 52.9537 110.016 52.814 110.039 52.678C110.061 52.542 110.124 52.4158 110.219 52.3154C110.313 52.2149 110.435 52.1447 110.57 52.1137C110.704 52.0826 110.844 52.092 110.973 52.1408C111.147 52.2068 111.286 52.3388 111.362 52.5078C111.438 52.6768 111.444 52.869 111.379 53.0423Z" fill="#ADADAD"/>
<path d="M113.553 53.8712C113.504 54 113.418 54.1113 113.305 54.191C113.192 54.2707 113.059 54.3153 112.921 54.319C112.783 54.3228 112.647 54.2856 112.53 54.2121C112.413 54.1386 112.321 54.0321 112.265 53.9062C112.209 53.7802 112.191 53.6404 112.214 53.5044C112.237 53.3684 112.3 53.2423 112.395 53.1421C112.49 53.0419 112.612 52.972 112.747 52.9413C112.881 52.9106 113.022 52.9205 113.151 52.9697C113.323 53.0362 113.462 53.1684 113.538 53.3373C113.613 53.5063 113.619 53.6982 113.553 53.8712Z" fill="#ADADAD"/>
<path d="M115.727 54.7013C115.678 54.8301 115.592 54.9414 115.479 55.0211C115.366 55.1008 115.233 55.1454 115.095 55.1491C114.957 55.1529 114.821 55.1156 114.704 55.0422C114.588 54.9687 114.495 54.8622 114.439 54.7363C114.383 54.6103 114.365 54.4705 114.388 54.3345C114.411 54.1985 114.474 54.0724 114.569 53.9722C114.664 53.872 114.786 53.8021 114.921 53.7714C115.055 53.7407 115.196 53.7506 115.325 53.7997C115.41 53.8324 115.489 53.8817 115.555 53.9447C115.622 54.0077 115.676 54.0833 115.713 54.167C115.75 54.2507 115.771 54.341 115.773 54.4327C115.776 54.5244 115.76 54.6156 115.727 54.7013Z" fill="#ADADAD"/>
<path d="M112.191 51.267C112.156 51.3603 112.094 51.4411 112.013 51.4991C111.932 51.5571 111.835 51.5897 111.736 51.5927C111.636 51.5958 111.538 51.5691 111.453 51.5162C111.369 51.4633 111.302 51.3864 111.261 51.2954C111.22 51.2043 111.207 51.1033 111.224 51.0049C111.241 50.9066 111.286 50.8155 111.355 50.7431C111.423 50.6707 111.512 50.6203 111.609 50.5983C111.707 50.5763 111.808 50.5837 111.901 50.6196C111.963 50.643 112.019 50.6783 112.067 50.7236C112.115 50.7688 112.154 50.823 112.181 50.8831C112.208 50.9433 112.222 51.0081 112.224 51.074C112.226 51.1399 112.215 51.2054 112.191 51.267Z" fill="#ADADAD"/>
<path d="M113.762 51.8667C113.727 51.9598 113.664 52.0402 113.583 52.0979C113.502 52.1555 113.405 52.1877 113.306 52.1904C113.206 52.1932 113.108 52.1663 113.024 52.1133C112.939 52.0602 112.873 51.9834 112.832 51.8924C112.791 51.8014 112.779 51.7005 112.796 51.6023C112.812 51.5041 112.858 51.4131 112.926 51.3408C112.995 51.2685 113.083 51.2181 113.18 51.1961C113.278 51.174 113.379 51.1813 113.472 51.217C113.534 51.2404 113.591 51.2758 113.639 51.3212C113.687 51.3665 113.726 51.421 113.753 51.4814C113.78 51.5418 113.794 51.607 113.796 51.6731C113.798 51.7392 113.786 51.8051 113.762 51.8667Z" fill="#ADADAD"/>
<path d="M109.074 59.4429C109.039 59.536 108.977 59.6164 108.895 59.674C108.814 59.7316 108.718 59.7639 108.618 59.7666C108.518 59.7694 108.42 59.7425 108.336 59.6894C108.252 59.6364 108.185 59.5595 108.144 59.4686C108.104 59.3776 108.091 59.2766 108.108 59.1785C108.125 59.0803 108.17 58.9893 108.239 58.9169C108.307 58.8446 108.396 58.7943 108.493 58.7722C108.59 58.7502 108.691 58.7575 108.784 58.7931C108.909 58.8409 109.009 58.9362 109.064 59.058C109.118 59.1798 109.122 59.3183 109.074 59.4429Z" fill="#ADADAD"/>
<path d="M110.645 60.0398C110.609 60.1328 110.547 60.2133 110.466 60.2711C110.385 60.3288 110.289 60.3613 110.189 60.3642C110.089 60.3672 109.991 60.3406 109.907 60.2878C109.823 60.235 109.756 60.1584 109.715 60.0676C109.674 59.9769 109.661 59.876 109.677 59.7778C109.694 59.6796 109.739 59.5885 109.807 59.516C109.875 59.4435 109.964 59.3928 110.061 59.3704C110.158 59.3479 110.259 59.3548 110.352 59.39C110.414 59.4134 110.471 59.4488 110.519 59.4942C110.567 59.5395 110.606 59.5939 110.633 59.6542C110.66 59.7146 110.675 59.7797 110.677 59.8459C110.679 59.912 110.668 59.9779 110.645 60.0398Z" fill="#ADADAD"/>
<path d="M107.47 56.7482C107.421 56.877 107.335 56.9883 107.222 57.068C107.109 57.1477 106.976 57.1922 106.838 57.196C106.7 57.1997 106.564 57.1625 106.447 57.089C106.33 57.0156 106.238 56.9091 106.182 56.7831C106.126 56.6572 106.108 56.5174 106.131 56.3814C106.154 56.2454 106.217 56.1193 106.312 56.0191C106.407 55.9188 106.529 55.849 106.664 55.8183C106.798 55.7876 106.939 55.7974 107.068 55.8466C107.153 55.8793 107.232 55.9286 107.298 55.9916C107.365 56.0546 107.418 56.1301 107.456 56.2139C107.493 56.2976 107.514 56.3879 107.516 56.4796C107.519 56.5712 107.503 56.6625 107.47 56.7482Z" fill="#ADADAD"/>
<path d="M109.647 57.5782C109.598 57.7071 109.511 57.8184 109.399 57.8981C109.286 57.9778 109.152 58.0223 109.015 58.0261C108.877 58.0298 108.741 57.9926 108.624 57.9191C108.507 57.8456 108.415 57.7392 108.359 57.6132C108.302 57.4873 108.285 57.3475 108.308 57.2115C108.331 57.0755 108.394 56.9494 108.489 56.8491C108.583 56.7489 108.706 56.679 108.84 56.6484C108.975 56.6177 109.115 56.6275 109.244 56.6767C109.417 56.7432 109.556 56.8754 109.632 57.0444C109.707 57.2133 109.713 57.4052 109.647 57.5782Z" fill="#ADADAD"/>
<path d="M111.819 58.4083C111.77 58.5371 111.684 58.6484 111.571 58.7282C111.458 58.8079 111.325 58.8524 111.187 58.8562C111.049 58.8599 110.913 58.8227 110.796 58.7492C110.68 58.6757 110.587 58.5693 110.531 58.4433C110.475 58.3174 110.457 58.1775 110.48 58.0415C110.503 57.9055 110.566 57.7795 110.661 57.6792C110.756 57.579 110.878 57.5091 111.013 57.4784C111.147 57.4477 111.288 57.4576 111.417 57.5068C111.502 57.5395 111.581 57.5887 111.647 57.6518C111.714 57.7148 111.768 57.7903 111.805 57.874C111.842 57.9578 111.863 58.0481 111.865 58.1397C111.868 58.2314 111.852 58.3227 111.819 58.4083Z" fill="#ADADAD"/>
<path d="M113.997 59.2384C113.948 59.3672 113.861 59.4785 113.749 59.5582C113.636 59.6379 113.502 59.6825 113.364 59.6862C113.226 59.69 113.091 59.6527 112.974 59.5793C112.857 59.5058 112.765 59.3993 112.708 59.2734C112.652 59.1474 112.634 59.0076 112.658 58.8716C112.681 58.7356 112.744 58.6095 112.839 58.5093C112.933 58.4091 113.056 58.3392 113.19 58.3085C113.325 58.2778 113.465 58.2877 113.594 58.3369C113.68 58.3696 113.758 58.4188 113.825 58.4818C113.892 58.5449 113.945 58.6204 113.982 58.7041C114.02 58.7878 114.04 58.8781 114.043 58.9698C114.045 59.0615 114.03 59.1528 113.997 59.2384Z" fill="#ADADAD"/>
<path d="M141.45 58.9974C141.375 59.4888 141.156 59.9469 140.821 60.3138C140.486 60.6806 140.049 60.9398 139.566 61.0584C139.083 61.1771 138.576 61.1499 138.109 60.9803C137.642 60.8108 137.235 60.5064 136.941 60.1058C136.647 59.7052 136.478 59.2263 136.456 58.7297C136.434 58.2331 136.56 57.7411 136.817 57.316C137.075 56.8909 137.453 56.5518 137.903 56.3414C138.354 56.1311 138.856 56.0591 139.348 56.1346C139.674 56.1843 139.987 56.2978 140.269 56.4687C140.551 56.6395 140.797 56.8643 140.992 57.1302C141.188 57.396 141.329 57.6978 141.407 58.0182C141.486 58.3386 141.501 58.6713 141.45 58.9974Z" fill="#DEDEDE"/>
<path d="M137.046 58.3054C137.046 58.3744 137.031 58.4425 137.002 58.5051C136.973 58.5677 136.931 58.6234 136.879 58.6682C136.826 58.713 136.765 58.746 136.698 58.7649C136.632 58.7838 136.562 58.7882 136.494 58.7778C136.426 58.7673 136.361 58.7422 136.303 58.7043C136.246 58.6664 136.197 58.6165 136.16 58.558C136.124 58.4995 136.1 58.4338 136.091 58.3654C136.083 58.2969 136.089 58.2274 136.109 58.1615C136.143 58.0518 136.215 57.958 136.313 57.8971C136.41 57.8363 136.526 57.8123 136.64 57.8298C136.753 57.8472 136.857 57.9048 136.931 57.9921C137.006 58.0794 137.047 58.1905 137.046 58.3054Z" fill="#ADADAD"/>
<path d="M138.612 58.5441C138.598 58.6386 138.557 58.727 138.494 58.798C138.43 58.8689 138.346 58.9193 138.254 58.9426C138.161 58.9659 138.064 58.9611 137.974 58.9288C137.885 58.8964 137.806 58.8381 137.75 58.7612C137.694 58.6842 137.661 58.5922 137.658 58.4969C137.654 58.4016 137.678 58.3073 137.728 58.2261C137.778 58.1449 137.852 58.0804 137.938 58.041C138.025 58.0015 138.122 57.9889 138.216 58.0046C138.339 58.0253 138.45 58.0932 138.523 58.194C138.597 58.2948 138.629 58.4204 138.612 58.5441Z" fill="#ADADAD"/>
<path d="M140.177 58.7858C140.143 58.8955 140.071 58.9893 139.973 59.0502C139.876 59.1111 139.76 59.135 139.646 59.1176C139.533 59.1002 139.429 59.0426 139.355 58.9553C139.28 58.868 139.239 58.7568 139.24 58.642C139.24 58.573 139.255 58.5049 139.284 58.4423C139.313 58.3796 139.355 58.324 139.407 58.2792C139.46 58.2343 139.521 58.2013 139.588 58.1824C139.654 58.1635 139.724 58.1591 139.792 58.1696C139.86 58.1801 139.925 58.2051 139.983 58.2431C140.04 58.281 140.089 58.3309 140.126 58.3894C140.162 58.4479 140.186 58.5136 140.195 58.582C140.203 58.6504 140.197 58.72 140.177 58.7858Z" fill="#ADADAD"/>
<path d="M141.745 59.0266C141.732 59.1208 141.69 59.2088 141.626 59.2795C141.563 59.3501 141.479 59.4002 141.387 59.4233C141.295 59.4464 141.197 59.4415 141.108 59.4092C141.018 59.3769 140.94 59.3187 140.884 59.2419C140.828 59.1652 140.795 59.0735 140.791 58.9784C140.787 58.8832 140.812 58.7891 140.861 58.7079C140.911 58.6267 140.984 58.5621 141.07 58.5223C141.157 58.4826 141.253 58.4695 141.347 58.4847C141.471 58.5048 141.583 58.5728 141.657 58.6742C141.731 58.7755 141.763 58.9021 141.745 59.0266Z" fill="#ADADAD"/>
<path d="M137.61 56.9727C137.598 57.0513 137.562 57.1245 137.509 57.1831C137.455 57.2417 137.385 57.2831 137.307 57.302C137.23 57.3208 137.149 57.3164 137.074 57.2892C136.999 57.262 136.934 57.2132 136.887 57.1491C136.84 57.0849 136.813 57.0083 136.809 56.9288C136.806 56.8493 136.826 56.7705 136.867 56.7024C136.908 56.6343 136.969 56.5798 137.041 56.546C137.113 56.5122 137.193 56.5005 137.272 56.5123C137.324 56.5202 137.375 56.5384 137.42 56.5658C137.466 56.5933 137.505 56.6294 137.537 56.6722C137.568 56.715 137.591 56.7635 137.603 56.8151C137.616 56.8667 137.618 56.9202 137.61 56.9727Z" fill="#ADADAD"/>
<path d="M138.94 57.1758C138.928 57.2544 138.892 57.3277 138.839 57.3863C138.785 57.4449 138.715 57.4862 138.637 57.5051C138.56 57.524 138.479 57.5195 138.404 57.4923C138.329 57.4651 138.264 57.4163 138.217 57.3522C138.17 57.288 138.143 57.2114 138.14 57.1319C138.136 57.0524 138.156 56.9736 138.197 56.9055C138.238 56.8374 138.299 56.783 138.371 56.7491C138.443 56.7153 138.523 56.7036 138.602 56.7154C138.654 56.7233 138.705 56.7415 138.75 56.769C138.796 56.7964 138.835 56.8325 138.867 56.8753C138.898 56.9181 138.921 56.9667 138.933 57.0182C138.946 57.0698 138.948 57.1233 138.94 57.1758Z" fill="#ADADAD"/>
<path d="M140.271 57.3793C140.258 57.458 140.223 57.5312 140.169 57.5898C140.115 57.6484 140.045 57.6897 139.967 57.7084C139.89 57.7271 139.809 57.7225 139.734 57.695C139.659 57.6676 139.594 57.6186 139.547 57.5542C139.5 57.4898 139.474 57.413 139.47 57.3334C139.467 57.2538 139.487 57.175 139.529 57.107C139.57 57.039 139.631 56.9849 139.703 56.9514C139.776 56.9179 139.856 56.9066 139.935 56.9189C139.987 56.9271 140.037 56.9455 140.083 56.973C140.128 57.0006 140.167 57.0368 140.198 57.0795C140.229 57.1223 140.252 57.1708 140.264 57.2222C140.277 57.2736 140.279 57.327 140.271 57.3793Z" fill="#ADADAD"/>
<path d="M141.602 57.5824C141.589 57.6611 141.554 57.7344 141.5 57.793C141.446 57.8515 141.376 57.8928 141.299 57.9115C141.221 57.9303 141.14 57.9256 141.065 57.8982C140.99 57.8707 140.925 57.8217 140.878 57.7573C140.831 57.693 140.805 57.6161 140.801 57.5365C140.798 57.4569 140.819 57.3781 140.86 57.3101C140.902 57.2421 140.962 57.188 141.035 57.1545C141.107 57.121 141.187 57.1097 141.266 57.122C141.319 57.1299 141.369 57.1481 141.414 57.1756C141.459 57.2031 141.499 57.2393 141.53 57.2821C141.561 57.3249 141.584 57.3735 141.596 57.4251C141.608 57.4766 141.61 57.5301 141.602 57.5824Z" fill="#ADADAD"/>
<path d="M139.185 56.0753C139.179 56.1129 139.166 56.1489 139.146 56.1813C139.126 56.2137 139.1 56.2418 139.07 56.2641C139.039 56.2864 139.004 56.3024 138.967 56.3111C138.93 56.3199 138.892 56.3212 138.854 56.3151C138.797 56.3063 138.744 56.2807 138.702 56.2418C138.66 56.2029 138.63 56.1522 138.617 56.0964C138.603 56.0405 138.607 55.9818 138.627 55.9279C138.647 55.874 138.682 55.8272 138.729 55.7935C138.775 55.7597 138.831 55.7406 138.888 55.7385C138.945 55.7364 139.002 55.7513 139.051 55.7815C139.1 55.8117 139.139 55.8558 139.163 55.9081C139.187 55.9604 139.194 56.0186 139.185 56.0753Z" fill="#ADADAD"/>
<path d="M140.146 56.2214C140.137 56.2782 140.112 56.3311 140.073 56.3734C140.034 56.4157 139.983 56.4454 139.927 56.4589C139.871 56.4724 139.813 56.4689 139.759 56.449C139.705 56.4291 139.658 56.3936 139.624 56.3471C139.591 56.3005 139.571 56.245 139.569 56.1876C139.567 56.1301 139.582 56.0734 139.612 56.0244C139.643 55.9755 139.687 55.9367 139.739 55.9129C139.791 55.889 139.849 55.8812 139.906 55.8905C139.981 55.9035 140.049 55.9453 140.093 56.0072C140.138 56.069 140.157 56.1459 140.146 56.2214Z" fill="#ADADAD"/>
<path d="M138.421 61.0749C138.412 61.1317 138.386 61.1846 138.347 61.2269C138.308 61.2692 138.258 61.299 138.202 61.3124C138.146 61.3259 138.087 61.3224 138.033 61.3025C137.979 61.2826 137.933 61.2471 137.899 61.2006C137.865 61.154 137.846 61.0985 137.844 61.0411C137.842 60.9837 137.857 60.9269 137.887 60.878C137.917 60.8291 137.961 60.7902 138.014 60.7664C138.066 60.7425 138.124 60.7348 138.181 60.7441C138.256 60.7564 138.324 60.7981 138.369 60.8601C138.414 60.9221 138.432 60.9993 138.421 61.0749Z" fill="#ADADAD"/>
<path d="M139.378 61.223C139.365 61.2983 139.324 61.3654 139.262 61.4102C139.2 61.455 139.123 61.4739 139.048 61.4628C138.99 61.4543 138.936 61.4289 138.893 61.3897C138.85 61.3506 138.82 61.2995 138.806 61.243C138.792 61.1866 138.795 61.1272 138.816 61.0726C138.836 61.018 138.871 60.9706 138.918 60.9365C138.966 60.9024 139.022 60.8831 139.08 60.881C139.138 60.879 139.195 60.8943 139.245 60.9251C139.294 60.9558 139.333 61.0006 139.357 61.0537C139.381 61.1067 139.388 61.1657 139.378 61.223Z" fill="#ADADAD"/>
<path d="M137.185 59.748C137.173 59.8267 137.138 59.8999 137.084 59.9585C137.03 60.0171 136.96 60.0585 136.883 60.0773C136.806 60.0962 136.724 60.0918 136.65 60.0646C136.575 60.0373 136.51 59.9886 136.463 59.9244C136.416 59.8603 136.389 59.7837 136.385 59.7042C136.381 59.6247 136.401 59.5459 136.443 59.4778C136.484 59.4096 136.544 59.3552 136.616 59.3214C136.688 59.2876 136.769 59.2758 136.847 59.2877C136.9 59.2956 136.95 59.3138 136.996 59.3412C137.041 59.3687 137.081 59.4048 137.112 59.4476C137.143 59.4904 137.166 59.5389 137.179 59.5905C137.191 59.6421 137.194 59.6956 137.185 59.748Z" fill="#ADADAD"/>
<path d="M138.516 59.9512C138.504 60.0298 138.469 60.103 138.415 60.1616C138.361 60.2202 138.291 60.2616 138.214 60.2805C138.137 60.2993 138.055 60.2949 137.981 60.2677C137.906 60.2405 137.841 60.1917 137.794 60.1276C137.747 60.0634 137.72 59.9868 137.716 59.9073C137.712 59.8278 137.732 59.749 137.774 59.6809C137.815 59.6128 137.875 59.5584 137.947 59.5245C138.019 59.4907 138.1 59.479 138.178 59.4908C138.231 59.4984 138.282 59.5164 138.327 59.5438C138.373 59.5711 138.412 59.6073 138.444 59.6501C138.475 59.693 138.498 59.7417 138.51 59.7933C138.523 59.845 138.525 59.8987 138.516 59.9512Z" fill="#ADADAD"/>
<path d="M139.846 60.1564C139.83 60.2623 139.772 60.3574 139.686 60.4208C139.6 60.4842 139.492 60.5107 139.386 60.4945C139.28 60.4783 139.185 60.4207 139.121 60.3343C139.058 60.248 139.031 60.14 139.048 60.0341C139.056 59.9817 139.074 59.9314 139.101 59.886C139.129 59.8407 139.165 59.8012 139.208 59.7698C139.251 59.7384 139.299 59.7157 139.351 59.7031C139.402 59.6904 139.456 59.688 139.508 59.6961C139.56 59.7041 139.611 59.7224 139.656 59.7498C139.701 59.7773 139.741 59.8135 139.772 59.8562C139.804 59.899 139.826 59.9475 139.839 59.999C139.852 60.0505 139.854 60.104 139.846 60.1564Z" fill="#ADADAD"/>
<path d="M141.177 60.3594C141.165 60.438 141.13 60.5112 141.076 60.5699C141.022 60.6285 140.952 60.6698 140.875 60.6887C140.797 60.7075 140.716 60.7031 140.642 60.6759C140.567 60.6487 140.502 60.5999 140.455 60.5358C140.408 60.4716 140.38 60.395 140.377 60.3155C140.373 60.236 140.393 60.1572 140.434 60.0891C140.476 60.021 140.536 59.9666 140.608 59.9327C140.68 59.8989 140.761 59.8872 140.839 59.899C140.892 59.9069 140.942 59.9251 140.988 59.9525C141.033 59.98 141.073 60.0161 141.104 60.0589C141.135 60.1017 141.158 60.1503 141.171 60.2018C141.183 60.2534 141.185 60.3069 141.177 60.3594Z" fill="#ADADAD"/>
<path d="M129.282 51.3324C129.354 51.9532 129.241 52.5816 128.957 53.1381C128.672 53.6947 128.229 54.1543 127.683 54.4589C127.138 54.7636 126.514 54.8995 125.891 54.8496C125.268 54.7996 124.673 54.5661 124.183 54.1784C123.693 53.7907 123.328 53.2664 123.136 52.6716C122.944 52.0769 122.932 51.4385 123.103 50.8372C123.273 50.2359 123.618 49.6986 124.094 49.2934C124.57 48.8882 125.156 48.6332 125.776 48.5607C126.189 48.5122 126.606 48.5455 127.006 48.6586C127.405 48.7717 127.778 48.9624 128.104 49.2198C128.429 49.4773 128.701 49.7964 128.903 50.1588C129.105 50.5213 129.234 50.9201 129.282 51.3324Z" fill="#DEDEDE"/>
<path d="M123.71 51.9629C123.723 52.0801 123.701 52.1986 123.647 52.3035C123.593 52.4084 123.51 52.495 123.407 52.5523C123.304 52.6097 123.186 52.6352 123.068 52.6257C122.951 52.6162 122.839 52.5721 122.746 52.499C122.654 52.4258 122.585 52.3269 122.548 52.2147C122.512 52.1025 122.51 51.9821 122.542 51.8686C122.574 51.755 122.639 51.6536 122.728 51.5769C122.818 51.5003 122.928 51.4519 123.045 51.4378C123.123 51.4285 123.203 51.4347 123.278 51.456C123.354 51.4774 123.425 51.5135 123.487 51.5623C123.548 51.6111 123.6 51.6716 123.638 51.7404C123.676 51.8091 123.701 51.8848 123.71 51.9629Z" fill="#ADADAD"/>
<path d="M125.688 51.7301C125.702 51.8474 125.68 51.9662 125.627 52.0715C125.573 52.1767 125.489 52.2637 125.386 52.3214C125.283 52.3791 125.165 52.4049 125.048 52.3956C124.93 52.3862 124.817 52.3422 124.725 52.2689C124.632 52.1957 124.563 52.0966 124.527 51.9842C124.49 51.8718 124.488 51.7511 124.52 51.6375C124.553 51.5238 124.618 51.4223 124.708 51.3457C124.798 51.2692 124.909 51.221 125.026 51.2074C125.104 51.198 125.183 51.2041 125.258 51.2254C125.334 51.2466 125.404 51.2826 125.466 51.3311C125.527 51.3797 125.578 51.44 125.616 51.5084C125.655 51.5769 125.679 51.6522 125.688 51.7301Z" fill="#ADADAD"/>
<path d="M127.668 51.4998C127.682 51.617 127.66 51.7357 127.606 51.8407C127.552 51.9457 127.468 52.0323 127.365 52.0896C127.262 52.147 127.144 52.1724 127.026 52.1628C126.909 52.1531 126.796 52.1088 126.704 52.0354C126.611 51.962 126.543 51.8629 126.507 51.7505C126.471 51.6381 126.469 51.5175 126.501 51.404C126.533 51.2905 126.599 51.1891 126.689 51.1127C126.779 51.0363 126.889 50.9882 127.006 50.9747C127.084 50.9656 127.163 50.9721 127.239 50.9936C127.314 51.0151 127.385 51.0513 127.446 51.1C127.508 51.1488 127.559 51.2092 127.597 51.2778C127.635 51.3464 127.659 51.4218 127.668 51.4998Z" fill="#ADADAD"/>
<path d="M129.649 51.2667C129.663 51.384 129.642 51.5028 129.588 51.6081C129.534 51.7133 129.451 51.8003 129.348 51.858C129.244 51.9157 129.127 51.9415 129.009 51.9322C128.891 51.9228 128.779 51.8788 128.686 51.8055C128.593 51.7323 128.524 51.6332 128.488 51.5208C128.452 51.4084 128.449 51.2877 128.482 51.1741C128.514 51.0604 128.579 50.9589 128.669 50.8823C128.759 50.8057 128.87 50.7576 128.987 50.744C129.144 50.7264 129.302 50.7714 129.425 50.8693C129.549 50.9671 129.63 51.1099 129.649 51.2667Z" fill="#ADADAD"/>
<path d="M123.949 50.156C123.961 50.2559 123.944 50.3571 123.898 50.4469C123.853 50.5367 123.782 50.611 123.694 50.6603C123.606 50.7097 123.506 50.7319 123.405 50.7241C123.305 50.7163 123.209 50.679 123.13 50.6167C123.051 50.5544 122.992 50.4701 122.961 50.3744C122.93 50.2787 122.928 50.1759 122.955 50.0791C122.983 49.9822 123.038 49.8957 123.115 49.8304C123.192 49.7651 123.286 49.7241 123.386 49.7124C123.519 49.6968 123.653 49.7348 123.759 49.8179C123.865 49.901 123.933 50.0226 123.949 50.156Z" fill="#ADADAD"/>
<path d="M125.631 49.9593C125.643 50.0585 125.624 50.159 125.579 50.2481C125.534 50.3371 125.463 50.4106 125.375 50.4594C125.288 50.5082 125.188 50.5301 125.089 50.5223C124.989 50.5144 124.894 50.4773 124.816 50.4154C124.737 50.3536 124.679 50.2699 124.648 50.1749C124.617 50.0798 124.614 49.9777 124.641 49.8815C124.668 49.7852 124.723 49.6991 124.799 49.634C124.875 49.5689 124.968 49.5277 125.068 49.5157C125.134 49.5073 125.201 49.5122 125.265 49.5301C125.33 49.5479 125.39 49.5783 125.442 49.6196C125.494 49.6609 125.538 49.7122 125.571 49.7705C125.603 49.8288 125.624 49.893 125.631 49.9593Z" fill="#ADADAD"/>
<path d="M127.314 49.7614C127.326 49.8614 127.308 49.9626 127.263 50.0524C127.217 50.1422 127.146 50.2165 127.058 50.2658C126.971 50.3151 126.87 50.3373 126.77 50.3296C126.67 50.3218 126.574 50.2844 126.495 50.2222C126.416 50.1599 126.357 50.0756 126.326 49.9799C126.295 49.8842 126.293 49.7814 126.32 49.6845C126.347 49.5877 126.403 49.5011 126.479 49.4359C126.556 49.3706 126.65 49.3295 126.75 49.3179C126.884 49.3023 127.018 49.3402 127.124 49.4234C127.229 49.5065 127.297 49.628 127.314 49.7614Z" fill="#ADADAD"/>
<path d="M128.994 49.5668C129.005 49.6662 128.987 49.7666 128.941 49.8554C128.895 49.9443 128.824 50.0176 128.736 50.066C128.649 50.1144 128.549 50.1358 128.449 50.1275C128.35 50.1193 128.255 50.0816 128.176 50.0194C128.098 49.9572 128.04 49.8732 128.01 49.778C127.979 49.6828 127.977 49.5807 128.005 49.4845C128.032 49.3884 128.088 49.3025 128.164 49.2378C128.24 49.1731 128.334 49.1324 128.433 49.1208C128.499 49.1128 128.566 49.118 128.63 49.1362C128.695 49.1543 128.754 49.1851 128.807 49.2265C128.859 49.268 128.902 49.3195 128.934 49.3779C128.967 49.4363 128.987 49.5005 128.994 49.5668Z" fill="#ADADAD"/>
<path d="M125.561 48.5407C125.57 48.6127 125.556 48.6856 125.524 48.7503C125.491 48.8149 125.439 48.8683 125.376 48.9037C125.313 48.9392 125.24 48.9551 125.168 48.9494C125.096 48.9437 125.027 48.9167 124.97 48.8718C124.913 48.8268 124.87 48.7661 124.848 48.6971C124.825 48.6281 124.824 48.554 124.844 48.4842C124.863 48.4143 124.903 48.3519 124.958 48.3048C125.013 48.2576 125.081 48.2279 125.153 48.2194C125.201 48.2137 125.25 48.2175 125.296 48.2305C125.343 48.2436 125.386 48.2657 125.424 48.2955C125.462 48.3254 125.493 48.3624 125.517 48.4044C125.54 48.4465 125.555 48.4928 125.561 48.5407Z" fill="#ADADAD"/>
<path d="M126.774 48.3998C126.782 48.4719 126.769 48.545 126.736 48.6097C126.703 48.6744 126.652 48.7279 126.588 48.7633C126.525 48.7987 126.452 48.8145 126.38 48.8087C126.308 48.8028 126.239 48.7756 126.182 48.7305C126.125 48.6853 126.082 48.6243 126.06 48.5551C126.038 48.4859 126.037 48.4117 126.057 48.3419C126.077 48.272 126.117 48.2097 126.173 48.1628C126.228 48.1159 126.296 48.0866 126.369 48.0785C126.465 48.0677 126.562 48.0954 126.638 48.1556C126.713 48.2158 126.762 48.3035 126.774 48.3998Z" fill="#ADADAD"/>
<path d="M126.299 54.8646C126.308 54.9367 126.295 55.0096 126.262 55.0742C126.229 55.1389 126.177 55.1923 126.114 55.2277C126.051 55.2631 125.978 55.279 125.906 55.2733C125.834 55.2676 125.765 55.2406 125.708 55.1957C125.651 55.1508 125.609 55.09 125.586 55.021C125.564 54.952 125.562 54.878 125.582 54.8081C125.602 54.7383 125.641 54.6759 125.697 54.6287C125.752 54.5816 125.82 54.5519 125.892 54.5433C125.988 54.5325 126.085 54.5601 126.161 54.6203C126.238 54.6804 126.287 54.7682 126.299 54.8646Z" fill="#ADADAD"/>
<path d="M127.513 54.7223C127.521 54.7943 127.508 54.8673 127.475 54.9319C127.442 54.9965 127.391 55.05 127.328 55.0854C127.264 55.1208 127.192 55.1367 127.12 55.131C127.047 55.1253 126.978 55.0983 126.921 55.0534C126.865 55.0085 126.822 54.9477 126.8 54.8787C126.777 54.8097 126.776 54.7356 126.795 54.6658C126.815 54.596 126.855 54.5336 126.91 54.4864C126.965 54.4393 127.033 54.4096 127.105 54.401C127.153 54.3953 127.202 54.3991 127.248 54.4122C127.294 54.4253 127.338 54.4473 127.376 54.4772C127.414 54.507 127.445 54.544 127.469 54.5861C127.492 54.6281 127.507 54.6744 127.513 54.7223Z" fill="#ADADAD"/>
<path d="M124.357 53.6643C124.37 53.7642 124.352 53.8656 124.306 53.9555C124.261 54.0453 124.19 54.1196 124.102 54.1686C124.014 54.2177 123.913 54.2394 123.813 54.231C123.712 54.2225 123.617 54.1843 123.538 54.1212C123.46 54.0581 123.402 53.973 123.372 53.8768C123.342 53.7806 123.342 53.6777 123.371 53.5813C123.399 53.4848 123.457 53.3992 123.535 53.3354C123.612 53.2716 123.708 53.2325 123.808 53.2231C123.939 53.2103 124.07 53.2492 124.173 53.3317C124.275 53.4142 124.341 53.5336 124.357 53.6643Z" fill="#ADADAD"/>
<path d="M126.041 53.4633C126.052 53.5625 126.034 53.6629 125.988 53.7516C125.942 53.8404 125.871 53.9136 125.784 53.962C125.696 54.0105 125.596 54.032 125.497 54.0238C125.397 54.0157 125.302 53.9783 125.224 53.9163C125.146 53.8543 125.088 53.7705 125.057 53.6755C125.026 53.5805 125.024 53.4785 125.051 53.3824C125.078 53.2863 125.133 53.2003 125.209 53.1353C125.285 53.0704 125.378 53.0293 125.477 53.0173C125.544 53.0093 125.611 53.0145 125.675 53.0326C125.74 53.0508 125.8 53.0814 125.852 53.1229C125.905 53.1644 125.948 53.2158 125.981 53.2742C126.013 53.3326 126.033 53.3969 126.041 53.4633Z" fill="#ADADAD"/>
<path d="M127.723 53.2714C127.735 53.3713 127.717 53.4723 127.671 53.5618C127.625 53.6514 127.554 53.7253 127.466 53.7743C127.378 53.8232 127.278 53.8451 127.178 53.837C127.077 53.8289 126.982 53.7913 126.903 53.7289C126.824 53.6665 126.766 53.5821 126.735 53.4864C126.704 53.3907 126.702 53.288 126.73 53.1913C126.757 53.0946 126.813 53.0082 126.889 52.9431C126.966 52.8779 127.06 52.837 127.16 52.8254C127.294 52.8105 127.428 52.849 127.533 52.9325C127.639 53.016 127.707 53.1378 127.723 53.2714Z" fill="#ADADAD"/>
<path d="M129.404 53.0746C129.416 53.1739 129.397 53.2742 129.351 53.363C129.305 53.4517 129.234 53.5249 129.147 53.5733C129.06 53.6218 128.96 53.6433 128.86 53.6352C128.761 53.627 128.666 53.5896 128.588 53.5276C128.509 53.4656 128.451 53.3819 128.42 53.2868C128.39 53.1918 128.388 53.0898 128.415 52.9937C128.442 52.8976 128.497 52.8116 128.573 52.7467C128.648 52.6817 128.742 52.6406 128.841 52.6287C128.907 52.6206 128.975 52.6258 129.039 52.644C129.103 52.6621 129.163 52.6928 129.216 52.7342C129.268 52.7757 129.312 52.8271 129.344 52.8855C129.377 52.944 129.397 53.0082 129.404 53.0746Z" fill="#ADADAD"/>
<path d="M52.4692 142.317C53.0559 141.925 53.7558 141.74 54.4593 141.789C55.131 141.802 55.7859 142.001 56.3511 142.365L57.8161 148.04L57.7849 149.145C57.7849 149.145 57.7849 149.179 57.7634 149.239C56.9457 149.61 55.6917 149.831 54.2915 149.793C52.7521 149.749 51.4142 149.407 50.6326 148.922L50.6637 147.843L52.4692 142.317Z" fill="white"/>
<path d="M72.0847 142.398C71.7562 142.489 70.6461 148.328 71.1856 148.632C71.7251 148.937 86.5621 149.172 87.4228 148.328C87.876 147.884 87.3941 145.93 87.0824 145.836C83.4606 144.785 80.0039 143.231 76.813 141.221C76.813 141.221 75.7196 141.746 75.8899 142.53L76.0649 142.861C76.0649 142.861 75.1418 143.724 74.2474 143.64C73.3531 143.556 72.9191 142.18 72.0847 142.398Z" fill="white"/>
<path d="M68.9885 11.0049C72.0744 11.0456 75.9155 12.6833 75.4479 17.7568C75.1219 21.3078 74.2491 27.386 71.9017 27.5658C70.8635 27.645 67.3197 26.3454 67.3197 26.3454L62.9823 23.3219C62.9823 23.3219 58.815 10.8778 68.9885 11.0049Z" fill="#EC8A85"/>
<path d="M74.4147 13.1337L68.3318 18.3943C67.9433 16.7375 66.6701 16.807 65.7422 17.8164C64.6009 19.0608 65.982 20.7512 65.6919 21.1948C65.4018 21.6384 63.3781 23.3671 62.9849 23.3216C62.5916 23.276 56.2353 18.061 61.7644 10.6665C64.3108 7.25932 71.2522 7.66693 74.4147 13.1337Z" fill="#1C1C1C"/>
<path d="M71.4076 5.4545C71.3309 7.89057 69.7604 9.36276 67.5425 9.29083C65.3246 9.2189 64.3655 7.59805 64.4422 5.16198C64.519 2.72591 65.7442 0.932421 67.9621 1.00195C70.18 1.07149 71.4843 3.01603 71.4076 5.4545Z" fill="#1C1C1C"/>
<path d="M69.0972 19.793L75.0747 20.8552C75.0747 20.8552 75.5542 22.6942 75.4871 23.6653C75.2353 24.5908 73.7224 27.4105 71.8905 27.5783C69.0708 27.8397 66.2175 22.5288 66.2175 22.5288C66.9262 22.4385 67.5875 22.1245 68.1054 21.6325C68.6233 21.1405 68.9707 20.496 69.0972 19.793Z" fill="white"/>
<path d="M27.6601 81.4916C26.8649 81.0467 26.2791 80.3042 26.0313 79.4274C25.7836 78.5506 25.8942 77.6113 26.3389 76.816L26.3989 76.7105C26.6194 76.3167 26.9153 75.9702 27.2697 75.6908C27.6242 75.4113 28.0302 75.2045 28.4646 75.082C28.8991 74.9596 29.3533 74.9239 29.8015 74.977C30.2498 75.0302 30.6831 75.1711 31.0768 75.3918L55.3512 88.9508C55.7446 89.1712 56.0905 89.467 56.3692 89.8214C56.6479 90.1758 56.8539 90.5818 56.9753 91.016C57.0967 91.4502 57.1312 91.9041 57.0767 92.3516C57.0223 92.7992 56.88 93.2316 56.658 93.624L56.598 93.7271C56.3791 94.1209 56.0846 94.4676 55.7315 94.7474C55.3783 95.0272 54.9735 95.2347 54.5401 95.3578C54.1067 95.481 53.6532 95.5175 53.2057 95.4652C52.7582 95.4129 52.3254 95.2728 51.9321 95.053L35.3447 85.7619" fill="#79B1DB"/>
<path d="M37.0975 84.7088C36.9158 84.6072 36.7561 84.4704 36.6277 84.3065C36.4993 84.1425 36.4048 83.9547 36.3497 83.7538C36.2946 83.553 36.28 83.3433 36.3067 83.1367C36.3334 82.9302 36.4009 82.7311 36.5053 82.5509L36.6012 82.3783C36.7009 82.1968 36.8354 82.0367 36.9971 81.9074C37.1587 81.778 37.3444 81.6818 37.5433 81.6243C37.7422 81.5668 37.9506 81.5492 38.1563 81.5724C38.3621 81.5957 38.5612 81.6593 38.7424 81.7597L45.01 85.2699C45.3762 85.476 45.6456 85.8191 45.7589 86.2238C45.8722 86.6284 45.8201 87.0615 45.6142 87.4278L45.5159 87.6005C45.4149 87.7829 45.2788 87.9435 45.1155 88.0731C44.9522 88.2027 44.7648 88.2986 44.5642 88.3555C44.3636 88.4123 44.1538 88.4289 43.9467 88.4042C43.7397 88.3796 43.5396 88.3142 43.3579 88.2119L37.0903 84.7017" fill="#050505"/>
<path d="M52.1433 92.1997L53.0305 90.6172L64.0767 96.8201L63.0912 98.3474L52.1433 92.1997Z" fill="#79B1DB"/>
<path d="M46.9765 89.9238C46.7376 89.7893 46.544 89.5871 46.42 89.3426C46.2961 89.098 46.2474 88.8223 46.2802 88.5501C46.313 88.2779 46.4258 88.0216 46.6043 87.8135C46.7828 87.6055 47.019 87.455 47.283 87.3812C47.547 87.3074 47.827 87.3136 48.0875 87.3989C48.3481 87.4843 48.5774 87.6449 48.7466 87.8606C48.9158 88.0763 49.0172 88.3374 49.038 88.6107C49.0588 88.8841 48.9981 89.1574 48.8635 89.3963C48.7745 89.555 48.655 89.6946 48.5118 89.807C48.3687 89.9195 48.2048 90.0026 48.0295 90.0516C47.8542 90.1006 47.671 90.1146 47.4903 90.0926C47.3096 90.0707 47.135 90.0133 46.9765 89.9238Z" fill="#E76C67"/>
<path d="M62.8291 98.2223L63.7306 96.623L64.999 97.3424C65.2114 97.4619 65.3676 97.6609 65.4333 97.8957C65.4989 98.1304 65.4686 98.3816 65.3491 98.594C65.2295 98.8064 65.0305 98.9626 64.7958 99.0282C64.5611 99.0939 64.3099 99.0636 64.0975 98.944L62.8291 98.2247" fill="#050505"/>
<path d="M40.0565 76.6433C40.0565 76.6433 39.7185 79.0697 39.5266 79.8922C39.3348 80.7146 39.6345 82.7047 39.2125 83.7141C38.7906 84.7235 36.6518 87.2723 36.1147 87.1788C35.5776 87.0853 35.4338 86.0351 35.4338 86.0351C35.4338 86.0351 34.5802 86.155 34.3164 85.8553C34.1358 85.5943 34.0222 85.2929 33.9855 84.9777C33.9855 84.9777 33.6858 84.841 33.3669 84.6612C33.048 84.4814 32.9713 83.6086 32.9713 83.6086C32.8741 83.5811 32.7841 83.5327 32.7075 83.4669C32.6309 83.4011 32.5695 83.3193 32.5277 83.2274C32.4441 83.0225 32.4069 82.8016 32.419 82.5806C32.431 82.3596 32.4919 82.144 32.5973 81.9494L35.1317 78.0435L35.7742 75.502L40.0565 76.6433Z" fill="#757575"/>
</svg>
