<svg width="136" height="136" viewBox="0 0 136 136" fill="none" xmlns="http://www.w3.org/2000/svg">
<rect width="136" height="136" fill="white"/>
<path d="M66.1746 127.055C96.2973 127.055 120.717 102.635 120.717 72.5127C120.717 42.39 96.2973 17.9707 66.1746 17.9707C36.0519 17.9707 11.6326 42.39 11.6326 72.5127C11.6326 102.635 36.0519 127.055 66.1746 127.055Z" fill="#E7F3F7"/>
<path d="M113.095 126.395C113.095 128.883 91.3311 130.902 64.3122 130.902C37.2933 130.902 15.3909 128.883 15.3909 126.395C15.3909 123.908 37.2933 121.9 64.3122 121.9C81.8914 121.9 97.3055 122.753 105.928 124.037L102.315 121.845C92.385 120.794 79.0165 120.148 64.3169 120.148C33.6704 120.148 8.82617 122.949 8.82617 126.405C8.82617 129.861 33.6656 132.654 64.3122 132.654C94.9588 132.654 119.994 129.853 119.994 126.398C119.516 126.171 119.1 125.265 117.81 124.725C117.819 124.732 113.095 126.233 113.095 126.395Z" fill="#FF3126"/>
<path d="M64.8425 55.6198C64.8425 55.6198 73.3502 84.9711 73.0132 87.4636C72.1792 93.6388 73.3502 110.946 74.1651 114.437L80.4191 114.198C80.6247 106.685 81.4252 95.283 81.473 92.2288C81.5423 87.8938 81.2341 61.2142 81.2341 61.2142C81.2341 61.2142 67.3279 49.6047 64.8425 55.6198Z" fill="#1C1C1C"/>
<path d="M79.8163 123.185H75.1276L74.7046 114.455L79.5081 114.232L79.8163 123.185Z" fill="#EB8883"/>
<path d="M75.2939 4.61834C77.9967 4.83343 80.984 7.82066 80.5634 10.9322C80.1428 14.0437 78.9455 19.3251 76.8807 19.3466C75.9678 19.3466 72.9352 18.0059 72.9352 18.0059L72.4142 21.7172L66.6787 19.7696L69.3075 15.0928C69.3075 15.0928 66.3848 3.90858 75.2939 4.61834Z" fill="#EB8883"/>
<path d="M80.3842 8.91989C80.3842 8.91989 77.5643 8.5662 76.5152 9.82323C75.466 11.0803 74.785 14.1009 74.2855 11.0755C74.0465 9.59381 72.9209 9.58186 72.0487 10.4159C70.9756 11.4435 72.0893 13.0088 71.8097 13.3816C71.5301 13.7544 69.6589 15.1572 69.3123 15.0927C68.9658 15.0282 67.4555 8.62356 70.1297 5.66023C72.6389 2.88808 80.6901 4.38886 80.3842 8.91989Z" fill="#1C1C1C"/>
<path d="M80.3845 8.92035C80.3845 8.92035 83.8187 7.31442 83.5199 6.34178C83.3383 5.74672 81.2735 6.69069 81.0441 6.1028C80.8601 5.62484 82.5353 5.07041 82.3704 4.59724C81.5101 2.11425 72.7014 2.85269 71.8865 4.59724C71.0715 6.34178 80.3845 8.92035 80.3845 8.92035Z" fill="#1C1C1C"/>
<path d="M57.678 62.7866C57.678 62.7866 59.0832 77.8422 59.6018 91.7532C59.0122 99.3361 59.0418 106.954 59.6902 114.533H65.5571C65.6049 111.488 66.2597 102.251 67.5454 92.3363C69.4357 77.7753 72.1792 61.747 72.1792 61.747C72.1792 61.747 60.0869 56.7452 57.678 62.7866Z" fill="#1C1C1C"/>
<path d="M60.7634 121.311H64.4533L65.1463 114.541H60.7634V121.311Z" fill="#EB8883"/>
<path d="M68.5631 19.667C65.877 19.8343 62.4023 18.9501 60.6768 24.0356C59.3481 33.2147 57.0754 68.6289 57.0754 68.6289L82.7584 68.8201C82.7584 68.8201 80.6602 35.8674 77.4436 22.2623C77.4436 22.2623 73.9521 23.7129 72.0092 23.2493C70.2981 22.8407 69.6338 19.6001 68.5631 19.667Z" fill="#D9D9D9"/>
<path d="M77.4438 22.262L56.593 15.5156C56.593 15.5156 52.798 27.3857 62.2018 27.9425C71.6056 28.4993 77.4438 22.262 77.4438 22.262Z" fill="#D9D9D9"/>
<path d="M60.4191 25.2383C60.4191 25.2383 48.3148 44.3374 49.4954 50.1111C50.6759 55.8849 60.4191 61.2141 60.4191 61.2141V25.2383Z" fill="#D9D9D9"/>
<path d="M74.7862 120.337C74.4803 120.421 73.6558 125.834 74.1481 126.109C74.6404 126.384 88.4032 126.611 89.2038 125.824C89.622 125.413 89.1751 123.59 88.8859 123.509C85.619 122.573 82.5226 121.12 79.7139 119.207C79.7139 119.207 78.3565 119.685 78.519 120.426L78.6816 120.732C78.6816 120.732 77.8236 121.535 76.9944 121.449C76.1651 121.363 75.5581 120.125 74.7862 120.337Z" fill="white"/>
<path d="M60.7133 119.199C61.3294 118.784 62.0622 118.577 62.8043 118.609C63.4825 118.623 64.1439 118.823 64.7162 119.187L66.1692 124.906L66.1381 126.019C66.1381 126.019 66.1381 126.05 66.1166 126.115C65.2969 126.488 64.0375 126.708 62.6299 126.669C61.0837 126.626 59.7335 126.282 58.9568 125.795L58.9855 124.707L60.7133 119.199Z" fill="white"/>
<path d="M83.2055 43.0827C83.2055 43.0827 82.7515 31.5113 78.132 25.5488C72.5853 26.2992 76.5404 50.0441 76.5404 50.0441C76.5404 50.0441 82.7539 54.1737 85.9156 52.9907C88.4607 52.0372 83.2055 43.0827 83.2055 43.0827Z" fill="#D9D9D9"/>
<path d="M59.537 45.2835C58.7666 43.8228 58.6069 42.1162 59.093 40.5379C59.579 38.9596 60.6712 37.6385 62.1299 36.8643L73.5578 30.811C74.2798 30.4303 75.0696 30.1956 75.8823 30.1203C76.695 30.0449 77.5145 30.1304 78.2941 30.3719C79.0737 30.6133 79.7981 31.006 80.426 31.5275C81.0538 32.049 81.5727 32.689 81.9531 33.4111C83.5543 36.4557 115.809 93.8894 115.809 93.8894L90.2242 107.437C90.2242 107.437 61.1381 48.3257 59.537 45.2835Z" fill="#FF3126"/>
<path d="M113.095 126.395H120.001L116.23 119.23L110.851 122.079L113.095 126.395Z" fill="#E0463F"/>
<path d="M92.4213 111.604L118.004 98.0565L115.81 93.8887L90.2251 107.436L92.4213 111.604Z" fill="#1C1C1C"/>
<path d="M94.5359 115.624L92.4209 111.604L117.992 98.0566L120.107 102.076C115.363 105.121 113.955 111.217 116.319 116.465L108.509 120.602C105.538 115.686 99.7265 113.399 94.5359 115.624Z" fill="#1C1C1C"/>
<path d="M111.336 123.726L117.313 120.56L115.413 116.951L109.436 120.118L111.336 123.726Z" fill="#1C1C1C"/>
<path d="M68.0444 59.3773C68.649 59.1216 69.6933 58.3186 70.1067 58.0844C70.7943 57.7757 71.5076 57.5278 72.2384 57.3436C72.5156 57.3006 73.8515 56.9493 73.8993 57.1787C73.9471 57.4081 73.3067 58.3138 72.4917 58.462C71.6768 58.6102 71.1128 59.0308 71.12 59.3367C71.1272 59.6426 71.7629 60.2663 72.9195 60.5459C74.0762 60.8255 74.946 60.7323 75.5172 60.761C76.0884 60.7897 78.0456 61.141 77.8664 61.6595C77.6871 62.1781 76.2987 61.963 76.074 61.9678C75.8494 61.9726 73.6556 61.8555 73.5122 61.9678C73.3688 62.0801 73.1872 62.3741 73.4118 62.4816C73.6364 62.5892 75.3236 63.2583 75.902 63.5116C76.4803 63.7649 77.6083 64.2955 77.4505 64.8499C77.2928 65.4043 76.4707 65.0076 75.9665 64.7328C75.4622 64.458 74.7047 64.2811 74.3582 64.1234C74.0117 63.9657 73.1418 63.5809 72.941 63.7769C72.7403 63.9729 72.9697 64.164 73.1991 64.3528C73.4285 64.5416 74.9532 65.6696 75.3284 65.8297C75.7036 65.9898 75.9617 66.2336 75.8996 66.4487C75.8374 66.6637 75.6176 66.9051 74.8863 66.5395C74.155 66.1738 73.3879 65.9588 73.0175 65.6218C72.6471 65.2848 71.8441 64.4938 71.6673 64.63C71.4904 64.7663 71.9588 65.108 72.2623 65.4139C72.5658 65.7198 73.5839 66.7474 73.8229 66.9673C74.0618 67.1871 73.9543 67.3926 73.8229 67.4572C73.6914 67.5217 72.702 67.309 72.2074 66.7139C71.7127 66.1189 70.4963 65.2801 70.1139 65.0411C69.7315 64.8021 67.1458 63.0384 66.5006 62.8568C65.8661 62.7246 65.2219 62.6447 64.5744 62.6178L64.2207 58.9878C64.2207 58.9878 67.435 59.633 68.0444 59.3773Z" fill="#EB8883"/>
<path d="M87.0415 40.552C86.6257 40.5807 84.9266 41.8305 84.6518 42.0647C84.2574 42.3945 84.4343 43.3409 85.3496 43.0206C86.0665 42.7697 86.8145 42.5284 86.8145 42.5284C86.8145 42.5284 84.9815 43.7089 84.6087 43.9144C84.2359 44.1199 83.8273 44.6314 83.9539 44.942C84.1451 45.42 84.6709 45.4678 85.1488 45.2503C85.6268 45.0328 87.345 44.3924 87.345 44.3924L84.8716 46.0031C84.8716 46.0031 84.3554 46.4237 84.6064 46.8801C84.9385 47.4824 85.5623 47.0594 85.9231 46.8634C86.284 46.6675 88.0739 45.874 88.0739 45.874L88.1695 46.082C88.1695 46.082 86.4537 46.6937 86.1286 46.9853C85.8036 47.2769 86.0354 47.7309 86.5588 47.8074C86.9077 47.8576 88.43 47.4728 88.43 47.4728C88.7181 47.5942 89.0154 47.6924 89.319 47.7668C89.6029 47.8106 89.8935 47.7741 90.1578 47.6616C90.3801 47.5565 91.0062 46.0127 90.545 44.77C90.0837 43.5273 89.6488 42.796 88.9605 42.0886C88.2723 41.3813 87.6199 40.5138 87.0415 40.552Z" fill="#EB8883"/>
</svg>
