<svg width="23" height="20" viewBox="0 0 23 20" fill="none" xmlns="http://www.w3.org/2000/svg">
<g clip-path="url(#clip0)">
<path d="M21.7879 5.20141C21.6709 4.77986 21.4453 4.40906 21.1111 4.08899C20.7768 3.76893 20.3757 3.55426 19.9078 3.44496C19.49 3.33567 18.8215 3.2498 17.9023 3.18735C16.9664 3.14052 16.0305 3.10148 15.0946 3.07026C14.1587 3.03903 13.3315 3.02342 12.6129 3.02342C11.8942 3.00781 11.5349 3 11.5349 3C11.5349 3 11.1756 3.00781 10.457 3.02342C9.73834 3.02342 8.91109 3.03513 7.97519 3.05855C7.0393 3.08197 6.10342 3.1171 5.16753 3.16393C4.24835 3.22639 3.57986 3.31226 3.16205 3.42155C2.71082 3.53084 2.31391 3.74551 1.9713 4.06557C1.6287 4.38564 1.39891 4.75644 1.28192 5.17799C1.04795 5.97424 0.91425 6.97736 0.880825 8.18735C0.847401 9.39735 0.830688 10.0023 0.830688 10.0023C0.830688 10.0023 0.847401 10.6112 0.880825 11.829C0.91425 13.0468 1.03959 14.0382 1.25685 14.8033C1.37384 15.2404 1.60363 15.6151 1.94623 15.9274C2.28884 16.2397 2.68575 16.4582 3.13698 16.5831C3.57151 16.6768 4.24835 16.7549 5.16753 16.8173C6.08671 16.8798 7.01841 16.9266 7.96266 16.9578C8.90691 16.9891 9.73834 17.0047 10.457 17.0047C11.1589 17.0047 11.5098 17.0047 11.5098 17.0047C11.5098 17.0047 11.8692 17.0047 12.5878 17.0047C13.3064 17.0047 14.1378 16.993 15.0821 16.9696C16.0263 16.9461 16.958 16.9032 17.8772 16.8407C18.7964 16.7939 19.4649 16.7158 19.8827 16.6066C20.3506 16.4973 20.7517 16.2826 21.086 15.9625C21.4202 15.6425 21.6542 15.2717 21.7879 14.8501C22.0052 14.0695 22.1347 13.0703 22.1765 11.8525C22.2182 10.6347 22.2391 10.0258 22.2391 10.0258C22.2391 10.0258 22.2224 9.41687 22.189 8.19906C22.1556 6.98126 22.0219 5.98205 21.7879 5.20141ZM9.37902 13L9.40409 7.00468L14.9693 10.0023L9.37902 13Z" fill="white"/>
</g>
<defs>
<clipPath id="clip0">
<rect width="21.4084" height="20" fill="white" transform="translate(0.830688)"/>
</clipPath>
</defs>
</svg>
