<svg width="22" height="457" viewBox="0 0 22 457" fill="none" xmlns="http://www.w3.org/2000/svg">
<path d="M0.949951 456.051L0.949931 0.0507762L15.7107 0.0507756L12.4572 1.59803L12.1015 3.38134L12.4572 4.76707L11.7818 6.28896L12.1015 7.7487L12.1913 10.6449L13.9548 14.4917L14.4223 16.3993L16.013 20.1976L16.118 23.8181L16.6728 26.1457L14.7666 29.325L15.7258 32.4379L15.0895 35.0791L16.2865 37.3554L14.9604 38.6704L15.7762 40.2028L15.1236 43.8333L17.2044 49.4376L16.3116 52.2287L17.0955 55.178L15.8215 56.9196L16.4845 61.0853L15.7107 63.1515L16.2225 69.365L15.3508 72.5558L15.8455 79.4755L13.1432 84.0081L13.261 88.0022L11.7286 91.9559L13.7187 98.09L14.2261 103.352L16.4875 108.187L20.1227 114.931L21.0499 123.452L15.7521 135.604L15.358 143.572L16.4875 148.878L12.4572 160.389L13.7187 166.417L12.4572 174.156L13.4708 178.831L10.5911 185.687L11.7286 193.215L9.19439 199.211L10.0591 205.773L12.4572 218.568L14.0961 222.475L15.358 232.732L14.2261 239.401L14.0961 243.181L12.4572 249.458L14.8647 255.379L12.4572 260.366L14.0961 263.167L13.7187 266.243L13.5281 272.052L11.7286 279.181L10.5911 285.367L10.4155 289.591L11.7286 295.221L14.0961 298.542L12.4572 303.227L14.8647 307.084L15.8574 311.138L14.0961 315.49L13.4708 317.791L14.0961 320.347L15.358 322.319L16.4875 324.31L15.8574 325.931L15.7692 330.287L17.2054 333.157L18.0397 337.166L18.5845 341.684L19.1573 344.081L19.1256 347.387L21.0499 349.677L21.0499 351.209L21.0499 352.813L16.4875 354.677L14.8647 356.916L13.5281 358.882L13.4708 361.185L14.0961 363.661L13.4708 367.336L12.4572 370.814L11.7286 373.102L10.4155 376.571L10.0591 379.862L10.0591 382.87L9.96228 385.858L9.8891 388.118L10.4155 390.341L9.8891 392.266L9.81994 394.424L9.19439 396.1L10.4155 397.915L9.81994 399.252L10.4155 400.742L10.4155 402.759L9.81994 404.443L10.4155 406.06L9.81994 409.123L9.81994 412.062L9.81994 414.987L10.4155 416.923L12.4572 418.054L14.8647 420.563L15.7692 423.673L16.4875 425.368L16.4875 427.794L14.8647 430.248L14.0961 431.51L14.0961 433.835L14.8647 435.625L14.0961 437.556L14.8647 440.717L15.7692 442.693L15.7692 445.362L16.4875 448.01L17.2054 449.498L18.0397 452.033L15.7258 456.051L0.949951 456.051Z" fill="#DE3831"/>
</svg>
