<svg width="166" height="41" viewBox="0 0 166 41" fill="none" xmlns="http://www.w3.org/2000/svg">
<path fill-rule="evenodd" clip-rule="evenodd" d="M3.56018 14.2733C3.8626 13.8594 4.4181 13.7192 4.88242 13.9391C5.34698 14.1592 5.58807 14.6765 5.45131 15.169V15.1704L5.44637 15.1857C5.44285 15.1976 5.43791 15.2191 5.43086 15.2477C5.4163 15.3045 5.39491 15.3903 5.36953 15.5021C5.31572 15.7245 5.24593 16.0504 5.17638 16.4406C5.03375 17.2235 4.89675 18.282 4.89675 19.3369C4.89675 19.9249 4.93881 20.5147 5.04197 21.0451C5.14395 21.5781 5.30609 22.0493 5.52086 22.4213C5.66373 22.6677 5.83033 22.8723 6.02114 23.0388C6.27445 23.2589 6.57663 23.4229 7.00265 23.5205C7.27264 23.5813 7.51867 23.6074 7.7419 23.6074C8.00344 23.6074 8.23513 23.5729 8.45577 23.5098C8.67431 23.4469 8.87944 23.3565 9.07871 23.2387C9.47465 23.0034 9.8478 22.6451 10.1838 22.2074C10.4045 21.9137 10.6122 21.5853 10.7945 21.2426C11.0406 20.7858 11.2495 20.2983 11.421 19.8354C11.6501 19.2158 11.8181 18.6377 11.9358 18.206C12.0773 17.6838 12.591 17.3518 13.1298 17.4385C13.6695 17.5231 14.0561 17.9955 14.0272 18.5366V18.5473C14.0272 18.5592 14.026 18.5759 14.0248 18.6006C14.0236 18.6484 14.0225 18.7257 14.0225 18.8231C14.0225 19.1217 14.0368 19.6272 14.1113 20.2018C14.1832 20.7739 14.3176 21.4117 14.5336 21.9601C14.6764 22.33 14.8564 22.6582 15.0604 22.9116C15.1779 23.0591 15.2991 23.1816 15.4359 23.2815C15.5872 23.3968 15.7491 23.4826 15.9399 23.5445H15.9411C16.349 23.6789 16.7584 23.7409 17.1794 23.7409C17.5923 23.7409 18.0195 23.6813 18.4563 23.5659C18.8929 23.4527 19.3417 23.2815 19.7894 23.0649C20.0822 22.9261 20.3738 22.7628 20.6642 22.5857C20.3162 21.6838 20.1216 20.6694 20.1216 19.6069C20.1216 18.8433 20.2224 18.0572 20.4504 17.2852C20.6774 16.5133 21.0324 15.7543 21.5376 15.0537C22.1077 14.2591 22.7485 13.6691 23.4288 13.2754C24.1067 12.8806 24.8255 12.6877 25.513 12.6889C26.2222 12.6877 26.8919 12.8936 27.4425 13.2444C27.9958 13.599 28.4374 14.101 28.7062 14.6991C28.8824 15.0965 28.9821 15.5414 28.9821 15.9968C28.9821 16.3418 28.9245 16.6964 28.8105 17.0439C28.694 17.3886 28.5177 17.729 28.2884 18.0465C27.6417 18.9435 26.7418 20.0686 25.6655 21.1869C25.0031 21.8706 24.2747 22.5536 23.4948 23.1781C23.5343 23.2172 23.5728 23.2517 23.6123 23.2827C23.8715 23.4933 24.1499 23.6433 24.4655 23.7502C24.7811 23.8525 25.1364 23.9095 25.537 23.9095C25.9811 23.9095 26.4802 23.8417 27.0322 23.6908C27.5842 23.5396 28.1852 23.3088 28.826 22.9959C30.1088 22.3679 31.5452 21.4057 33.074 20.1187C34.1791 19.1895 35.2915 18.2701 36.5442 17.2258V0.685547H0.00115967V16.7024C0.68143 16.4252 1.50927 16.0278 2.23183 15.5188C2.76219 15.1475 3.23003 14.7229 3.56018 14.2733Z" fill="#FF3126"/>
<path fill-rule="evenodd" clip-rule="evenodd" d="M26.552 16.8198C26.6695 16.6593 26.7393 16.5116 26.7884 16.3761C26.8328 16.2382 26.8507 16.1145 26.8507 15.9966C26.8497 15.8408 26.8185 15.691 26.756 15.5531C26.6937 15.415 26.6037 15.2852 26.4848 15.1734C26.2484 14.9474 25.9136 14.7988 25.5129 14.7988C25.2213 14.8012 24.8865 14.8762 24.5025 15.0963C24.1244 15.3162 23.6984 15.6873 23.2714 16.2785C22.9173 16.7721 22.6631 17.3111 22.4974 17.8759C22.3306 18.4387 22.2525 19.0285 22.2525 19.6055C22.2525 20.1886 22.3306 20.7569 22.4746 21.2734C24.1761 19.8482 25.657 18.0674 26.552 16.8198Z" fill="#FF3126"/>
<path fill-rule="evenodd" clip-rule="evenodd" d="M30.8998 24.2812C29.755 24.9497 28.6545 25.4386 27.5988 25.7275C26.8908 25.9201 26.2032 26.0226 25.5385 26.0226C24.9325 26.0235 24.3445 25.9369 23.7923 25.7536C23.2392 25.5705 22.7222 25.2921 22.2661 24.9222C22.0753 24.7664 21.9014 24.5952 21.7381 24.4121C20.8741 24.9329 19.9598 25.3576 19.0011 25.6084C18.4108 25.7631 17.7998 25.8523 17.1809 25.8523C16.5497 25.8523 15.9064 25.761 15.2752 25.5539C14.7977 25.3993 14.3766 25.1591 14.0225 24.8651C13.6649 24.5726 13.3735 24.2336 13.1357 23.8756C12.8587 23.4568 12.6509 23.013 12.4879 22.5681C12.3126 22.8681 12.1229 23.1616 11.9096 23.4461C11.4967 23.9909 11.0058 24.4999 10.4048 24.9033C10.0603 25.1351 9.68125 25.3303 9.26721 25.4696C8.79678 25.6301 8.28193 25.7193 7.74195 25.7193C7.34836 25.7193 6.94536 25.6739 6.5278 25.5775C5.89876 25.4361 5.33386 25.1768 4.86461 24.8272C4.393 24.4761 4.02103 24.0443 3.73435 23.5732C3.54354 23.2604 3.38987 22.931 3.26509 22.5933C3.09943 22.1423 2.98429 21.6771 2.90745 21.2075C2.80429 20.5816 2.76458 19.9513 2.76458 19.3375C2.76458 18.7463 2.80312 18.1716 2.85834 17.6387C2.38556 17.9231 1.91513 18.167 1.4736 18.3703C0.910817 18.6275 0.400908 18.8222 3.05176e-05 18.9604V36.9136H36.5454V19.9809C35.8208 20.5842 35.1318 21.1551 34.4527 21.7284C33.2301 22.7598 32.0444 23.6101 30.8998 24.2812Z" fill="#FF3126"/>
<path fill-rule="evenodd" clip-rule="evenodd" d="M46.3961 0.914062V10.2887C46.3961 13.6292 48.6139 15.9999 52.5923 15.9999C56.5492 15.9999 58.7885 13.6292 58.7885 10.2887V0.914062H55.8099V10.3534C55.8099 12.0136 54.4181 13.1555 52.5923 13.1555C50.744 13.1555 49.3524 12.0136 49.3524 10.3534V0.914062H46.3961Z" fill="#1E1E1E"/>
<path fill-rule="evenodd" clip-rule="evenodd" d="M61.5277 4.79359V16.0005H64.5717V9.81552C64.5717 8.54414 65.3755 7.40134 66.854 7.40134C67.9845 7.40134 68.8544 8.09154 68.8544 9.40555V16.0005H71.876V9.2546C71.876 5.69856 69.7243 4.57812 67.6372 4.57812C65.2233 4.57812 64.3327 6.28067 64.3327 6.28067L63.8538 4.79359H61.5277Z" fill="#1E1E1E"/>
<mask id="mask0" mask-type="alpha" maskUnits="userSpaceOnUse" x="73" y="0" width="6" height="17">
<path d="M73.7461 0.00976562H78.0072V16.0014H73.7461V0.00976562Z" fill="white"/>
</mask>
<g mask="url(#mask0)">
<path fill-rule="evenodd" clip-rule="evenodd" d="M76.2898 0.00976562C75.3553 0.00976562 74.659 0.785218 74.659 1.66899C74.659 2.57395 75.3553 3.32891 76.2898 3.32891C77.2027 3.32891 77.9859 2.57395 77.9859 1.66899C77.9859 0.785218 77.2243 0.00976562 76.2898 0.00976562ZM73.7461 4.79386V6.88495L75.0726 7.35875V16.0015H78.0072V4.79386H73.7461Z" fill="#1E1E1E"/>
</g>
<path fill-rule="evenodd" clip-rule="evenodd" d="M79.4203 4.79297L83.3558 15.9999H86.2251L90.3342 4.79297H87.2473L84.8336 12.7029H84.7906L82.4856 4.79297H79.4203Z" fill="#1E1E1E"/>
<path fill-rule="evenodd" clip-rule="evenodd" d="M94.0085 9.4703C94.2914 7.96202 95.3126 7.16444 96.7258 7.16444C98.3789 7.16444 98.8568 8.24155 98.9222 9.4703H94.0085ZM90.9432 10.5048C90.9432 13.9313 93.4438 16.216 96.8565 16.216C98.3789 16.216 99.9873 15.8931 101.118 15.2463L100.118 13.069C99.3787 13.3928 98.2043 13.737 96.9218 13.737C95.5739 13.737 94.1821 13.1337 94.0524 11.5393H101.639C101.639 11.5393 101.749 11 101.749 10.2458C101.749 7.27183 100.053 4.57812 96.5522 4.57812C93.2039 4.57812 90.9432 7.05613 90.9432 10.5048Z" fill="#1E1E1E"/>
<path fill-rule="evenodd" clip-rule="evenodd" d="M103.748 4.90231V16.0018H106.749V11.0013C106.749 8.58786 108.119 7.85504 110.032 7.85504H110.401V4.79492C108.401 4.79492 107.227 5.24752 106.531 6.66961L106.14 4.90231H103.748Z" fill="#1E1E1E"/>
<path fill-rule="evenodd" clip-rule="evenodd" d="M115.771 16.2162C118.64 16.2162 120.467 14.9448 120.467 12.7685C120.467 8.63033 114.488 9.686 114.488 7.96202C114.488 7.46633 114.966 6.90541 116.227 6.90541C117.685 6.90541 119.162 7.55229 119.162 7.55229L120.054 5.46189C119.25 5.09548 117.706 4.57812 116.032 4.57812C113.379 4.57812 111.684 5.89306 111.684 8.00489C111.684 12.1864 117.685 11.0657 117.685 12.8323C117.685 13.3282 117.184 13.8668 115.64 13.8668C114.488 13.8668 113.314 13.4577 112.532 13.1125L111.64 15.2253C112.336 15.5693 113.728 16.2162 115.771 16.2162Z" fill="#1E1E1E"/>
<mask id="mask1" mask-type="alpha" maskUnits="userSpaceOnUse" x="121" y="0" width="5" height="17">
<path d="M121.728 0.00976562H125.989V16.0014H121.728V0.00976562Z" fill="white"/>
</mask>
<g mask="url(#mask1)">
<path fill-rule="evenodd" clip-rule="evenodd" d="M124.272 0.00976562C123.337 0.00976562 122.641 0.785218 122.641 1.66899C122.641 2.57395 123.337 3.32891 124.272 3.32891C125.185 3.32891 125.968 2.57395 125.968 1.66899C125.968 0.785218 125.207 0.00976562 124.272 0.00976562ZM121.728 4.79386V6.88495L123.054 7.35875V16.0015H125.989V4.79386H121.728Z" fill="#1E1E1E"/>
</g>
<path fill-rule="evenodd" clip-rule="evenodd" d="M133.99 7.16455C135.859 7.16455 137.011 8.6302 137.011 10.3977C137.011 12.1641 135.859 13.63 134.011 13.63C132.338 13.63 131.077 12.4234 131.077 10.3756C131.077 8.37117 132.294 7.16455 133.99 7.16455ZM136.686 0.224609V5.91437C136.012 5.03083 134.751 4.57823 133.446 4.57823C130.25 4.57823 128.12 7.33669 128.12 10.3977C128.12 13.4579 130.229 16.2163 133.489 16.2163C134.816 16.2163 136.12 15.7639 136.903 14.5785L137.273 16.0008H139.599V0.224609H136.686Z" fill="#1E1E1E"/>
<path fill-rule="evenodd" clip-rule="evenodd" d="M148.491 11.0648V12.1854C148.491 13.2199 147.187 13.9963 146.056 13.9963C145.077 13.9963 144.208 13.4356 144.208 12.4445C144.208 11.1295 145.708 10.8926 146.687 10.8926C147.274 10.8926 147.926 10.9788 148.491 11.0648ZM142.491 5.31002L143.034 7.40134C143.882 7.20707 145.47 6.97017 146.448 6.97017C147.361 6.97017 148.491 7.18587 148.491 8.82366V9.14652C147.773 9.06056 146.904 8.99581 146.144 8.99581C143.556 8.99581 141.469 10.1598 141.469 12.573C141.469 14.9439 143.491 16.2153 145.556 16.2153C147.122 16.2153 148.447 15.3972 149.078 14.298V14.5349C149.078 15.7627 150.274 16.0005 150.991 16.0005C151.796 16.0005 152.709 15.6979 152.796 15.6341V13.2847C152.339 13.3273 151.969 13.3494 151.796 13.3494C151.47 13.3494 151.317 13.2632 151.317 12.9618V8.30631C151.317 5.87093 149.731 4.57812 146.926 4.57812C145.404 4.57812 143.512 4.96573 142.491 5.31002Z" fill="#1E1E1E"/>
<mask id="mask2" mask-type="alpha" maskUnits="userSpaceOnUse" x="153" y="0" width="13" height="17">
<path d="M153.926 0.224609H165.405V16.2163H153.926V0.224609Z" fill="white"/>
</mask>
<g mask="url(#mask2)">
<path fill-rule="evenodd" clip-rule="evenodd" d="M159.796 7.16455C161.666 7.16455 162.818 8.6302 162.818 10.3977C162.818 12.1641 161.666 13.63 159.818 13.63C158.144 13.63 156.883 12.4234 156.883 10.3756C156.883 8.37117 158.1 7.16455 159.796 7.16455ZM162.492 0.224609V5.91437C161.818 5.03083 160.557 4.57823 159.253 4.57823C156.057 4.57823 153.926 7.33669 153.926 10.3977C153.926 13.4579 156.035 16.2163 159.296 16.2163C160.622 16.2163 161.926 15.7639 162.71 14.5785L163.079 16.0008H165.406V0.224609H162.492Z" fill="#1E1E1E"/>
</g>
<path fill-rule="evenodd" clip-rule="evenodd" d="M46.4829 21.8203V36.9073H57.3968V34.105H49.5268V30.8942H56.1143V28.1784H49.5268V24.6223H57.2448V21.8203H46.4829Z" fill="#1E1E1E"/>
<path fill-rule="evenodd" clip-rule="evenodd" d="M59.4189 25.6992V32.4237C59.4189 35.419 60.9188 37.1216 63.8537 37.1216C65.2669 37.1216 66.332 36.6042 67.0713 35.6345L67.4409 36.9059H69.7672V25.6992H66.724V32.3154C66.724 33.6736 65.7457 34.2772 64.5499 34.2772C63.0928 34.2772 62.4189 33.5868 62.4189 32.273V25.6992H59.4189Z" fill="#1E1E1E"/>
<path fill-rule="evenodd" clip-rule="evenodd" d="M72.4633 25.8066V36.9059H75.4636V31.9056C75.4636 29.4922 76.8328 28.7593 78.7465 28.7593H79.1161V25.6992C77.1157 25.6992 75.9422 26.1516 75.246 27.5741L74.855 25.8066H72.4633Z" fill="#1E1E1E"/>
<path fill-rule="evenodd" clip-rule="evenodd" d="M86.0731 28.0709C87.7469 28.0709 88.965 29.3859 88.965 31.3041C88.965 33.1576 87.7253 34.5364 86.0731 34.5364C84.3554 34.5364 83.1812 33.1576 83.1812 31.3041C83.1812 29.3859 84.3554 28.0709 86.0731 28.0709ZM80.1812 31.3041C80.1812 34.7521 82.8116 37.1225 86.0731 37.1225C89.3121 37.1225 91.965 34.7521 91.965 31.3041C91.965 27.8338 89.3344 25.4844 86.0731 25.4844C82.7902 25.4844 80.1812 27.8552 80.1812 31.3041Z" fill="#1E1E1E"/>
<mask id="mask3" mask-type="alpha" maskUnits="userSpaceOnUse" x="94" y="25" width="12" height="16">
<path d="M94.0738 25.4844H105.553V40.5711H94.0738V25.4844Z" fill="white"/>
</mask>
<g mask="url(#mask3)">
<path fill-rule="evenodd" clip-rule="evenodd" d="M100.205 25.4844C99.1395 25.4844 97.7694 26.0877 96.9871 27.2305L96.4652 25.7001H94.0738V40.5711H96.9871V35.4847C97.7264 36.7134 99.4225 37.1225 100.183 37.1225C103.683 37.1225 105.553 34.4066 105.553 31.3463C105.553 28.0059 103.531 25.4844 100.205 25.4844ZM99.6828 28.0707C101.27 28.0707 102.596 29.3421 102.596 31.3036C102.596 33.2212 101.27 34.5359 99.6828 34.5359C97.8347 34.5359 96.6828 33.1998 96.6828 31.3036C96.6828 29.2349 98.0746 28.0707 99.6828 28.0707Z" fill="#1E1E1E"/>
</g>
<path fill-rule="evenodd" clip-rule="evenodd" d="M110.184 30.3766C110.467 28.8683 111.488 28.0707 112.901 28.0707C114.553 28.0707 115.032 29.1478 115.098 30.3766H110.184ZM107.118 31.411C107.118 34.8376 109.618 37.1225 113.032 37.1225C114.553 37.1225 116.163 36.7994 117.293 36.1527L116.293 33.9762C115.554 34.2992 114.38 34.6433 113.097 34.6433C111.749 34.6433 110.357 34.0402 110.228 32.4457H117.815C117.815 32.4457 117.924 31.907 117.924 31.152C117.924 28.1781 116.228 25.4844 112.728 25.4844C109.379 25.4844 107.118 27.9624 107.118 31.411Z" fill="#1E1E1E"/>
<path fill-rule="evenodd" clip-rule="evenodd" d="M126.12 31.9722V33.0928C126.12 34.1271 124.816 34.9025 123.685 34.9025C122.706 34.9025 121.837 34.3428 121.837 33.3519C121.837 32.0367 123.337 31.8 124.315 31.8C124.903 31.8 125.554 31.886 126.12 31.9722ZM120.12 26.2174L120.663 28.3078C121.511 28.1143 123.098 27.8774 124.077 27.8774C124.989 27.8774 126.12 28.0931 126.12 29.7308V30.0539C125.402 29.968 124.533 29.903 123.772 29.903C121.185 29.903 119.097 31.067 119.097 33.4805C119.097 35.8511 121.119 37.1225 123.185 37.1225C124.75 37.1225 126.076 36.3037 126.707 35.2044V35.442C126.707 36.6701 127.903 36.9077 128.62 36.9077C129.424 36.9077 130.337 36.6053 130.425 36.5413V34.1919C129.968 34.2345 129.599 34.2568 129.424 34.2568C129.099 34.2568 128.946 34.1707 128.946 33.8683V29.2135C128.946 26.7781 127.359 25.4844 124.554 25.4844C123.033 25.4844 121.141 25.8732 120.12 26.2174Z" fill="#1E1E1E"/>
</svg>
