<svg width="37" height="37" viewBox="0 0 37 37" fill="none" xmlns="http://www.w3.org/2000/svg">
<path fill-rule="evenodd" clip-rule="evenodd" d="M3.56 13.5878C3.86242 13.1738 4.41791 13.0336 4.88224 13.2535C5.34679 13.4736 5.58788 13.991 5.45112 14.4834V14.4848L5.44619 14.5002C5.44266 14.5121 5.43773 14.5335 5.43068 14.5622C5.41611 14.619 5.39473 14.7047 5.36935 14.8165C5.31554 15.039 5.24575 15.3649 5.1762 15.755C5.03356 16.5379 4.89657 17.5964 4.89657 18.6514C4.89657 19.2393 4.93863 19.8291 5.04179 20.3595C5.14377 20.8925 5.30591 21.3637 5.52068 21.7357C5.66355 21.9822 5.83015 22.1867 6.02095 22.3533C6.27426 22.5734 6.57645 22.7374 7.00247 22.835C7.27246 22.8958 7.51849 22.9219 7.74172 22.9219C8.00325 22.9219 8.23494 22.8874 8.45559 22.8243C8.67412 22.7614 8.87926 22.671 9.07852 22.5531C9.47447 22.3179 9.84762 21.9596 10.1836 21.5219C10.4043 21.2282 10.612 20.8997 10.7944 20.5571C11.0404 20.1003 11.2493 19.6127 11.4208 19.1499C11.6499 18.5303 11.8179 17.9521 11.9357 17.5205C12.0771 16.9982 12.5908 16.6663 13.1296 16.753C13.6693 16.8375 14.0559 17.3099 14.027 17.851V17.8617C14.027 17.8736 14.0258 17.8904 14.0246 17.9151C14.0235 17.9628 14.0223 18.0402 14.0223 18.1375C14.0223 18.4362 14.0366 18.9416 14.1111 19.5163C14.183 20.0884 14.3174 20.7262 14.5334 21.2745C14.6762 21.6444 14.8562 21.9726 15.0602 22.2261C15.1777 22.3735 15.2989 22.4961 15.4357 22.596C15.587 22.7113 15.7489 22.797 15.9397 22.859H15.9409C16.3488 22.9934 16.7582 23.0553 17.1793 23.0553C17.5921 23.0553 18.0193 22.9957 18.4561 22.8804C18.8927 22.7672 19.3416 22.596 19.7892 22.3794C20.082 22.2405 20.3736 22.0772 20.664 21.9002C20.316 20.9983 20.1215 19.9838 20.1215 18.9214C20.1215 18.1578 20.2223 17.3716 20.4502 16.5997C20.6772 15.8277 21.0322 15.0688 21.5374 14.3681C22.1075 13.5736 22.7483 12.9835 23.4286 12.5899C24.1065 12.195 24.8253 12.0022 25.5129 12.0033C26.222 12.0022 26.8917 12.2081 27.4423 12.5589C27.9957 12.9134 28.4372 13.4154 28.706 14.0136C28.8822 14.411 28.9819 14.8559 28.9819 15.3113C28.9819 15.6563 28.9243 16.0108 28.8103 16.3584C28.6938 16.7031 28.5176 17.0434 28.2882 17.3609C27.6415 18.258 26.7416 19.3831 25.6654 20.5014C25.0029 21.1851 24.2745 21.868 23.4946 22.4926C23.5341 22.5317 23.5726 22.5662 23.6121 22.5971C23.8713 22.8077 24.1497 22.9577 24.4653 23.0647C24.7809 23.1669 25.1362 23.224 25.5368 23.224C25.9809 23.224 26.48 23.1562 27.032 23.0053C27.584 22.8541 28.1851 22.6232 28.8259 22.3104C30.1086 21.6824 31.545 20.7201 33.0738 19.4331C34.179 18.5039 35.2914 17.5845 36.544 16.5403V0H0.000976562V16.0169C0.681246 15.7397 1.50908 15.3423 2.23165 14.8333C2.762 14.462 3.22985 14.0373 3.56 13.5878Z" fill="#FF3126"/>
<path fill-rule="evenodd" clip-rule="evenodd" d="M26.5519 16.1362C26.6694 15.9757 26.7392 15.828 26.7883 15.6925C26.8327 15.5546 26.8505 15.4309 26.8505 15.313C26.8496 15.1572 26.8184 15.0074 26.7559 14.8695C26.6936 14.7314 26.6036 14.6016 26.4847 14.4898C26.2483 14.2638 25.9134 14.1152 25.5128 14.1152C25.2212 14.1176 24.8863 14.1926 24.5024 14.4127C24.1243 14.6326 23.6983 15.0037 23.2713 15.5949C22.9172 16.0885 22.663 16.6275 22.4973 17.1924C22.3305 17.7551 22.2524 18.3449 22.2524 18.9219C22.2524 19.505 22.3305 20.0733 22.4745 20.5898C24.176 19.1646 25.6568 17.3838 26.5519 16.1362Z" fill="#FF3126"/>
<path fill-rule="evenodd" clip-rule="evenodd" d="M30.8998 23.5956C29.7549 24.2641 28.6545 24.7531 27.5987 25.0419C26.8907 25.2346 26.2032 25.3371 25.5384 25.3371C24.9324 25.338 24.3445 25.2513 23.7923 25.068C23.2391 24.8849 22.7222 24.6066 22.2661 24.2367C22.0753 24.0808 21.9014 23.9096 21.7381 23.7265C20.8741 24.2474 19.9598 24.672 19.001 24.9229C18.4108 25.0776 17.7998 25.1668 17.1809 25.1668C16.5497 25.1668 15.9063 25.0755 15.2752 24.8684C14.7977 24.7137 14.3766 24.4735 14.0225 24.1796C13.6648 23.887 13.3735 23.5481 13.1357 23.1901C12.8586 22.7712 12.6509 22.3275 12.4878 21.8826C12.3125 22.1826 12.1229 22.4761 11.9095 22.7605C11.4967 23.3054 11.0058 23.8143 10.4047 24.2178C10.0602 24.4496 9.68122 24.6448 9.26718 24.7841C8.79675 24.9446 8.2819 25.0338 7.74192 25.0338C7.34832 25.0338 6.94533 24.9883 6.52777 24.8919C5.89873 24.7505 5.33383 24.4913 4.86458 24.1416C4.39297 23.7906 4.02099 23.3587 3.73432 22.8877C3.54351 22.5749 3.38984 22.2455 3.26506 21.9077C3.0994 21.4568 2.98426 20.9916 2.90742 20.522C2.80426 19.8961 2.76455 19.2657 2.76455 18.6519C2.76455 18.0607 2.80309 17.4861 2.85831 16.9531C2.38553 17.2375 1.91509 17.4814 1.47357 17.6848C0.910786 17.9419 0.400877 18.1367 0 18.2748V36.2281H36.5454V19.2953C35.8207 19.8986 35.1318 20.4696 34.4527 21.0428C33.2301 22.0743 32.0443 22.9245 30.8998 23.5956Z" fill="#FF3126"/>
</svg>
