<svg width="23" height="23" viewBox="0 0 23 23" fill="none" xmlns="http://www.w3.org/2000/svg">
<rect width="23" height="23" fill="white"/>
<path d="M14.4172 18.3103L14.9203 18.8134L11.7338 22L8.50524 18.8134L9.00839 18.3103L11.3564 20.6583V11.2662H12.0692V20.6583L14.4172 18.3103ZM18.5262 7.70231C19.0573 7.70231 19.5604 7.80713 20.0356 8.01677C20.5108 8.22642 20.9301 8.51293 21.2935 8.87631C21.6569 9.21174 21.9364 9.62404 22.1321 10.1132C22.3277 10.6024 22.4256 11.1125 22.4256 11.6436C22.4256 12.1747 22.3277 12.6778 22.1321 13.153C21.9364 13.6282 21.6569 14.0475 21.2935 14.4109C20.9301 14.7743 20.5108 15.0608 20.0356 15.2704C19.5604 15.4801 19.0573 15.5849 18.5262 15.5849H13.4948V14.8721H18.5262C18.9734 14.8721 19.3927 14.7813 19.7841 14.5996C20.1754 14.4179 20.5108 14.1873 20.7904 13.9078C21.0699 13.6282 21.2935 13.2928 21.4612 12.9015C21.6289 12.5101 21.7128 12.0908 21.7128 11.6436C21.7128 11.1964 21.6289 10.7771 21.4612 10.3857C21.2935 9.99441 21.0699 9.65898 20.7904 9.37946C20.5108 9.07198 20.1754 8.83438 19.7841 8.66667C19.3927 8.49895 18.9734 8.41509 18.5262 8.41509H17.7715L17.8134 7.70231C17.8134 7.67435 17.8134 7.65339 17.8134 7.63941C17.8134 7.62544 17.8134 7.60447 17.8134 7.57652C17.8134 7.57652 17.8134 7.56953 17.8134 7.55556C17.8134 7.54158 17.8134 7.53459 17.8134 7.53459C17.8134 6.86373 17.6876 6.2348 17.4361 5.6478C17.1845 5.06079 16.8351 4.55765 16.3878 4.13836C15.9686 3.69112 15.4654 3.34172 14.8784 3.09015C14.2914 2.83857 13.6625 2.71279 12.9916 2.71279C12.5164 2.71279 12.0622 2.77568 11.6289 2.90147C11.1957 3.02725 10.7973 3.21593 10.434 3.46751C10.0426 3.69113 9.69322 3.97065 9.38574 4.30608C9.07827 4.64151 8.8267 5.01887 8.63103 5.43816L8.33753 6.10901L7.66667 5.77358C7.5269 5.68973 7.37317 5.63382 7.20545 5.60587C7.03774 5.57792 6.87002 5.56394 6.70231 5.56394C6.45073 5.56394 6.20615 5.60587 5.96855 5.68973C5.73096 5.77358 5.51433 5.89937 5.31866 6.06709C5.12299 6.20685 4.96226 6.38854 4.83648 6.61216C4.71069 6.83578 4.63382 7.07337 4.60587 7.32495L4.52201 7.74423L4.10273 7.91195C3.73934 8.02376 3.4109 8.19147 3.1174 8.41509C2.8239 8.63872 2.57932 8.90426 2.38365 9.21174C2.16003 9.49127 1.99231 9.81272 1.8805 10.1761C1.76869 10.5395 1.71279 10.9029 1.71279 11.2662C1.71279 11.7694 1.80363 12.2376 1.98532 12.6709C2.16702 13.1041 2.42557 13.4885 2.76101 13.8239C3.06849 14.1314 3.43885 14.3829 3.87212 14.5786C4.30538 14.7743 4.77358 14.8721 5.27673 14.8721H9.93082V15.5849H5.27673C4.68972 15.5849 4.13068 15.4731 3.59958 15.2495C3.06848 15.0259 2.62125 14.7184 2.25786 14.327C1.86653 13.9357 1.55905 13.4815 1.33543 12.9644C1.11181 12.4472 1 11.8812 1 11.2662C1 10.819 1.06988 10.3788 1.20964 9.94549C1.34941 9.51223 1.54507 9.11391 1.79665 8.75052C2.04822 8.41509 2.35569 8.11461 2.71908 7.84906C3.08246 7.58351 3.47379 7.38085 3.89308 7.24109C3.94899 6.90566 4.0608 6.5912 4.22851 6.29769C4.39623 6.00419 4.60587 5.74563 4.85744 5.52201C5.10902 5.29839 5.38854 5.13068 5.69602 5.01887C6.0035 4.90706 6.33892 4.85115 6.70231 4.85115C6.92593 4.85115 7.14954 4.87911 7.37317 4.93501C7.59679 4.99092 7.80643 5.0608 8.0021 5.14465C8.22572 4.66946 8.50524 4.24319 8.84067 3.86583C9.1761 3.48847 9.55346 3.16003 9.97275 2.8805C10.42 2.60098 10.8952 2.38435 11.3983 2.23061C11.9015 2.07687 12.4326 2 12.9916 2C13.7463 2 14.4591 2.14675 15.13 2.44025C15.8008 2.73375 16.3878 3.13207 16.891 3.63522C17.3941 4.11041 17.7925 4.69042 18.086 5.37526C18.3795 6.0601 18.5262 6.77987 18.5262 7.53459C18.5262 7.56254 18.5262 7.5905 18.5262 7.61845C18.5262 7.6464 18.5262 7.67435 18.5262 7.70231Z" fill="#999999"/>
</svg>
