<svg width="32" height="32" viewBox="0 0 32 32" fill="none" xmlns="http://www.w3.org/2000/svg">
<path d="M28.6452 2H3.35484C2.99566 2.00059 2.65133 2.17778 2.39735 2.49272C2.14337 2.80765 2.00048 3.23462 2 3.68V22.72C2.00048 23.1654 2.14337 23.5924 2.39735 23.9073C2.65133 24.2222 2.99566 24.3994 3.35484 24.4H12.6914L12.0467 27.2H10.129C10.0093 27.2 9.89439 27.259 9.80969 27.364C9.725 27.469 9.67742 27.6115 9.67742 27.76V28.88H6.06452C5.94474 28.88 5.82987 28.939 5.74518 29.044C5.66048 29.149 5.6129 29.2915 5.6129 29.44C5.6129 29.5885 5.66048 29.731 5.74518 29.836C5.82987 29.941 5.94474 30 6.06452 30H25.9355C26.0553 30 26.1701 29.941 26.2548 29.836C26.3395 29.731 26.3871 29.5885 26.3871 29.44C26.3871 29.2915 26.3395 29.149 26.2548 29.044C26.1701 28.939 26.0553 28.88 25.9355 28.88H22.3226V27.76C22.3226 27.6115 22.275 27.469 22.1903 27.364C22.1056 27.259 21.9907 27.2 21.871 27.2H19.9533L19.3086 24.4H28.6452C29.0043 24.3994 29.3487 24.2222 29.6026 23.9073C29.8566 23.5924 29.9995 23.1654 30 22.72V3.68C29.9995 3.23462 29.8566 2.80765 29.6026 2.49272C29.3487 2.17778 29.0043 2.00059 28.6452 2V2ZM21.4194 28.32V28.88H10.5806V28.32H21.4194ZM12.986 27.2L13.6307 24.4H18.3693L19.014 27.2H12.986ZM29.0968 22.72C29.0966 22.8685 29.049 23.0108 28.9643 23.1158C28.8797 23.2207 28.7649 23.2798 28.6452 23.28H3.35484C3.23511 23.2798 3.12034 23.2207 3.03568 23.1158C2.95102 23.0108 2.90339 22.8685 2.90323 22.72V21.6H29.0968V22.72ZM29.0968 20.48H2.90323V3.68C2.90339 3.53154 2.95102 3.38922 3.03568 3.28425C3.12034 3.17927 3.23511 3.1202 3.35484 3.12H28.6452C28.7649 3.1202 28.8797 3.17927 28.9643 3.28425C29.049 3.38922 29.0966 3.53154 29.0968 3.68V20.48Z" fill="#FF3126"/>
<path d="M23.6015 12.8085V10.2554C23.6014 10.1614 23.5739 10.0694 23.5221 9.99016C23.4702 9.91092 23.3962 9.84774 23.3088 9.80804L15.7069 6.35292C15.6399 6.32244 15.5668 6.30664 15.4928 6.30664C15.4188 6.30664 15.3457 6.32244 15.2787 6.35292L7.67683 9.80804C7.58941 9.84776 7.51545 9.91095 7.46363 9.99018C7.41181 10.0694 7.38428 10.1614 7.38428 10.2554C7.38428 10.3493 7.41181 10.4413 7.46363 10.5205C7.51545 10.5998 7.58941 10.663 7.67683 10.7027L10.4249 11.9515V17.6592C10.4249 17.7901 10.4783 17.9157 10.5733 18.0082C10.6684 18.1008 10.7973 18.1528 10.9317 18.1528H20.0539C20.1883 18.1528 20.3172 18.1008 20.4123 18.0082C20.5073 17.9157 20.5607 17.7901 20.5607 17.6592V11.9515L22.5879 11.0303V12.8085C22.2497 12.9249 21.9648 13.154 21.7833 13.4553C21.6018 13.7566 21.5355 14.1107 21.5962 14.4549C21.6568 14.7992 21.8405 15.1115 22.1147 15.3367C22.3889 15.5618 22.736 15.6853 23.0947 15.6853C23.4533 15.6853 23.8004 15.5618 24.0746 15.3367C24.3488 15.1115 24.5325 14.7992 24.5931 14.4549C24.6538 14.1107 24.5875 13.7566 24.4061 13.4553C24.2246 13.154 23.9396 12.9249 23.6015 12.8085ZM19.5471 17.1656H11.4385V12.4123L15.2787 14.1578C15.3457 14.1883 15.4188 14.2041 15.4928 14.2041C15.5668 14.2041 15.6399 14.1883 15.7069 14.1578L19.5471 12.4123V17.1656ZM15.4928 13.1657L9.08951 10.2554L15.4928 7.34503L21.8961 10.2554L15.4928 13.1657ZM23.0947 14.6977C22.9944 14.6977 22.8965 14.6687 22.8131 14.6145C22.7298 14.5602 22.6648 14.4832 22.6265 14.393C22.5881 14.3028 22.5781 14.2035 22.5976 14.1078C22.6172 14.012 22.6654 13.9241 22.7363 13.8551C22.8072 13.786 22.8975 13.739 22.9958 13.72C23.0941 13.7009 23.196 13.7107 23.2886 13.7481C23.3812 13.7854 23.4604 13.8487 23.516 13.9299C23.5717 14.011 23.6015 14.1065 23.6015 14.2041C23.6013 14.3349 23.5478 14.4604 23.4528 14.5529C23.3578 14.6454 23.229 14.6975 23.0947 14.6977V14.6977Z" fill="#FF3126"/>
</svg>
