<svg width="28" height="18" viewBox="0 0 28 18" fill="none" xmlns="http://www.w3.org/2000/svg">
<path d="M6.1 0L9.9 2.46035C8.1 3.99123 6.9 5.4401 6.3 6.80696C5.7 8.11915 5.4 9.45868 5.4 10.8255L3 9.43133H10.3V17.9605H0V11.9737C0 9.73205 0.433334 7.65442 1.3 5.74082C2.23333 3.77254 3.83333 1.85893 6.1 0ZM22.9 0L26.7 2.46035C24.9 3.99123 23.7 5.4401 23.1 6.80696C22.5 8.11915 22.2 9.45868 22.2 10.8255L19.8 9.43133H27.1V17.9605H16.8V11.9737C16.8 9.73205 17.2333 7.65442 18.1 5.74082C19.0333 3.77254 20.6333 1.85893 22.9 0Z" fill="#999999"/>
</svg>
