<svg width="24" height="24" viewBox="0 0 24 24" fill="none" xmlns="http://www.w3.org/2000/svg">
<rect width="24" height="24" fill="white"/>
<path fill-rule="evenodd" clip-rule="evenodd" d="M13.3129 1.92499C12.7321 1.92499 12.1795 2.00278 11.6555 2.15871C11.1327 2.31428 10.6389 2.53351 10.1741 2.8164L10.1723 2.81759C9.73641 3.10057 9.34404 3.43315 8.99529 3.81526C8.66117 4.18132 8.38046 4.5926 8.15311 5.04881C7.96725 4.97508 7.77005 4.91288 7.56158 4.86213C7.32632 4.80485 7.09076 4.77614 6.85499 4.77614C6.4743 4.77614 6.12131 4.83319 5.79669 4.94816C5.47196 5.06316 5.17682 5.23568 4.91158 5.4653C4.6471 5.69425 4.42656 5.95914 4.25019 6.25973C4.08104 6.54801 3.96577 6.85617 3.9045 7.18387C3.48277 7.32542 3.08837 7.52683 2.72148 7.78794C2.34281 8.05744 2.02154 8.36295 1.75834 8.70472L1.75668 8.70706C1.49393 9.07667 1.28967 9.48171 1.14387 9.9219C0.997895 10.3626 0.924805 10.8108 0.924805 11.2662C0.924805 11.8908 1.04145 12.4673 1.27568 12.9948C1.50895 13.5201 1.82981 13.9819 2.23806 14.3798C2.61892 14.7789 3.08688 15.0918 3.64063 15.3189C4.1952 15.5463 4.77892 15.6599 5.39119 15.6599H10.2451V14.7971H5.39119C4.88429 14.7971 4.41389 14.7012 3.97912 14.51C3.54161 14.3175 3.16902 14.0708 2.86035 13.7702C2.52283 13.4415 2.26303 13.0652 2.08043 12.6412C1.89817 12.2179 1.8067 11.7599 1.8067 11.2662C1.8067 10.9109 1.86282 10.5551 1.97543 10.1987C2.08751 9.84393 2.25563 9.53136 2.47885 9.25962L2.48333 9.25275C2.67929 8.95286 2.92425 8.69377 3.21866 8.47531C3.51278 8.25707 3.8422 8.09342 4.20731 7.98401L4.6815 7.79929L4.77611 7.34008L4.77687 7.33344C4.80438 7.09229 4.87997 6.86455 5.00408 6.64966C5.12804 6.43505 5.28587 6.262 5.47724 6.12888L5.48231 6.12465C5.67631 5.9627 5.89075 5.84149 6.12595 5.76064C6.36206 5.67949 6.60496 5.63893 6.85499 5.63893C7.02313 5.63893 7.19132 5.65257 7.35961 5.67989C7.52317 5.70644 7.6721 5.75954 7.80726 5.83851L8.57077 6.2103L8.90345 5.46973C9.101 5.05767 9.35481 4.68701 9.66499 4.35747C9.97543 4.02765 10.3282 3.75313 10.7233 3.53327L10.7286 3.52968C11.095 3.28268 11.4967 3.09731 11.9341 2.97363C12.372 2.84982 12.8315 2.78778 13.3129 2.78778C13.9924 2.78778 14.6283 2.9118 15.2214 3.15935C15.8152 3.40718 16.323 3.75101 16.7461 4.19047L16.7496 4.19374C17.2009 4.60576 17.5536 5.10024 17.8079 5.678C18.0618 6.25504 18.189 6.87432 18.189 7.53527V7.7005L18.1413 8.49008H18.9959C19.4458 8.49008 19.8664 8.57218 20.2586 8.73587C20.6509 8.89963 20.9864 9.13126 21.2659 9.43068L21.2684 9.43317C21.5481 9.70554 21.7723 10.0328 21.9409 10.4159C22.1088 10.7973 22.1929 11.2063 22.1929 11.6436C22.1929 12.0809 22.1088 12.4899 21.9409 12.8712C21.7723 13.2544 21.5481 13.5816 21.2684 13.854C20.9882 14.1269 20.6513 14.3528 20.2566 14.5312C19.8649 14.7084 19.4449 14.7971 18.9959 14.7971H13.7545V15.6599H18.9959C19.5511 15.6599 20.0779 15.5531 20.5754 15.3393C21.0716 15.1261 21.5099 14.8345 21.8897 14.4646C22.2699 14.0943 22.5627 13.6667 22.7675 13.1822C22.9725 12.6975 23.0748 12.1844 23.0748 11.6436C23.0748 11.1028 22.9725 10.583 22.7678 10.0847C22.5631 9.58617 22.27 9.16471 21.8886 8.82152C21.509 8.4521 21.0711 8.16085 20.5754 7.94785C20.1003 7.74373 19.5986 7.63665 19.0709 7.62744V7.53458C19.0709 6.76955 18.9181 6.03948 18.6125 5.34504C18.3074 4.65171 17.8928 4.06326 17.3684 3.58074C16.845 3.07123 16.2347 2.66809 15.538 2.37124C14.8395 2.07364 14.0976 1.92499 13.3129 1.92499ZM12.4408 11.1912H11.5589V20.4805L9.2229 18.2056L8.5984 18.8138L12.0217 22.1043L15.4008 18.8134L14.7767 18.2056L12.4408 20.4805V11.1912Z" fill="#FF3126"/>
</svg>
