<svg width="28" height="19" viewBox="0 0 28 19" fill="none" xmlns="http://www.w3.org/2000/svg">
<path d="M21.0001 18.7266L17.2001 16.2662C19.0001 14.7353 20.2001 13.2865 20.8001 11.9196C21.4001 10.6074 21.7001 9.26789 21.7001 7.90103L24.1001 9.29523L16.8001 9.29523L16.8001 0.766017L27.1001 0.766018L27.1001 6.75287C27.1001 8.99452 26.6668 11.0721 25.8001 12.9857C24.8668 14.954 23.2668 16.8676 21.0001 18.7266ZM4.2001 18.7266L0.400095 16.2662C2.2001 14.7353 3.4001 13.2865 4.0001 11.9196C4.6001 10.6074 4.9001 9.26789 4.9001 7.90103L7.3001 9.29523L9.82801e-05 9.29523L9.91893e-05 0.766016L10.3001 0.766017L10.3001 6.75287C10.3001 8.99452 9.86676 11.0721 9.0001 12.9857C8.06677 14.954 6.46676 16.8676 4.2001 18.7266Z" fill="#999999"/>
</svg>
