<svg width="40" height="40" viewBox="0 0 40 40" fill="none" xmlns="http://www.w3.org/2000/svg">
<rect width="40" height="40" fill="white"/>
<mask id="path-1-outside-1" maskUnits="userSpaceOnUse" x="6" y="1" width="28" height="38" fill="black">
<rect fill="white" x="6" y="1" width="28" height="38"/>
<path d="M31.9155 15.4542C31.9155 14.9939 32.117 14.4607 32.3304 13.8963C32.6525 13.0442 32.9856 12.163 32.704 11.2958C32.4106 10.3923 31.5676 9.84317 30.8239 9.35848C30.3354 9.04022 29.874 8.73967 29.6226 8.39418C29.3658 8.0414 29.2198 7.50412 29.0652 6.93533C28.8341 6.08465 28.572 5.12049 27.8144 4.56913C27.0644 4.02335 26.1141 4.06815 25.1954 4.11146C24.6018 4.13947 24.0413 4.16591 23.6175 4.02828C23.2232 3.90023 22.8015 3.55939 22.3551 3.19853C21.6599 2.63689 20.872 2 19.905 2C18.938 2 18.1501 2.63689 17.4549 3.19882C17.0085 3.5596 16.5868 3.90045 16.1926 4.0285C15.7689 4.16612 15.2082 4.13961 14.6147 4.11167C13.6959 4.0683 12.7456 4.0235 11.9956 4.56935C11.238 5.1207 10.976 6.08486 10.7448 6.93555C10.5902 7.50434 10.4442 8.04162 10.1874 8.3944C9.93605 8.73981 9.47458 9.04043 8.98611 9.3587C8.24232 9.84324 7.39935 10.3925 7.1061 11.2959C6.82449 12.1631 7.15755 13.0443 7.47967 13.8964C7.69297 14.4609 7.89447 14.994 7.89447 15.4543C7.89447 15.9147 7.69297 16.4478 7.4796 17.0122C7.15747 17.8644 6.82442 18.7456 7.10603 19.6128C7.39943 20.5162 8.24239 21.0654 8.98611 21.55C9.47458 21.8682 9.93605 22.1689 10.1874 22.5143C10.4442 22.867 10.5902 23.4044 10.7448 23.9731C10.9759 24.8238 11.238 25.788 11.9956 26.3393C12.7456 26.8851 13.6958 26.8403 14.6146 26.797C15.2081 26.7689 15.7687 26.7425 16.1925 26.8802C16.5868 27.0082 17.0085 27.3491 17.4549 27.7099C17.7909 27.9814 18.1488 28.2698 18.5377 28.4961L16.2321 36.7663L14.1043 34.3951C13.9481 34.2211 13.7052 34.1534 13.4814 34.2214L10.4349 35.1498L12.345 28.3C12.4342 27.9801 12.2472 27.6485 11.9272 27.5592C11.6072 27.4701 11.2756 27.657 11.1865 27.9769L8.98168 35.8832C8.92273 36.0947 8.98368 36.3216 9.14081 36.475C9.29794 36.6285 9.52632 36.684 9.73626 36.62L13.4651 35.4837L16.0692 38.3858C16.1847 38.5144 16.3482 38.5855 16.5168 38.5855C16.5623 38.5855 16.6083 38.5803 16.6538 38.5697C16.8676 38.5197 17.0371 38.3571 17.0962 38.1456L19.6749 28.8949C19.7505 28.9028 19.8269 28.9082 19.9049 28.9082C19.9826 28.9082 20.059 28.9027 20.1345 28.8949L22.7143 38.1456C22.7732 38.3571 22.9429 38.5197 23.1566 38.5697C23.2021 38.5803 23.248 38.5855 23.2935 38.5855C23.4622 38.5855 23.6257 38.5144 23.7412 38.3857L26.3444 35.4836L30.074 36.6199C30.284 36.6838 30.5122 36.6283 30.6694 36.4749C30.8265 36.3214 30.8875 36.0946 30.8285 35.8831L28.0979 26.0901C28.6422 25.5252 28.8655 24.707 29.065 23.9728C29.2196 23.404 29.3656 22.8667 29.6224 22.5139C29.8737 22.1685 30.3352 21.8679 30.8237 21.5496C31.5675 21.0651 32.4104 20.5159 32.7037 19.6125C32.9853 18.7453 32.6522 17.8641 32.3301 17.0119C32.117 16.4476 31.9155 15.9146 31.9155 15.4542ZM29.3756 35.1498L26.3282 34.2214C26.1044 34.1531 25.8614 34.221 25.7052 34.3951L23.5782 36.7663L21.2718 28.496C21.661 28.2697 22.019 27.9812 22.3551 27.7096C22.8014 27.3488 23.2231 27.008 23.6175 26.8798C24.0413 26.7422 24.6019 26.7687 25.1954 26.7966C25.8133 26.8258 26.4451 26.8548 27.021 26.7052L29.3756 35.1498ZM31.56 19.2413C31.3979 19.7404 30.8002 20.1299 30.1673 20.5422C29.6091 20.9059 29.0318 21.2819 28.6501 21.8065C28.2631 22.3382 28.0808 23.009 27.9045 23.6576C27.708 24.3811 27.5223 25.0643 27.1067 25.3668C26.6985 25.6637 25.996 25.6306 25.252 25.5955C24.5768 25.5638 23.8786 25.5307 23.246 25.7362C22.64 25.9329 22.1108 26.3607 21.599 26.7744C21.0063 27.2535 20.4467 27.7058 19.905 27.7058C19.3633 27.7058 18.8035 27.2533 18.2109 26.7743C17.6991 26.3606 17.1698 25.9327 16.5639 25.7361C16.1649 25.6065 15.7398 25.5718 15.3109 25.5718C15.0598 25.5718 14.8073 25.5837 14.558 25.5955C13.8141 25.6306 13.1115 25.6637 12.7033 25.3667C12.2877 25.0643 12.102 24.381 11.9054 23.6576C11.7292 23.0089 11.5469 22.3381 11.1599 21.8064C10.7783 21.2819 10.2011 20.9059 9.64272 20.5421C9.00983 20.1298 8.4121 19.7403 8.25004 19.2412C8.09891 18.7757 8.34465 18.1256 8.60475 17.4374C8.84691 16.7967 9.09729 16.1343 9.09729 15.4543C9.09729 14.7744 8.84691 14.1118 8.60482 13.4713C8.34465 12.7831 8.09898 12.133 8.25011 11.6674C8.41217 11.1683 9.0099 10.7789 9.64279 10.3666C10.201 10.0029 10.7783 9.6268 11.16 9.10238C11.547 8.57068 11.7293 7.89992 11.9055 7.25124C12.1021 6.52782 12.2878 5.84463 12.7034 5.54208C13.1115 5.24511 13.8143 5.27819 14.5581 5.31335C15.2332 5.34515 15.9314 5.37816 16.5641 5.17272C17.1701 4.97593 17.6993 4.5482 18.2111 4.13454C18.8036 3.65535 19.3634 3.20289 19.905 3.20289C20.4467 3.20289 21.0065 3.65535 21.599 4.13425C22.1108 4.54798 22.6402 4.97579 23.246 5.17251C23.8787 5.37795 24.5768 5.34508 25.252 5.31314C25.9958 5.27812 26.6985 5.24497 27.1066 5.54187C27.5222 5.84434 27.7079 6.5276 27.9045 7.25103C28.0807 7.8997 28.263 8.57053 28.65 9.10217C29.0316 9.62666 29.6088 10.0027 30.1671 10.3664C30.8 10.7787 31.3978 11.1681 31.5599 11.6673C31.711 12.1328 31.4654 12.7829 31.2052 13.4711C30.963 14.1117 30.7126 14.7742 30.7126 15.4542C30.7126 16.1342 30.9632 16.7966 31.2053 17.4372C31.4654 18.1255 31.7112 18.7756 31.56 19.2413Z"/>
</mask>
<path d="M31.9155 15.4542C31.9155 14.9939 32.117 14.4607 32.3304 13.8963C32.6525 13.0442 32.9856 12.163 32.704 11.2958C32.4106 10.3923 31.5676 9.84317 30.8239 9.35848C30.3354 9.04022 29.874 8.73967 29.6226 8.39418C29.3658 8.0414 29.2198 7.50412 29.0652 6.93533C28.8341 6.08465 28.572 5.12049 27.8144 4.56913C27.0644 4.02335 26.1141 4.06815 25.1954 4.11146C24.6018 4.13947 24.0413 4.16591 23.6175 4.02828C23.2232 3.90023 22.8015 3.55939 22.3551 3.19853C21.6599 2.63689 20.872 2 19.905 2C18.938 2 18.1501 2.63689 17.4549 3.19882C17.0085 3.5596 16.5868 3.90045 16.1926 4.0285C15.7689 4.16612 15.2082 4.13961 14.6147 4.11167C13.6959 4.0683 12.7456 4.0235 11.9956 4.56935C11.238 5.1207 10.976 6.08486 10.7448 6.93555C10.5902 7.50434 10.4442 8.04162 10.1874 8.3944C9.93605 8.73981 9.47458 9.04043 8.98611 9.3587C8.24232 9.84324 7.39935 10.3925 7.1061 11.2959C6.82449 12.1631 7.15755 13.0443 7.47967 13.8964C7.69297 14.4609 7.89447 14.994 7.89447 15.4543C7.89447 15.9147 7.69297 16.4478 7.4796 17.0122C7.15747 17.8644 6.82442 18.7456 7.10603 19.6128C7.39943 20.5162 8.24239 21.0654 8.98611 21.55C9.47458 21.8682 9.93605 22.1689 10.1874 22.5143C10.4442 22.867 10.5902 23.4044 10.7448 23.9731C10.9759 24.8238 11.238 25.788 11.9956 26.3393C12.7456 26.8851 13.6958 26.8403 14.6146 26.797C15.2081 26.7689 15.7687 26.7425 16.1925 26.8802C16.5868 27.0082 17.0085 27.3491 17.4549 27.7099C17.7909 27.9814 18.1488 28.2698 18.5377 28.4961L16.2321 36.7663L14.1043 34.3951C13.9481 34.2211 13.7052 34.1534 13.4814 34.2214L10.4349 35.1498L12.345 28.3C12.4342 27.9801 12.2472 27.6485 11.9272 27.5592C11.6072 27.4701 11.2756 27.657 11.1865 27.9769L8.98168 35.8832C8.92273 36.0947 8.98368 36.3216 9.14081 36.475C9.29794 36.6285 9.52632 36.684 9.73626 36.62L13.4651 35.4837L16.0692 38.3858C16.1847 38.5144 16.3482 38.5855 16.5168 38.5855C16.5623 38.5855 16.6083 38.5803 16.6538 38.5697C16.8676 38.5197 17.0371 38.3571 17.0962 38.1456L19.6749 28.8949C19.7505 28.9028 19.8269 28.9082 19.9049 28.9082C19.9826 28.9082 20.059 28.9027 20.1345 28.8949L22.7143 38.1456C22.7732 38.3571 22.9429 38.5197 23.1566 38.5697C23.2021 38.5803 23.248 38.5855 23.2935 38.5855C23.4622 38.5855 23.6257 38.5144 23.7412 38.3857L26.3444 35.4836L30.074 36.6199C30.284 36.6838 30.5122 36.6283 30.6694 36.4749C30.8265 36.3214 30.8875 36.0946 30.8285 35.8831L28.0979 26.0901C28.6422 25.5252 28.8655 24.707 29.065 23.9728C29.2196 23.404 29.3656 22.8667 29.6224 22.5139C29.8737 22.1685 30.3352 21.8679 30.8237 21.5496C31.5675 21.0651 32.4104 20.5159 32.7037 19.6125C32.9853 18.7453 32.6522 17.8641 32.3301 17.0119C32.117 16.4476 31.9155 15.9146 31.9155 15.4542ZM29.3756 35.1498L26.3282 34.2214C26.1044 34.1531 25.8614 34.221 25.7052 34.3951L23.5782 36.7663L21.2718 28.496C21.661 28.2697 22.019 27.9812 22.3551 27.7096C22.8014 27.3488 23.2231 27.008 23.6175 26.8798C24.0413 26.7422 24.6019 26.7687 25.1954 26.7966C25.8133 26.8258 26.4451 26.8548 27.021 26.7052L29.3756 35.1498ZM31.56 19.2413C31.3979 19.7404 30.8002 20.1299 30.1673 20.5422C29.6091 20.9059 29.0318 21.2819 28.6501 21.8065C28.2631 22.3382 28.0808 23.009 27.9045 23.6576C27.708 24.3811 27.5223 25.0643 27.1067 25.3668C26.6985 25.6637 25.996 25.6306 25.252 25.5955C24.5768 25.5638 23.8786 25.5307 23.246 25.7362C22.64 25.9329 22.1108 26.3607 21.599 26.7744C21.0063 27.2535 20.4467 27.7058 19.905 27.7058C19.3633 27.7058 18.8035 27.2533 18.2109 26.7743C17.6991 26.3606 17.1698 25.9327 16.5639 25.7361C16.1649 25.6065 15.7398 25.5718 15.3109 25.5718C15.0598 25.5718 14.8073 25.5837 14.558 25.5955C13.8141 25.6306 13.1115 25.6637 12.7033 25.3667C12.2877 25.0643 12.102 24.381 11.9054 23.6576C11.7292 23.0089 11.5469 22.3381 11.1599 21.8064C10.7783 21.2819 10.2011 20.9059 9.64272 20.5421C9.00983 20.1298 8.4121 19.7403 8.25004 19.2412C8.09891 18.7757 8.34465 18.1256 8.60475 17.4374C8.84691 16.7967 9.09729 16.1343 9.09729 15.4543C9.09729 14.7744 8.84691 14.1118 8.60482 13.4713C8.34465 12.7831 8.09898 12.133 8.25011 11.6674C8.41217 11.1683 9.0099 10.7789 9.64279 10.3666C10.201 10.0029 10.7783 9.6268 11.16 9.10238C11.547 8.57068 11.7293 7.89992 11.9055 7.25124C12.1021 6.52782 12.2878 5.84463 12.7034 5.54208C13.1115 5.24511 13.8143 5.27819 14.5581 5.31335C15.2332 5.34515 15.9314 5.37816 16.5641 5.17272C17.1701 4.97593 17.6993 4.5482 18.2111 4.13454C18.8036 3.65535 19.3634 3.20289 19.905 3.20289C20.4467 3.20289 21.0065 3.65535 21.599 4.13425C22.1108 4.54798 22.6402 4.97579 23.246 5.17251C23.8787 5.37795 24.5768 5.34508 25.252 5.31314C25.9958 5.27812 26.6985 5.24497 27.1066 5.54187C27.5222 5.84434 27.7079 6.5276 27.9045 7.25103C28.0807 7.8997 28.263 8.57053 28.65 9.10217C29.0316 9.62666 29.6088 10.0027 30.1671 10.3664C30.8 10.7787 31.3978 11.1681 31.5599 11.6673C31.711 12.1328 31.4654 12.7829 31.2052 13.4711C30.963 14.1117 30.7126 14.7742 30.7126 15.4542C30.7126 16.1342 30.9632 16.7966 31.2053 17.4372C31.4654 18.1255 31.7112 18.7756 31.56 19.2413Z" fill="#999999"/>
<path d="M31.9155 15.4542C31.9155 14.9939 32.117 14.4607 32.3304 13.8963C32.6525 13.0442 32.9856 12.163 32.704 11.2958C32.4106 10.3923 31.5676 9.84317 30.8239 9.35848C30.3354 9.04022 29.874 8.73967 29.6226 8.39418C29.3658 8.0414 29.2198 7.50412 29.0652 6.93533C28.8341 6.08465 28.572 5.12049 27.8144 4.56913C27.0644 4.02335 26.1141 4.06815 25.1954 4.11146C24.6018 4.13947 24.0413 4.16591 23.6175 4.02828C23.2232 3.90023 22.8015 3.55939 22.3551 3.19853C21.6599 2.63689 20.872 2 19.905 2C18.938 2 18.1501 2.63689 17.4549 3.19882C17.0085 3.5596 16.5868 3.90045 16.1926 4.0285C15.7689 4.16612 15.2082 4.13961 14.6147 4.11167C13.6959 4.0683 12.7456 4.0235 11.9956 4.56935C11.238 5.1207 10.976 6.08486 10.7448 6.93555C10.5902 7.50434 10.4442 8.04162 10.1874 8.3944C9.93605 8.73981 9.47458 9.04043 8.98611 9.3587C8.24232 9.84324 7.39935 10.3925 7.1061 11.2959C6.82449 12.1631 7.15755 13.0443 7.47967 13.8964C7.69297 14.4609 7.89447 14.994 7.89447 15.4543C7.89447 15.9147 7.69297 16.4478 7.4796 17.0122C7.15747 17.8644 6.82442 18.7456 7.10603 19.6128C7.39943 20.5162 8.24239 21.0654 8.98611 21.55C9.47458 21.8682 9.93605 22.1689 10.1874 22.5143C10.4442 22.867 10.5902 23.4044 10.7448 23.9731C10.9759 24.8238 11.238 25.788 11.9956 26.3393C12.7456 26.8851 13.6958 26.8403 14.6146 26.797C15.2081 26.7689 15.7687 26.7425 16.1925 26.8802C16.5868 27.0082 17.0085 27.3491 17.4549 27.7099C17.7909 27.9814 18.1488 28.2698 18.5377 28.4961L16.2321 36.7663L14.1043 34.3951C13.9481 34.2211 13.7052 34.1534 13.4814 34.2214L10.4349 35.1498L12.345 28.3C12.4342 27.9801 12.2472 27.6485 11.9272 27.5592C11.6072 27.4701 11.2756 27.657 11.1865 27.9769L8.98168 35.8832C8.92273 36.0947 8.98368 36.3216 9.14081 36.475C9.29794 36.6285 9.52632 36.684 9.73626 36.62L13.4651 35.4837L16.0692 38.3858C16.1847 38.5144 16.3482 38.5855 16.5168 38.5855C16.5623 38.5855 16.6083 38.5803 16.6538 38.5697C16.8676 38.5197 17.0371 38.3571 17.0962 38.1456L19.6749 28.8949C19.7505 28.9028 19.8269 28.9082 19.9049 28.9082C19.9826 28.9082 20.059 28.9027 20.1345 28.8949L22.7143 38.1456C22.7732 38.3571 22.9429 38.5197 23.1566 38.5697C23.2021 38.5803 23.248 38.5855 23.2935 38.5855C23.4622 38.5855 23.6257 38.5144 23.7412 38.3857L26.3444 35.4836L30.074 36.6199C30.284 36.6838 30.5122 36.6283 30.6694 36.4749C30.8265 36.3214 30.8875 36.0946 30.8285 35.8831L28.0979 26.0901C28.6422 25.5252 28.8655 24.707 29.065 23.9728C29.2196 23.404 29.3656 22.8667 29.6224 22.5139C29.8737 22.1685 30.3352 21.8679 30.8237 21.5496C31.5675 21.0651 32.4104 20.5159 32.7037 19.6125C32.9853 18.7453 32.6522 17.8641 32.3301 17.0119C32.117 16.4476 31.9155 15.9146 31.9155 15.4542ZM29.3756 35.1498L26.3282 34.2214C26.1044 34.1531 25.8614 34.221 25.7052 34.3951L23.5782 36.7663L21.2718 28.496C21.661 28.2697 22.019 27.9812 22.3551 27.7096C22.8014 27.3488 23.2231 27.008 23.6175 26.8798C24.0413 26.7422 24.6019 26.7687 25.1954 26.7966C25.8133 26.8258 26.4451 26.8548 27.021 26.7052L29.3756 35.1498ZM31.56 19.2413C31.3979 19.7404 30.8002 20.1299 30.1673 20.5422C29.6091 20.9059 29.0318 21.2819 28.6501 21.8065C28.2631 22.3382 28.0808 23.009 27.9045 23.6576C27.708 24.3811 27.5223 25.0643 27.1067 25.3668C26.6985 25.6637 25.996 25.6306 25.252 25.5955C24.5768 25.5638 23.8786 25.5307 23.246 25.7362C22.64 25.9329 22.1108 26.3607 21.599 26.7744C21.0063 27.2535 20.4467 27.7058 19.905 27.7058C19.3633 27.7058 18.8035 27.2533 18.2109 26.7743C17.6991 26.3606 17.1698 25.9327 16.5639 25.7361C16.1649 25.6065 15.7398 25.5718 15.3109 25.5718C15.0598 25.5718 14.8073 25.5837 14.558 25.5955C13.8141 25.6306 13.1115 25.6637 12.7033 25.3667C12.2877 25.0643 12.102 24.381 11.9054 23.6576C11.7292 23.0089 11.5469 22.3381 11.1599 21.8064C10.7783 21.2819 10.2011 20.9059 9.64272 20.5421C9.00983 20.1298 8.4121 19.7403 8.25004 19.2412C8.09891 18.7757 8.34465 18.1256 8.60475 17.4374C8.84691 16.7967 9.09729 16.1343 9.09729 15.4543C9.09729 14.7744 8.84691 14.1118 8.60482 13.4713C8.34465 12.7831 8.09898 12.133 8.25011 11.6674C8.41217 11.1683 9.0099 10.7789 9.64279 10.3666C10.201 10.0029 10.7783 9.6268 11.16 9.10238C11.547 8.57068 11.7293 7.89992 11.9055 7.25124C12.1021 6.52782 12.2878 5.84463 12.7034 5.54208C13.1115 5.24511 13.8143 5.27819 14.5581 5.31335C15.2332 5.34515 15.9314 5.37816 16.5641 5.17272C17.1701 4.97593 17.6993 4.5482 18.2111 4.13454C18.8036 3.65535 19.3634 3.20289 19.905 3.20289C20.4467 3.20289 21.0065 3.65535 21.599 4.13425C22.1108 4.54798 22.6402 4.97579 23.246 5.17251C23.8787 5.37795 24.5768 5.34508 25.252 5.31314C25.9958 5.27812 26.6985 5.24497 27.1066 5.54187C27.5222 5.84434 27.7079 6.5276 27.9045 7.25103C28.0807 7.8997 28.263 8.57053 28.65 9.10217C29.0316 9.62666 29.6088 10.0027 30.1671 10.3664C30.8 10.7787 31.3978 11.1681 31.5599 11.6673C31.711 12.1328 31.4654 12.7829 31.2052 13.4711C30.963 14.1117 30.7126 14.7742 30.7126 15.4542C30.7126 16.1342 30.9632 16.7966 31.2053 17.4372C31.4654 18.1255 31.7112 18.7756 31.56 19.2413Z" stroke="#999999" stroke-width="0.5" mask="url(#path-1-outside-1)"/>
</svg>
