<?xml version="1.0" encoding="UTF-8"?>
<svg width="15px" height="8px" viewBox="0 0 15 8" version="1.1" xmlns="http://www.w3.org/2000/svg" xmlns:xlink="http://www.w3.org/1999/xlink">
    <!-- Generator: Sketch 51.2 (57519) - http://www.bohemiancoding.com/sketch -->
    <desc>Created with Sketch.</desc>
    <g id="Page-1" stroke="none" stroke-width="1" fill="none" fill-rule="evenodd">
        <g id="icon-caret-down-blue" fill="#1173AF" fill-rule="nonzero">
            <path d="M7.74876628,7.95042715 C7.53068463,7.96489883 7.31603818,7.89067054 7.15396063,7.74473351 L0.701831521,1.9654709 C0.487488588,1.77370435 0.392233609,1.48269245 0.451953009,1.20207123 C0.511672409,0.921450001 0.717291942,0.693859283 0.991346371,0.60504175 C1.2654008,0.516224217 1.5662481,0.579675516 1.78054686,0.771490963 L7.69331023,6.06914822 L13.6060881,0.771490963 C13.8203869,0.579675516 14.1212342,0.516224217 14.3952886,0.60504175 C14.669343,0.693859283 14.8749626,0.921450001 14.934682,1.20207123 C14.9944014,1.48269245 14.8991464,1.77370435 14.6848035,1.9654709 L8.23267435,7.74473351 C8.09901018,7.86520622 7.92863726,7.93762624 7.74876628,7.95042715 Z" id="Shape"></path>
        </g>
    </g>
</svg>