<svg width="32" height="32" viewBox="0 0 32 32" fill="none" xmlns="http://www.w3.org/2000/svg">
<g clip-path="url(#clip0)">
<path d="M10.7249 9.34375C10.7249 11.6277 10.556 15.2598 10.6601 17.3032C10.6959 18.004 27.7156 17.8099 27.7156 17.3032C27.7156 16.7964 27.7156 10.2573 27.7156 9.34375" stroke="#FF3126"/>
<path d="M17.154 9.8026C17.154 9.8026 9.34763 9.8026 9.34749 8.88903C9.34734 7.86764 9.20585 3.55112 9.6416 3.407C10.0774 3.26288 16.9192 3.34913 22.6645 3.40788C24.0421 3.40788 28.3019 3.40788 29.0002 3.62306C29.0002 3.62306 29.0002 8.75296 29.0002 9.19659C29.0002 9.70333 23.8077 9.65065 21.3586 9.8026M17.154 9.8026C17.154 9.8026 17.1541 11.172 17.1541 11.6288C17.1541 11.7309 20.8277 11.6288 21.2869 11.6288C21.3564 11.6288 21.3586 10.2584 21.3586 9.8026M17.154 9.8026C17.1541 8.88807 17.0585 7.97546 17.2831 7.97546C17.3748 7.97546 21.2444 7.97546 21.2444 7.97546C21.4079 7.97546 21.3586 9.34582 21.3586 9.8026" stroke="#FF3126"/>
<path d="M18.0723 28.9895L17.915 28.5149L18.0723 28.9895ZM10.2658 29.4014L10.2263 29.8998L10.2658 29.4014ZM6.59209 31.9996L6.23948 32.3541L6.38576 32.4996H6.59209V31.9996ZM11.6434 21.2242L11.5615 20.731L11.6434 21.2242ZM20.8276 23.0513L21.1802 23.4058L20.8276 23.0513ZM13.021 23.4649C12.7449 23.4649 12.521 23.6888 12.521 23.9649C12.521 24.241 12.7449 24.4649 13.021 24.4649V23.4649ZM25.8789 20.7225L25.7422 20.2416L25.8789 20.7225ZM21.2868 21.4083L20.8126 21.567L20.8548 21.6929L20.9539 21.7813L21.2868 21.4083ZM2.29477 27.725L1.94215 28.0795L2.29477 27.725ZM28.1341 22.5497C28.1341 22.6715 28.0688 22.87 27.8448 23.153C27.6268 23.4284 27.2983 23.7333 26.8738 24.058C26.0262 24.7064 24.8658 25.3813 23.6414 26.01C21.194 27.2666 18.5773 28.2953 17.915 28.5149L18.2297 29.4641C18.945 29.2269 21.6091 28.1776 24.0982 26.8995C25.3421 26.2608 26.5638 25.5542 27.4814 24.8523C27.9394 24.5019 28.3392 24.1396 28.6288 23.7737C28.9124 23.4155 29.1341 22.9988 29.1341 22.5497H28.1341ZM17.915 28.5149C17.5902 28.6226 16.938 28.7091 16.0898 28.7698C15.2614 28.829 14.3017 28.8606 13.3992 28.8772C12.4977 28.8938 11.6585 28.8954 11.0719 28.895C10.7801 28.8948 10.5472 28.8941 10.4035 28.8946C10.3352 28.8949 10.2753 28.8954 10.2391 28.897C10.2313 28.8973 10.2121 28.8982 10.1909 28.9006C10.1867 28.9011 10.1506 28.9047 10.1076 28.9169C10.1024 28.9184 10.0132 28.9404 9.92648 29.0115C9.87395 29.0613 9.77693 29.2182 9.74843 29.3274C9.74633 29.4528 9.81528 29.6567 9.86931 29.7302C9.90802 29.7693 9.97881 29.8227 10.0081 29.8397C10.0279 29.8497 10.0622 29.8646 10.0767 29.87C10.1054 29.8802 10.1288 29.8855 10.1387 29.8876C10.1606 29.8924 10.1785 29.8948 10.1852 29.8957C10.2016 29.8978 10.2169 29.8991 10.2263 29.8998L10.3052 28.9029C10.3003 28.9025 10.3049 28.9028 10.3138 28.904C10.3168 28.9043 10.3319 28.9063 10.3517 28.9106C10.3606 28.9125 10.3832 28.9176 10.4113 28.9276C10.4255 28.9329 10.4596 28.9477 10.4792 28.9576C10.5083 28.9744 10.5789 29.0278 10.6175 29.0668C10.6715 29.1401 10.7404 29.344 10.7383 29.4693C10.7098 29.5784 10.6129 29.7351 10.5605 29.7849C10.474 29.8557 10.3852 29.8776 10.3807 29.8789C10.3389 29.8907 10.3049 29.8941 10.3036 29.8942C10.2882 29.896 10.2781 29.8962 10.2824 29.896C10.2948 29.8955 10.3332 29.8949 10.4072 29.8946C10.5481 29.8941 10.7753 29.8948 11.0712 29.895C11.6599 29.8954 12.5065 29.8938 13.4176 29.8771C14.3275 29.8603 15.3072 29.8283 16.1612 29.7672C16.9955 29.7075 17.7691 29.6168 18.2297 29.4641L17.915 28.5149ZM10.2263 29.8998C10.1629 29.8948 10.0422 29.8718 9.93314 29.7709C9.81566 29.6621 9.78006 29.5269 9.77588 29.4323C9.77215 29.3477 9.79158 29.284 9.801 29.2567C9.8119 29.2251 9.82366 29.2026 9.82957 29.1919C9.84706 29.1601 9.85694 29.1538 9.82758 29.1872C9.78096 29.2402 9.69299 29.3288 9.56503 29.4475C9.31345 29.681 8.94505 29.9961 8.5403 30.3125C8.13454 30.6296 7.703 30.9395 7.32398 31.1674C7.13415 31.2815 6.96663 31.3695 6.8283 31.4276C6.75955 31.4564 6.70357 31.4755 6.6599 31.487C6.63841 31.4927 6.6218 31.4959 6.6097 31.4978C6.59747 31.4996 6.59192 31.4996 6.59209 31.4996V32.4996C6.80713 32.4996 7.02742 32.4285 7.21534 32.3497C7.41362 32.2664 7.62607 32.1526 7.83929 32.0244C8.26639 31.7676 8.73329 31.4308 9.1561 31.1004C9.57993 30.7691 9.97022 30.4357 10.2452 30.1805C10.3806 30.0549 10.4979 29.9392 10.5782 29.8479C10.6123 29.8091 10.6661 29.7457 10.7054 29.6744C10.7146 29.6578 10.7818 29.5433 10.7749 29.3882C10.7705 29.2882 10.7332 29.1488 10.6125 29.0371C10.5003 28.9332 10.3749 28.9084 10.3052 28.9029L10.2263 29.8998ZM6.94471 31.6451L2.64738 27.3705L1.94215 28.0795L6.23948 32.3541L6.94471 31.6451ZM2.57643 27.4819C2.9227 27.1754 3.65946 26.7081 4.39629 26.2542C4.75334 26.0343 5.10573 25.8201 5.38439 25.644C5.52416 25.5557 5.65077 25.4736 5.75416 25.4022C5.84839 25.3371 5.95271 25.2612 6.02629 25.1881L5.32106 24.4791C5.3238 24.4763 5.31575 24.4844 5.28837 24.5055C5.26318 24.5248 5.22932 24.5494 5.18598 24.5793C5.09919 24.6392 4.98591 24.7129 4.85021 24.7986C4.57794 24.9707 4.23711 25.1777 3.87182 25.4028C3.16397 25.8388 2.33958 26.3561 1.91362 26.7331L2.57643 27.4819ZM6.02629 25.1881C6.24832 24.9672 7.03062 24.2002 8.09035 23.4345C9.1599 22.6617 10.462 21.9273 11.7253 21.7175L11.5615 20.731C10.0696 20.9788 8.61637 21.8207 7.50468 22.624C6.38317 23.4343 5.55824 24.2432 5.32106 24.4791L6.02629 25.1881ZM20.475 22.6968C20.4948 22.6771 20.4932 22.6867 20.4344 22.7136C20.3819 22.7377 20.3055 22.7659 20.202 22.7965C19.9949 22.8575 19.7165 22.917 19.3802 22.9735C18.7097 23.0861 17.856 23.1787 16.9833 23.2521C15.2368 23.399 13.4622 23.4649 13.021 23.4649V24.4649C13.4983 24.4649 15.3022 24.397 17.0671 24.2486C17.95 24.1744 18.8352 24.079 19.5458 23.9597C19.9 23.9002 20.2227 23.8329 20.4847 23.7557C20.6157 23.717 20.7409 23.6733 20.8515 23.6225C20.956 23.5746 21.0792 23.5063 21.1802 23.4058L20.475 22.6968ZM29.1341 22.5497C29.1341 21.6139 28.7987 20.8563 28.1272 20.4301C27.4752 20.0163 26.6236 19.9911 25.7422 20.2416L26.0156 21.2035C26.7414 20.9972 27.2674 21.0688 27.5913 21.2744C27.8955 21.4675 28.1341 21.8519 28.1341 22.5497H29.1341ZM11.7253 21.7175C12.8654 21.528 15.1396 21.2341 17.1776 21.1576C18.2 21.1193 19.138 21.1367 19.837 21.2414C20.1885 21.294 20.4514 21.3647 20.6267 21.4452C20.8112 21.5299 20.8195 21.5875 20.8126 21.567L21.7609 21.2496C21.6393 20.8862 21.3322 20.6688 21.0439 20.5364C20.7463 20.3998 20.3787 20.3113 19.985 20.2524C19.1937 20.1339 18.1826 20.1192 17.1401 20.1583C15.0486 20.2368 12.7307 20.5367 11.5615 20.731L11.7253 21.7175ZM20.9539 21.7813C20.9235 21.7542 20.9065 21.7315 20.9032 21.7272C20.8971 21.719 20.8943 21.7143 20.8941 21.714C20.8937 21.7133 20.8981 21.7208 20.9039 21.7363C20.9152 21.7666 20.9291 21.8204 20.9269 21.8952C20.923 22.0322 20.8621 22.3118 20.475 22.6968L21.1802 23.4058C21.7115 22.8773 21.9137 22.3653 21.9265 21.9241C21.9327 21.7098 21.8934 21.5278 21.841 21.3872C21.815 21.3173 21.7849 21.2555 21.7538 21.2031C21.7298 21.1627 21.6852 21.0937 21.6197 21.0352L20.9539 21.7813ZM25.7422 20.2416C23.2306 20.9554 22.1784 20.9083 21.2868 20.9083V21.9083C22.232 21.9083 23.3841 21.9514 26.0156 21.2035L25.7422 20.2416ZM10.6184 29.0469L6.02629 24.4791L5.32106 25.1881L9.91315 29.7559L10.6184 29.0469ZM2.64738 27.3705C2.63005 27.3533 2.62113 27.3398 2.61756 27.3333C2.6139 27.3267 2.61826 27.3319 2.62047 27.3493C2.6229 27.3686 2.6218 27.3972 2.61004 27.4284C2.59818 27.4599 2.5818 27.4772 2.57643 27.4819L1.91362 26.7331C1.69044 26.9307 1.59384 27.2016 1.62836 27.4747C1.65985 27.7239 1.79314 27.9313 1.94215 28.0795L2.64738 27.3705Z" fill="#FF3126"/>
<path d="M22.6644 3.40485C23.1236 2.94806 22.8871 0.393524 22.6644 0.0197925C22.6644 -0.0466469 15.7548 0.0752195 15.7548 0.0752195C15.1794 -0.0159529 14.9497 2.674 15.317 3.40485" stroke="#FF3126"/>
</g>
<defs>
<clipPath id="clip0">
<rect width="32" height="32" fill="white"/>
</clipPath>
</defs>
</svg>
