<svg width="20" height="21" viewBox="0 0 20 21" fill="none" xmlns="http://www.w3.org/2000/svg">
<g clip-path="url(#clip0)">
<path d="M15.6884 14.9535C18.7075 11.4014 18.5585 6.01924 15.2363 2.65111C13.5501 0.941464 11.3084 0 8.92366 0C6.53894 0 4.29691 0.941464 2.61055 2.65111C-0.870183 6.18013 -0.870183 11.9222 2.61055 15.4512C4.29668 17.1609 6.53868 18.1023 8.92341 18.1023C11.0843 18.1023 13.1264 17.327 14.7457 15.91L18.8618 20.0828C18.9918 20.2144 19.1624 20.2805 19.3331 20.2805C19.5038 20.2805 19.6746 20.2144 19.8046 20.0824C20.0651 19.8185 20.0651 19.3904 19.8046 19.1265L15.6884 14.9535ZM3.55354 14.4951C0.592691 11.4934 0.592691 6.60895 3.55354 3.60699C4.98784 2.15288 6.89523 1.35203 8.92366 1.35203C10.9521 1.35203 12.8591 2.15288 14.2934 3.60699C17.2543 6.60895 17.2543 11.4934 14.2934 14.4951C12.8589 15.9492 10.9518 16.7501 8.92341 16.7501C6.89498 16.7501 4.98784 15.9492 3.55354 14.4951Z" fill="#3D8FC8"/>
</g>
<defs>
<clipPath id="clip0">
<rect width="20" height="20.2805" fill="white"/>
</clipPath>
</defs>
</svg>
