<?xml version="1.0" encoding="UTF-8"?>
<svg width="21px" height="18px" viewBox="0 0 21 18" version="1.1" xmlns="http://www.w3.org/2000/svg" xmlns:xlink="http://www.w3.org/1999/xlink">
    <!-- Generator: Sketch 51.3 (57544) - http://www.bohemiancoding.com/sketch -->
    <desc>Created with Sketch.</desc>
    <g id="Page-1" stroke="none" stroke-width="1" fill="none" fill-rule="evenodd">
        <g id="icon-arrow-right-blue" fill="#1173AF" fill-rule="nonzero">
            <path d="M10.5156231,19 C11.0614016,19 11.503855,18.5457489 11.503855,17.9854175 L11.503855,2.18774781 L17.2032628,6.76018931 C17.3839446,6.90516191 17.5982811,6.97539361 17.8110804,6.97539361 C18.1048048,6.97539361 18.3955646,6.84152501 18.590411,6.58545571 C18.9264648,6.14394321 18.8502611,5.50633441 18.4202155,5.16132001 L11.0084763,-0.784866218 C10.650956,-1.07171125 10.149044,-1.07171125 9.79152369,-0.784866218 L2.37978448,5.16132001 C1.9497389,5.50633441 1.87353524,6.14394321 2.20958898,6.58545571 C2.54564273,7.02696821 3.16674649,7.10520381 3.59673719,6.76018931 L9.52739119,2.00224831 L9.52739119,17.9854175 C9.52739119,18.5457489 9.96984459,19 10.5156231,19 Z" id="Shape-Copy-2" transform="translate(10.400000, 9.000000) rotate(90.000000) translate(-10.400000, -9.000000) "></path>
        </g>
    </g>
</svg>