<svg width="40" height="40" viewBox="0 0 40 40" fill="none" xmlns="http://www.w3.org/2000/svg">
<rect width="40" height="40" fill="white"/>
<mask id="path-1-outside-1" maskUnits="userSpaceOnUse" x="0" y="2" width="39" height="35" fill="black">
<rect fill="white" y="2" width="39" height="35"/>
<path d="M38.0251 24.3212L36.3786 22.9549V9.15992C36.3757 9.04625 36.3402 8.9358 36.2762 8.84182C36.2628 8.82232 36.2518 8.80404 36.2384 8.78576C36.1706 8.69875 36.0805 8.63178 35.9776 8.59198L35.9642 8.58223L19.5622 3.03204C19.4358 2.98932 19.2987 2.98932 19.1722 3.03204L2.763 8.58223C2.64196 8.62286 2.53675 8.70049 2.46221 8.80414C2.38767 8.9078 2.34757 9.03224 2.34757 9.15992C2.34757 9.28759 2.38767 9.41204 2.46221 9.51569C2.53675 9.61935 2.64196 9.69697 2.763 9.7376L8.87868 11.807V15.9995C7.06937 16.4491 5.4145 17.3776 4.08785 18.6875C2.7612 19.9974 1.81172 21.6403 1.33912 23.4437C0.866527 25.2472 0.888246 27.1446 1.402 28.9367C1.91576 30.7289 2.90259 32.3497 4.25887 33.6288C5.61516 34.908 7.29085 35.7983 9.10998 36.2064C10.9291 36.6145 12.8246 36.5252 14.5973 35.9479C16.37 35.3707 17.9546 34.3268 19.1846 32.9258C20.4147 31.5248 21.2448 29.8185 21.5878 27.9859C24.3206 27.8016 26.9982 27.1292 29.4938 26.0006C29.5997 25.9519 29.6893 25.8739 29.7522 25.7759C29.815 25.6778 29.8484 25.5638 29.8485 25.4473V11.807L35.1586 10.0106V22.9513L33.4913 24.3187C33.4217 24.3758 33.3656 24.4476 33.3271 24.5289C33.2885 24.6103 33.2684 24.6991 33.2683 24.7892V31.9371C33.2683 32.0988 33.3325 32.2537 33.4468 32.368C33.5611 32.4823 33.7161 32.5465 33.8777 32.5465H37.6339C37.7955 32.5465 37.9505 32.4823 38.0648 32.368C38.179 32.2537 38.2432 32.0988 38.2432 31.9371V24.7892C38.2434 24.6999 38.2239 24.6118 38.1862 24.5309C38.1485 24.45 38.0935 24.3784 38.0251 24.3212ZM19.3672 4.25079L32.0703 8.55054H19.3672C19.2056 8.55054 19.0506 8.61474 18.9364 8.72902C18.8221 8.8433 18.7579 8.9983 18.7579 9.15992C18.7579 9.32153 18.8221 9.47653 18.9364 9.59081C19.0506 9.70509 19.2056 9.76929 19.3672 9.76929H32.0703L19.3672 14.0666L4.86046 9.15992L19.3672 4.25079ZM11.3832 35.2399C10.1645 35.2399 8.85553 33.084 8.28393 29.6971H14.4813C13.9109 33.084 12.5959 35.2399 11.3832 35.2399ZM8.12184 28.4783C7.94958 26.8766 7.94958 25.2611 8.12184 23.6594H14.6446C14.7297 24.4593 14.7724 25.2632 14.7726 26.0676C14.7725 26.8729 14.7297 27.6776 14.6446 28.4783H8.12184ZM2.21456 26.0664C2.21724 25.2525 2.32873 24.4426 2.54606 23.6582H6.89334C6.81778 24.4272 6.77146 25.2304 6.77146 26.0664C6.77146 26.9025 6.81534 27.7069 6.89334 28.4771H2.54606C2.32873 27.6919 2.21724 26.8812 2.21456 26.0664V26.0664ZM15.8731 23.6582H20.2228C20.6664 25.2338 20.6664 26.9014 20.2228 28.4771H15.8731C15.9486 27.7069 15.995 26.9037 15.995 26.0664C15.995 25.2291 15.9486 24.4284 15.8731 23.6594V23.6582ZM15.7183 22.4394C15.5021 20.5953 14.8749 18.8232 13.8829 17.2536C15.1915 17.6267 16.4011 18.2854 17.4247 19.1821C18.4483 20.0788 19.2603 21.1912 19.8023 22.4394H15.7183ZM14.4813 22.4394H8.28759C8.85918 19.0537 10.1742 16.899 11.3869 16.899C12.5995 16.899 13.9109 19.0549 14.4813 22.4406V22.4394ZM8.88356 17.2561C7.89132 18.8251 7.26407 20.5968 7.04812 22.4406H2.96653C3.50809 21.1927 4.31969 20.0804 5.34286 19.1839C6.36603 18.2874 7.5753 17.629 8.88356 17.2561V17.2561ZM2.96653 29.6971H7.04812C7.26433 31.5416 7.89154 33.3141 8.88356 34.8841C7.5751 34.5108 6.36571 33.852 5.34254 32.9551C4.31936 32.0581 3.50787 30.9454 2.96653 29.6971V29.6971ZM13.8829 34.8853C14.8762 33.3152 15.5046 31.5422 15.722 29.6971H19.806C19.2637 30.946 18.4511 32.059 17.4269 32.9562C16.4027 33.8533 15.1923 34.5122 13.8829 34.8853V34.8853ZM28.6297 25.0512C26.4398 25.9918 24.1102 26.5662 21.7341 26.7514C21.7487 26.5234 21.7694 26.2992 21.7694 26.0676C21.7771 24.5927 21.4689 23.1332 20.8655 21.7873C20.2622 20.4414 19.3777 19.2403 18.2715 18.2646C17.1653 17.289 15.863 16.5616 14.4523 16.1311C13.0415 15.7007 11.555 15.5773 10.0926 15.7692V12.2178L19.1674 15.2866C19.2937 15.3304 19.4311 15.3304 19.5574 15.2866L28.6407 12.219L28.6297 25.0512ZM37.0245 31.3278H34.4907V25.078L35.7692 24.0299L37.0281 25.0756L37.0245 31.3278Z"/>
</mask>
<path d="M38.0251 24.3212L36.3786 22.9549V9.15992C36.3757 9.04625 36.3402 8.9358 36.2762 8.84182C36.2628 8.82232 36.2518 8.80404 36.2384 8.78576C36.1706 8.69875 36.0805 8.63178 35.9776 8.59198L35.9642 8.58223L19.5622 3.03204C19.4358 2.98932 19.2987 2.98932 19.1722 3.03204L2.763 8.58223C2.64196 8.62286 2.53675 8.70049 2.46221 8.80414C2.38767 8.9078 2.34757 9.03224 2.34757 9.15992C2.34757 9.28759 2.38767 9.41204 2.46221 9.51569C2.53675 9.61935 2.64196 9.69697 2.763 9.7376L8.87868 11.807V15.9995C7.06937 16.4491 5.4145 17.3776 4.08785 18.6875C2.7612 19.9974 1.81172 21.6403 1.33912 23.4437C0.866527 25.2472 0.888246 27.1446 1.402 28.9367C1.91576 30.7289 2.90259 32.3497 4.25887 33.6288C5.61516 34.908 7.29085 35.7983 9.10998 36.2064C10.9291 36.6145 12.8246 36.5252 14.5973 35.9479C16.37 35.3707 17.9546 34.3268 19.1846 32.9258C20.4147 31.5248 21.2448 29.8185 21.5878 27.9859C24.3206 27.8016 26.9982 27.1292 29.4938 26.0006C29.5997 25.9519 29.6893 25.8739 29.7522 25.7759C29.815 25.6778 29.8484 25.5638 29.8485 25.4473V11.807L35.1586 10.0106V22.9513L33.4913 24.3187C33.4217 24.3758 33.3656 24.4476 33.3271 24.5289C33.2885 24.6103 33.2684 24.6991 33.2683 24.7892V31.9371C33.2683 32.0988 33.3325 32.2537 33.4468 32.368C33.5611 32.4823 33.7161 32.5465 33.8777 32.5465H37.6339C37.7955 32.5465 37.9505 32.4823 38.0648 32.368C38.179 32.2537 38.2432 32.0988 38.2432 31.9371V24.7892C38.2434 24.6999 38.2239 24.6118 38.1862 24.5309C38.1485 24.45 38.0935 24.3784 38.0251 24.3212ZM19.3672 4.25079L32.0703 8.55054H19.3672C19.2056 8.55054 19.0506 8.61474 18.9364 8.72902C18.8221 8.8433 18.7579 8.9983 18.7579 9.15992C18.7579 9.32153 18.8221 9.47653 18.9364 9.59081C19.0506 9.70509 19.2056 9.76929 19.3672 9.76929H32.0703L19.3672 14.0666L4.86046 9.15992L19.3672 4.25079ZM11.3832 35.2399C10.1645 35.2399 8.85553 33.084 8.28393 29.6971H14.4813C13.9109 33.084 12.5959 35.2399 11.3832 35.2399ZM8.12184 28.4783C7.94958 26.8766 7.94958 25.2611 8.12184 23.6594H14.6446C14.7297 24.4593 14.7724 25.2632 14.7726 26.0676C14.7725 26.8729 14.7297 27.6776 14.6446 28.4783H8.12184ZM2.21456 26.0664C2.21724 25.2525 2.32873 24.4426 2.54606 23.6582H6.89334C6.81778 24.4272 6.77146 25.2304 6.77146 26.0664C6.77146 26.9025 6.81534 27.7069 6.89334 28.4771H2.54606C2.32873 27.6919 2.21724 26.8812 2.21456 26.0664V26.0664ZM15.8731 23.6582H20.2228C20.6664 25.2338 20.6664 26.9014 20.2228 28.4771H15.8731C15.9486 27.7069 15.995 26.9037 15.995 26.0664C15.995 25.2291 15.9486 24.4284 15.8731 23.6594V23.6582ZM15.7183 22.4394C15.5021 20.5953 14.8749 18.8232 13.8829 17.2536C15.1915 17.6267 16.4011 18.2854 17.4247 19.1821C18.4483 20.0788 19.2603 21.1912 19.8023 22.4394H15.7183ZM14.4813 22.4394H8.28759C8.85918 19.0537 10.1742 16.899 11.3869 16.899C12.5995 16.899 13.9109 19.0549 14.4813 22.4406V22.4394ZM8.88356 17.2561C7.89132 18.8251 7.26407 20.5968 7.04812 22.4406H2.96653C3.50809 21.1927 4.31969 20.0804 5.34286 19.1839C6.36603 18.2874 7.5753 17.629 8.88356 17.2561V17.2561ZM2.96653 29.6971H7.04812C7.26433 31.5416 7.89154 33.3141 8.88356 34.8841C7.5751 34.5108 6.36571 33.852 5.34254 32.9551C4.31936 32.0581 3.50787 30.9454 2.96653 29.6971V29.6971ZM13.8829 34.8853C14.8762 33.3152 15.5046 31.5422 15.722 29.6971H19.806C19.2637 30.946 18.4511 32.059 17.4269 32.9562C16.4027 33.8533 15.1923 34.5122 13.8829 34.8853V34.8853ZM28.6297 25.0512C26.4398 25.9918 24.1102 26.5662 21.7341 26.7514C21.7487 26.5234 21.7694 26.2992 21.7694 26.0676C21.7771 24.5927 21.4689 23.1332 20.8655 21.7873C20.2622 20.4414 19.3777 19.2403 18.2715 18.2646C17.1653 17.289 15.863 16.5616 14.4523 16.1311C13.0415 15.7007 11.555 15.5773 10.0926 15.7692V12.2178L19.1674 15.2866C19.2937 15.3304 19.4311 15.3304 19.5574 15.2866L28.6407 12.219L28.6297 25.0512ZM37.0245 31.3278H34.4907V25.078L35.7692 24.0299L37.0281 25.0756L37.0245 31.3278Z" fill="#999999"/>
<path d="M38.0251 24.3212L36.3786 22.9549V9.15992C36.3757 9.04625 36.3402 8.9358 36.2762 8.84182C36.2628 8.82232 36.2518 8.80404 36.2384 8.78576C36.1706 8.69875 36.0805 8.63178 35.9776 8.59198L35.9642 8.58223L19.5622 3.03204C19.4358 2.98932 19.2987 2.98932 19.1722 3.03204L2.763 8.58223C2.64196 8.62286 2.53675 8.70049 2.46221 8.80414C2.38767 8.9078 2.34757 9.03224 2.34757 9.15992C2.34757 9.28759 2.38767 9.41204 2.46221 9.51569C2.53675 9.61935 2.64196 9.69697 2.763 9.7376L8.87868 11.807V15.9995C7.06937 16.4491 5.4145 17.3776 4.08785 18.6875C2.7612 19.9974 1.81172 21.6403 1.33912 23.4437C0.866527 25.2472 0.888246 27.1446 1.402 28.9367C1.91576 30.7289 2.90259 32.3497 4.25887 33.6288C5.61516 34.908 7.29085 35.7983 9.10998 36.2064C10.9291 36.6145 12.8246 36.5252 14.5973 35.9479C16.37 35.3707 17.9546 34.3268 19.1846 32.9258C20.4147 31.5248 21.2448 29.8185 21.5878 27.9859C24.3206 27.8016 26.9982 27.1292 29.4938 26.0006C29.5997 25.9519 29.6893 25.8739 29.7522 25.7759C29.815 25.6778 29.8484 25.5638 29.8485 25.4473V11.807L35.1586 10.0106V22.9513L33.4913 24.3187C33.4217 24.3758 33.3656 24.4476 33.3271 24.5289C33.2885 24.6103 33.2684 24.6991 33.2683 24.7892V31.9371C33.2683 32.0988 33.3325 32.2537 33.4468 32.368C33.5611 32.4823 33.7161 32.5465 33.8777 32.5465H37.6339C37.7955 32.5465 37.9505 32.4823 38.0648 32.368C38.179 32.2537 38.2432 32.0988 38.2432 31.9371V24.7892C38.2434 24.6999 38.2239 24.6118 38.1862 24.5309C38.1485 24.45 38.0935 24.3784 38.0251 24.3212ZM19.3672 4.25079L32.0703 8.55054H19.3672C19.2056 8.55054 19.0506 8.61474 18.9364 8.72902C18.8221 8.8433 18.7579 8.9983 18.7579 9.15992C18.7579 9.32153 18.8221 9.47653 18.9364 9.59081C19.0506 9.70509 19.2056 9.76929 19.3672 9.76929H32.0703L19.3672 14.0666L4.86046 9.15992L19.3672 4.25079ZM11.3832 35.2399C10.1645 35.2399 8.85553 33.084 8.28393 29.6971H14.4813C13.9109 33.084 12.5959 35.2399 11.3832 35.2399ZM8.12184 28.4783C7.94958 26.8766 7.94958 25.2611 8.12184 23.6594H14.6446C14.7297 24.4593 14.7724 25.2632 14.7726 26.0676C14.7725 26.8729 14.7297 27.6776 14.6446 28.4783H8.12184ZM2.21456 26.0664C2.21724 25.2525 2.32873 24.4426 2.54606 23.6582H6.89334C6.81778 24.4272 6.77146 25.2304 6.77146 26.0664C6.77146 26.9025 6.81534 27.7069 6.89334 28.4771H2.54606C2.32873 27.6919 2.21724 26.8812 2.21456 26.0664V26.0664ZM15.8731 23.6582H20.2228C20.6664 25.2338 20.6664 26.9014 20.2228 28.4771H15.8731C15.9486 27.7069 15.995 26.9037 15.995 26.0664C15.995 25.2291 15.9486 24.4284 15.8731 23.6594V23.6582ZM15.7183 22.4394C15.5021 20.5953 14.8749 18.8232 13.8829 17.2536C15.1915 17.6267 16.4011 18.2854 17.4247 19.1821C18.4483 20.0788 19.2603 21.1912 19.8023 22.4394H15.7183ZM14.4813 22.4394H8.28759C8.85918 19.0537 10.1742 16.899 11.3869 16.899C12.5995 16.899 13.9109 19.0549 14.4813 22.4406V22.4394ZM8.88356 17.2561C7.89132 18.8251 7.26407 20.5968 7.04812 22.4406H2.96653C3.50809 21.1927 4.31969 20.0804 5.34286 19.1839C6.36603 18.2874 7.5753 17.629 8.88356 17.2561V17.2561ZM2.96653 29.6971H7.04812C7.26433 31.5416 7.89154 33.3141 8.88356 34.8841C7.5751 34.5108 6.36571 33.852 5.34254 32.9551C4.31936 32.0581 3.50787 30.9454 2.96653 29.6971V29.6971ZM13.8829 34.8853C14.8762 33.3152 15.5046 31.5422 15.722 29.6971H19.806C19.2637 30.946 18.4511 32.059 17.4269 32.9562C16.4027 33.8533 15.1923 34.5122 13.8829 34.8853V34.8853ZM28.6297 25.0512C26.4398 25.9918 24.1102 26.5662 21.7341 26.7514C21.7487 26.5234 21.7694 26.2992 21.7694 26.0676C21.7771 24.5927 21.4689 23.1332 20.8655 21.7873C20.2622 20.4414 19.3777 19.2403 18.2715 18.2646C17.1653 17.289 15.863 16.5616 14.4523 16.1311C13.0415 15.7007 11.555 15.5773 10.0926 15.7692V12.2178L19.1674 15.2866C19.2937 15.3304 19.4311 15.3304 19.5574 15.2866L28.6407 12.219L28.6297 25.0512ZM37.0245 31.3278H34.4907V25.078L35.7692 24.0299L37.0281 25.0756L37.0245 31.3278Z" stroke="#999999" stroke-width="0.4" mask="url(#path-1-outside-1)"/>
</svg>
