<svg width="32" height="32" viewBox="0 0 32 32" fill="none" xmlns="http://www.w3.org/2000/svg">
<g clip-path="url(#clip0)">
<path fill-rule="evenodd" clip-rule="evenodd" d="M19.3265 5.14768V9.94093H26.2183V5.14768H19.3265ZM18.7124 4C18.4109 4 18.1665 4.2418 18.1665 4.54008V10.4947C18.1583 10.5035 18.1504 10.5126 18.1427 10.522L17.7126 11.0477C17.511 11.294 17.5495 11.6553 17.7985 11.8547C18.0474 12.0541 18.4126 12.0161 18.6142 11.7698L19.0443 11.2441C19.0837 11.196 19.1139 11.1434 19.1352 11.0886H26.8324C27.1339 11.0886 27.3783 10.8468 27.3783 10.5485V7.94937H28.8453V23.9494H18.2006V23.9393V23.9284V23.9174V23.9062V23.895V23.8836V23.8722V23.8607V23.8491V23.8373V23.8255V23.8136V23.8016V23.7895V23.7774V23.7651V23.7527V23.7403V23.7277V23.7151V23.7024V23.6896V23.6767V23.6637V23.6506V23.6375V23.6242V23.6109V23.5975V23.584V23.5704V23.5568V23.543V23.5292V23.5153V23.5013V23.4873V23.4731V23.4589V23.4446V23.4302V23.4158V23.4012V23.3866V23.372V23.3572V23.3424V23.3275V23.3125V23.2974V23.2823V23.2671V23.2518V23.2365V23.2211V23.2056V23.19V23.1744V23.1587V23.143V23.1272V23.1113V23.0953V23.0793V23.0632V23.0471V23.0309V23.0146V22.9982V22.9818V22.9654V22.9489V22.9323V22.9156V22.8989V22.8822V22.8653V22.8485V22.8315V22.8145V22.7975V22.7804V22.7632V22.746V22.7287V22.7114V22.694V22.6766V22.6591V22.6416V22.624V22.6063V22.5887V22.5709V22.5531V22.5353V22.5174V22.4995V22.4815V22.4635V22.4454V22.4273V22.4092V22.391V22.3727V22.3544V22.3361V22.3177V22.2993V22.2809V22.2624V22.2438V22.2253V22.2066V22.188V22.1693V22.1506V22.1318V22.113V22.0942V22.0753V22.0564V22.0375V22.0185V21.9995V21.9805V21.9614V21.9423V21.9232V21.904V21.8848V21.8656V21.8463V21.8271V21.8078V21.7884V21.7691V21.7497V21.7303V21.7108V21.6914V21.6719V21.6524V21.6329V21.6133V21.5938V21.5742V21.5545V21.5349V21.5153V21.4956V21.4759V21.4562V21.4365V21.4167V21.397V21.3772V21.3574V21.3376V21.3178V21.2979V21.2781V21.2582V21.2384V21.2185V21.1986V21.1787V21.1588V21.1389V21.1189V21.099V21.079V21.0591V21.0391V21.0192V20.9992V20.9792V20.9592V20.9392V20.9192V20.8993V20.8793V20.8593V20.8393V20.8193V20.7993V20.7793V20.7593V20.7393V20.7193V20.6993V20.6793V20.6593V20.6393V20.6193V20.5994V20.5794V20.5594V20.5395V20.5195V20.4996V20.4797V20.4597V20.4398V20.4199V20.4V20.3801V20.3603V20.3404V20.3206V20.3007V20.2809V20.2611V20.2413V20.2215V20.2018V20.182V20.1623V20.1426V20.1229V20.1032V20.0836V20.064V20.0443V20.0247V20.0052V19.9856V19.9661V19.9466V19.9271V19.9076V19.8882V19.8688V19.8494V19.8301V19.8107V19.7914V19.7721V19.7529V19.7337V19.7145V19.6953V19.6762V19.6571V19.638V19.619V19.6V19.581V19.5621V19.5431V19.5243V19.5054V19.4866V19.4679V19.4491V19.4305V19.4118V19.3932V19.3746V19.3561V19.3376V19.3191V19.3007V19.2823V19.264V19.2457V19.2275V19.2093V19.1911V19.173V19.1549V19.1369V19.1189V19.101V19.0831V19.0653V19.0475V19.0297V19.012V18.9944V18.9768V18.9593V18.9418V18.9244V18.907V18.8896V18.8724V18.8551V18.838V18.8209V18.8038V18.7868V18.7699V18.753V18.7362V18.7194V18.7027V18.686V18.6695V18.6529V18.6365V18.6201V18.6037V18.5874V18.5712V18.5551V18.539V18.523V18.507V18.4911V18.4753V18.4595V18.4438V18.4282V18.4127V18.3972V18.3818V18.3664V18.3511V18.3359V18.3208V18.3058V18.2908V18.2759V18.261V18.2463V18.2316V18.217V18.2024V18.188V18.1736V18.1593V18.145V18.1309V18.1168V18.1028V18.0889V18.0751V18.0614V18.0477V18.0341V18.0206V18.0072V17.9939V17.9806V17.9675V17.9544V17.9414V17.9285V17.9157V17.903V17.8903V17.8778V17.8653V17.853V17.8407V17.8285V17.8164V17.8044V17.7925V17.7807V17.769V17.7573V17.7458V17.7344V17.723V17.7118V17.7006V17.6896V17.6786V17.6678V17.657V17.6464V17.6358V17.6254V17.615V17.6047V17.5946V17.5846V17.5746V17.5648V17.555V17.5454V17.5359V17.5265V17.5172V17.508V17.4989V17.4899V17.481V17.4722V17.4636V17.455V17.4466V17.4383V17.43V17.4219V17.4139V17.4061V17.3983V17.3907V17.3831V17.3757V17.3684V17.3612V17.3542V17.3472V17.3404V17.3337V17.3271V17.3206V17.3143V17.308V17.3019V17.2959V17.2901V17.2843V17.2787V17.2732V17.2679V17.2626V17.2575V17.2525V17.2477C18.2006 15.637 16.9322 14.2695 15.4941 13.8181C14.9057 13.6335 13.9023 13.5543 12.9014 13.5528C11.8835 13.5512 10.7737 13.6302 9.94275 13.8036C9.42006 13.9127 8.7476 14.2139 8.19912 14.8349C7.64314 15.4643 7.24863 16.3838 7.22982 17.6652C7.20528 19.3372 7.21553 22.3235 7.2261 23.9494H3.32526V7.94937H7.88954C7.97168 7.546 8.10536 7.1611 8.2835 6.80169H2.8135C2.45549 6.80169 2.16526 7.08883 2.16526 7.44304V24.0506H0.85454C0.140509 24.0506 -0.25747 24.8668 0.186937 25.4197L2.00463 27.6813C2.16645 27.8827 2.41224 28 2.67223 28H29.3278C29.5878 28 29.8336 27.8827 29.9954 27.6813L31.8131 25.4197C32.2575 24.8668 31.8595 24.0506 31.1455 24.0506H30.0053V7.44304C30.0053 7.08884 29.7151 6.80169 29.3571 6.80169H27.3783V4.54008C27.3783 4.2418 27.1339 4 26.8324 4H18.7124ZM15.3688 8.92827C15.3688 10.457 14.1163 11.6962 12.5712 11.6962C11.0261 11.6962 9.77351 10.457 9.77351 8.92827C9.77351 7.39958 11.0261 6.16034 12.5712 6.16034C14.1163 6.16034 15.3688 7.39958 15.3688 8.92827ZM16.5288 8.92827C16.5288 11.0908 14.7569 12.8439 12.5712 12.8439C10.3854 12.8439 8.61351 11.0908 8.61351 8.92827C8.61351 6.76574 10.3854 5.01266 12.5712 5.01266C14.7569 5.01266 16.5288 6.76574 16.5288 8.92827ZM17.0406 23.8722V23.8819H17.0307H17.0185H17.0061H16.9937H16.9811H16.9684H16.9557H16.9428H16.9298H16.9167H16.9035H16.8902H16.8768H16.8633H16.8497H16.836H16.8221H16.8082H16.7942H16.7801H16.7659H16.7515H16.7371H16.7226H16.708H16.6933H16.6784H16.6635H16.6485H16.6334H16.6182H16.6029H16.5875H16.572H16.5565H16.5408H16.525H16.5092H16.4932H16.4772H16.461H16.4448H16.4285H16.4121H16.3956H16.379H16.3624H16.3456H16.3288H16.3118H16.2948H16.2777H16.2605H16.2432H16.2259H16.2084H16.1909H16.1733H16.1556H16.1378H16.12H16.102H16.084H16.0659H16.0477H16.0294H16.0111H15.9927H15.9742H15.9556H15.937H15.9182H15.8994H15.8805H15.8616H15.8426H15.8234H15.8043H15.785H15.7657H15.7463H15.7268H15.7073H15.6877H15.668H15.6482H15.6284H15.6085H15.5885H15.5685H15.5484H15.5282H15.508H15.4877H15.4673H15.4469H15.4264H15.4058H15.3852H15.3645H15.3437H15.3229H15.302H15.2811H15.2601H15.239H15.2179H15.1967H15.1754H15.1541H15.1327H15.1113H15.0898H15.0683H15.0467H15.025H15.0033H14.9816H14.9597H14.9379H14.9159H14.894H14.8719H14.8498H14.8277H14.8055H14.7832H14.7609H14.7386H14.7162H14.6937H14.6712H14.6487H14.6261H14.6035H14.5808H14.558H14.5353H14.5124H14.4895H14.4666H14.4437H14.4207H14.3976H14.3745H14.3514H14.3282H14.305H14.2817H14.2584H14.235H14.2117H14.1882H14.1648H14.1413H14.1177H14.0942H14.0705H14.0469H14.0232H13.9995H13.9757H13.9519H13.9281H13.9042H13.8803H13.8564H13.8324H13.8084H13.7844H13.7604H13.7363H13.7121H13.688H13.6638H13.6396H13.6154H13.5911H13.5668H13.5425H13.5182H13.4938H13.4694H13.445H13.4205H13.396H13.3716H13.347H13.3225H13.2979H13.2733H13.2487H13.2241H13.1995H13.1748H13.1501H13.1254H13.1007H13.0759H13.0511H13.0264H13.0016H12.9768H12.9519H12.9271H12.9022H12.8773H12.8524H12.8275H12.8026H12.7777H12.7528H12.7278H12.7028H12.6779H12.6529H12.6279H12.6029H12.5778H12.5528H12.5278H12.5027H12.4777H12.4526H12.4276H12.4025H12.3774H12.3524H12.3273H12.3022H12.2771H12.252H12.2269H12.2018H12.1767H12.1516H12.1265H12.1014H12.0763H12.0512H12.0261H12.001H11.9759H11.9508H11.9257H11.9006H11.8755H11.8505H11.8254H11.8003H11.7752H11.7502H11.7251H11.7001H11.6751H11.65H11.625H11.6H11.575H11.55H11.525H11.5H11.4751H11.4501H11.4252H11.4002H11.3753H11.3504H11.3255H11.3007H11.2758H11.251H11.2261H11.2013H11.1765H11.1518H11.127H11.1023H11.0775H11.0528H11.0282H11.0035H10.9789H10.9542H10.9296H10.905H10.8805H10.856H10.8314H10.807H10.7825H10.7581H10.7336H10.7092H10.6849H10.6605H10.6362H10.612H10.5877H10.5635H10.5393H10.5151H10.491H10.4669H10.4428H10.4187H10.3947H10.3707H10.3468H10.3228H10.299H10.2751H10.2513H10.2275H10.2038H10.18H10.1564H10.1327H10.1091H10.0855H10.062H10.0385H10.0151H9.99166H9.96829H9.94495H9.92166H9.89841H9.8752H9.85203H9.82891H9.80582H9.78278H9.75979H9.73684H9.71393H9.69107H9.66825H9.64548H9.62276H9.60008H9.57745H9.55487H9.53234H9.50986H9.48742H9.46504H9.44271H9.42042H9.39819H9.37601H9.35389H9.33181H9.30979H9.28782H9.2659H9.24404H9.22224H9.20049H9.17879H9.15715H9.13557H9.11405H9.09258H9.07117H9.04982H9.02853H9.0073H8.98613H8.96502H8.94397H8.92298H8.90205H8.88119H8.86038H8.83965H8.81897H8.79836H8.77781H8.75733H8.73691H8.71656H8.69628H8.67606H8.65591H8.63583H8.61582H8.59587H8.576H8.55619H8.53645H8.51679H8.49719H8.47767H8.45822H8.43884H8.41953H8.4003H8.3857C8.37528 22.2458 8.36564 19.3212 8.3897 17.6818C8.40503 16.6375 8.71945 15.9899 9.07258 15.5901C9.4332 15.1818 9.87001 14.9917 10.1821 14.9266C10.9046 14.7758 11.9261 14.6989 12.8996 14.7004C13.89 14.702 14.738 14.7849 15.1433 14.9121C16.2008 15.244 17.0406 16.2349 17.0406 17.2477V17.2525V17.2575V17.2626V17.2679V17.2732V17.2787V17.2843V17.2901V17.2959V17.3019V17.308V17.3143V17.3206V17.3271V17.3337V17.3404V17.3472V17.3542V17.3612V17.3684V17.3757V17.3831V17.3907V17.3983V17.4061V17.4139V17.4219V17.43V17.4383V17.4466V17.455V17.4636V17.4722V17.481V17.4899V17.4989V17.508V17.5172V17.5265V17.5359V17.5454V17.555V17.5648V17.5746V17.5846V17.5946V17.6047V17.615V17.6254V17.6358V17.6464V17.657V17.6678V17.6786V17.6896V17.7006V17.7118V17.723V17.7344V17.7458V17.7573V17.769V17.7807V17.7925V17.8044V17.8164V17.8285V17.8407V17.853V17.8653V17.8778V17.8903V17.903V17.9157V17.9285V17.9414V17.9544V17.9675V17.9806V17.9939V18.0072V18.0206V18.0341V18.0477V18.0614V18.0751V18.0889V18.1028V18.1168V18.1309V18.145V18.1593V18.1736V18.188V18.2024V18.217V18.2316V18.2463V18.261V18.2759V18.2908V18.3058V18.3208V18.3359V18.3511V18.3664V18.3818V18.3972V18.4127V18.4282V18.4438V18.4595V18.4753V18.4911V18.507V18.523V18.539V18.5551V18.5712V18.5874V18.6037V18.6201V18.6365V18.6529V18.6695V18.686V18.7027V18.7194V18.7362V18.753V18.7699V18.7868V18.8038V18.8209V18.838V18.8551V18.8724V18.8896V18.907V18.9244V18.9418V18.9593V18.9768V18.9944V19.012V19.0297V19.0475V19.0653V19.0831V19.101V19.1189V19.1369V19.1549V19.173V19.1911V19.2093V19.2275V19.2457V19.264V19.2823V19.3007V19.3191V19.3376V19.3561V19.3746V19.3932V19.4118V19.4305V19.4491V19.4679V19.4866V19.5054V19.5243V19.5431V19.5621V19.581V19.6V19.619V19.638V19.6571V19.6762V19.6953V19.7145V19.7337V19.7529V19.7721V19.7914V19.8107V19.8301V19.8494V19.8688V19.8882V19.9076V19.9271V19.9466V19.9661V19.9856V20.0052V20.0247V20.0443V20.064V20.0836V20.1032V20.1229V20.1426V20.1623V20.182V20.2018V20.2215V20.2413V20.2611V20.2809V20.3007V20.3206V20.3404V20.3603V20.3801V20.4V20.4199V20.4398V20.4597V20.4797V20.4996V20.5195V20.5395V20.5594V20.5794V20.5994V20.6193V20.6393V20.6593V20.6793V20.6993V20.7193V20.7393V20.7593V20.7793V20.7993V20.8193V20.8393V20.8593V20.8793V20.8993V20.9192V20.9392V20.9592V20.9792V20.9992V21.0192V21.0391V21.0591V21.079V21.099V21.1189V21.1389V21.1588V21.1787V21.1986V21.2185V21.2384V21.2582V21.2781V21.2979V21.3178V21.3376V21.3574V21.3772V21.397V21.4167V21.4365V21.4562V21.4759V21.4956V21.5153V21.5349V21.5545V21.5742V21.5938V21.6133V21.6329V21.6524V21.6719V21.6914V21.7108V21.7303V21.7497V21.7691V21.7884V21.8078V21.8271V21.8463V21.8656V21.8848V21.904V21.9232V21.9423V21.9614V21.9805V21.9995V22.0185V22.0375V22.0564V22.0753V22.0942V22.113V22.1318V22.1506V22.1693V22.188V22.2066V22.2253V22.2438V22.2624V22.2809V22.2993V22.3177V22.3361V22.3544V22.3727V22.391V22.4092V22.4273V22.4454V22.4635V22.4815V22.4995V22.5174V22.5353V22.5531V22.5709V22.5887V22.6063V22.624V22.6416V22.6591V22.6766V22.694V22.7114V22.7287V22.746V22.7632V22.7804V22.7975V22.8145V22.8315V22.8485V22.8653V22.8822V22.8989V22.9156V22.9323V22.9489V22.9654V22.9818V22.9982V23.0146V23.0309V23.0471V23.0632V23.0793V23.0953V23.1113V23.1272V23.143V23.1587V23.1744V23.19V23.2056V23.2211V23.2365V23.2518V23.2671V23.2823V23.2974V23.3125V23.3275V23.3424V23.3572V23.372V23.3866V23.4012V23.4158V23.4302V23.4446V23.4589V23.4731V23.4873V23.5013V23.5153V23.5292V23.543V23.5568V23.5704V23.584V23.5975V23.6109V23.6242V23.6375V23.6506V23.6637V23.6767V23.6896V23.7024V23.7151V23.7277V23.7403V23.7527V23.7651V23.7774V23.7895V23.8016V23.8136V23.8255V23.8373V23.8491V23.8607V23.8722ZM2.82037 26.8523L1.49101 25.1983H2.54056H29.1865H30.509L29.1796 26.8523H2.82037ZM20.7594 6.59916C20.7594 6.28223 21.0191 6.02532 21.3394 6.02532H24.2736C24.5939 6.02532 24.8536 6.28223 24.8536 6.59916C24.8536 6.91608 24.5939 7.173 24.2736 7.173H21.3394C21.0191 7.173 20.7594 6.91608 20.7594 6.59916ZM21.3394 7.78059C21.0191 7.78059 20.7594 8.03751 20.7594 8.35443C20.7594 8.67135 21.0191 8.92827 21.3394 8.92827H24.2736C24.5939 8.92827 24.8536 8.67135 24.8536 8.35443C24.8536 8.03751 24.5939 7.78059 24.2736 7.78059H21.3394Z" fill="#FF3126"/>
</g>
<defs>
<clipPath id="clip0">
<rect width="32" height="32" fill="white"/>
</clipPath>
</defs>
</svg>
