<svg width="40" height="40" viewBox="0 0 40 40" fill="none" xmlns="http://www.w3.org/2000/svg">
<rect width="40" height="40" fill="white"/>
<mask id="path-1-outside-1" maskUnits="userSpaceOnUse" x="3" y="4" width="34" height="33" fill="black">
<rect fill="white" x="3" y="4" width="34" height="33"/>
<path fill-rule="evenodd" clip-rule="evenodd" d="M28.3992 6.44668H6.43106V7.73793H28.3992L28.3992 6.44668ZM6.43106 5C5.63208 5 4.98438 5.6477 4.98438 6.44668V7.73793C4.98438 8.17847 5.18128 8.57301 5.49189 8.83835L5.49181 22.584L6.93849 22.584L6.93857 9.18462H27.892L27.892 34.5182H20.3387C20.3512 34.4415 20.3577 34.3628 20.3577 34.2826V24.8881C20.3577 24.0891 19.71 23.4414 18.9111 23.4414H15.5176C14.7186 23.4414 14.0709 24.0891 14.0709 24.8881V34.2826C14.0709 34.3628 14.0774 34.4415 14.09 34.5182H6.65866V27.1074H5.21198V34.5182H4V35.9648L36 35.9648V34.5182H33.8061V30.8711H32.3594V34.5182H29.3387V8.83807C29.6491 8.57273 29.8459 8.17831 29.8459 7.73793V6.44668C29.8459 5.6477 29.1982 5 28.3992 5H6.43106ZM24.2145 13.2904H10.6155L10.6155 14.8278H24.2145V13.2904ZM10.6155 11.8438C9.81656 11.8438 9.16885 12.4915 9.16885 13.2904V14.8278C9.16885 15.6268 9.81656 16.2745 10.6155 16.2745H24.2145C25.0135 16.2745 25.6612 15.6268 25.6612 14.8278V13.2904C25.6612 12.4915 25.0135 11.8438 24.2145 11.8438H10.6155ZM33.7698 24.2984V28.2992C33.7698 28.9206 33.266 29.4244 32.6446 29.4244C32.0232 29.4244 31.5194 28.9206 31.5194 28.2992V24.2984C31.5194 23.677 32.0232 23.1732 32.6446 23.1732C33.266 23.1732 33.7698 23.677 33.7698 24.2984ZM30.0727 24.2984C30.0727 22.878 31.2242 21.7266 32.6446 21.7266C34.065 21.7266 35.2165 22.878 35.2165 24.2984V28.2992C35.2165 29.7196 34.065 30.871 32.6446 30.871C31.2242 30.871 30.0727 29.7196 30.0727 28.2992V24.2984ZM18.9111 24.8881H15.5176V34.2826H18.9111V24.8881Z"/>
</mask>
<path fill-rule="evenodd" clip-rule="evenodd" d="M28.3992 6.44668H6.43106V7.73793H28.3992L28.3992 6.44668ZM6.43106 5C5.63208 5 4.98438 5.6477 4.98438 6.44668V7.73793C4.98438 8.17847 5.18128 8.57301 5.49189 8.83835L5.49181 22.584L6.93849 22.584L6.93857 9.18462H27.892L27.892 34.5182H20.3387C20.3512 34.4415 20.3577 34.3628 20.3577 34.2826V24.8881C20.3577 24.0891 19.71 23.4414 18.9111 23.4414H15.5176C14.7186 23.4414 14.0709 24.0891 14.0709 24.8881V34.2826C14.0709 34.3628 14.0774 34.4415 14.09 34.5182H6.65866V27.1074H5.21198V34.5182H4V35.9648L36 35.9648V34.5182H33.8061V30.8711H32.3594V34.5182H29.3387V8.83807C29.6491 8.57273 29.8459 8.17831 29.8459 7.73793V6.44668C29.8459 5.6477 29.1982 5 28.3992 5H6.43106ZM24.2145 13.2904H10.6155L10.6155 14.8278H24.2145V13.2904ZM10.6155 11.8438C9.81656 11.8438 9.16885 12.4915 9.16885 13.2904V14.8278C9.16885 15.6268 9.81656 16.2745 10.6155 16.2745H24.2145C25.0135 16.2745 25.6612 15.6268 25.6612 14.8278V13.2904C25.6612 12.4915 25.0135 11.8438 24.2145 11.8438H10.6155ZM33.7698 24.2984V28.2992C33.7698 28.9206 33.266 29.4244 32.6446 29.4244C32.0232 29.4244 31.5194 28.9206 31.5194 28.2992V24.2984C31.5194 23.677 32.0232 23.1732 32.6446 23.1732C33.266 23.1732 33.7698 23.677 33.7698 24.2984ZM30.0727 24.2984C30.0727 22.878 31.2242 21.7266 32.6446 21.7266C34.065 21.7266 35.2165 22.878 35.2165 24.2984V28.2992C35.2165 29.7196 34.065 30.871 32.6446 30.871C31.2242 30.871 30.0727 29.7196 30.0727 28.2992V24.2984ZM18.9111 24.8881H15.5176V34.2826H18.9111V24.8881Z" fill="#999999"/>
<path d="M6.43106 6.44668V6.34668H6.33106V6.44668H6.43106ZM28.3992 6.44668L28.4992 6.44668L28.4992 6.34668H28.3992V6.44668ZM6.43106 7.73793H6.33106V7.83793H6.43106V7.73793ZM28.3992 7.73793V7.83793H28.4992L28.4992 7.73793L28.3992 7.73793ZM5.49189 8.83835L5.59189 8.83835L5.59189 8.79226L5.55684 8.76232L5.49189 8.83835ZM5.49181 22.584L5.39181 22.584L5.39181 22.684L5.49181 22.684L5.49181 22.584ZM6.93849 22.584L6.93849 22.684L7.03849 22.684L7.03849 22.584L6.93849 22.584ZM6.93857 9.18462V9.08462H6.83857L6.83857 9.18462L6.93857 9.18462ZM27.892 9.18462L27.992 9.18462L27.992 9.08462H27.892V9.18462ZM27.892 34.5182V34.6182H27.992L27.992 34.5182L27.892 34.5182ZM20.3387 34.5182L20.24 34.502L20.221 34.6182H20.3387V34.5182ZM14.09 34.5182V34.6182H14.2077L14.1887 34.502L14.09 34.5182ZM6.65866 34.5182H6.55866V34.6182H6.65866V34.5182ZM6.65866 27.1074H6.75866V27.0074H6.65866V27.1074ZM5.21198 27.1074V27.0074H5.11198V27.1074H5.21198ZM5.21198 34.5182V34.6182H5.31198V34.5182H5.21198ZM4 34.5182V34.4182H3.9V34.5182H4ZM4 35.9648H3.9V36.0648L4 36.0648L4 35.9648ZM36 35.9648L36 36.0648L36.1 36.0648V35.9648H36ZM36 34.5182H36.1V34.4182H36V34.5182ZM33.8061 34.5182H33.7061V34.6182H33.8061V34.5182ZM33.8061 30.8711H33.9061V30.7711H33.8061V30.8711ZM32.3594 30.8711V30.7711H32.2594V30.8711H32.3594ZM32.3594 34.5182V34.6182H32.4594V34.5182H32.3594ZM29.3387 34.5182H29.2387V34.6182H29.3387V34.5182ZM29.3387 8.83807L29.2738 8.76206L29.2387 8.792V8.83807H29.3387ZM10.6155 13.2904V13.1904H10.5155L10.5155 13.2904L10.6155 13.2904ZM24.2145 13.2904H24.3145V13.1904H24.2145V13.2904ZM10.6155 14.8278L10.5155 14.8278L10.5155 14.9278H10.6155V14.8278ZM24.2145 14.8278V14.9278H24.3145V14.8278H24.2145ZM15.5176 24.8881V24.7881H15.4176V24.8881H15.5176ZM18.9111 24.8881H19.0111V24.7881H18.9111V24.8881ZM15.5176 34.2826H15.4176V34.3826H15.5176V34.2826ZM18.9111 34.2826V34.3826H19.0111V34.2826H18.9111ZM6.43106 6.54668H28.3992V6.34668H6.43106V6.54668ZM6.53106 7.73793V6.44668H6.33106V7.73793H6.53106ZM28.3992 7.63793H6.43106V7.83793H28.3992V7.63793ZM28.2992 6.44668L28.2992 7.73793L28.4992 7.73793L28.4992 6.44668L28.2992 6.44668ZM5.08438 6.44668C5.08438 5.70293 5.68731 5.1 6.43106 5.1V4.9C5.57685 4.9 4.88437 5.59247 4.88437 6.44668H5.08438ZM5.08438 7.73793V6.44668H4.88437V7.73793H5.08438ZM5.55684 8.76232C5.26753 8.51516 5.08438 8.14799 5.08438 7.73793H4.88437C4.88437 8.20894 5.09504 8.63085 5.42693 8.91438L5.55684 8.76232ZM5.59181 22.584L5.59189 8.83835L5.39189 8.83835L5.39181 22.584L5.59181 22.584ZM6.93849 22.484L5.49181 22.484L5.49181 22.684L6.93849 22.684L6.93849 22.484ZM6.83857 9.18462L6.83849 22.584L7.03849 22.584L7.03857 9.18462L6.83857 9.18462ZM27.892 9.08462H6.93857V9.28462H27.892V9.08462ZM27.992 34.5182L27.992 9.18462L27.792 9.18462L27.792 34.5182L27.992 34.5182ZM20.3387 34.6182H27.892V34.4182H20.3387V34.6182ZM20.2577 34.2826C20.2577 34.3574 20.2517 34.4307 20.24 34.502L20.4374 34.5343C20.4508 34.4523 20.4577 34.3682 20.4577 34.2826H20.2577ZM20.2577 24.8881V34.2826H20.4577V24.8881H20.2577ZM18.9111 23.5414C19.6548 23.5414 20.2577 24.1443 20.2577 24.8881H20.4577C20.4577 24.0339 19.7653 23.3414 18.9111 23.3414V23.5414ZM15.5176 23.5414H18.9111V23.3414H15.5176V23.5414ZM14.1709 24.8881C14.1709 24.1443 14.7739 23.5414 15.5176 23.5414V23.3414C14.6634 23.3414 13.9709 24.0339 13.9709 24.8881H14.1709ZM14.1709 34.2826V24.8881H13.9709V34.2826H14.1709ZM14.1887 34.502C14.177 34.4307 14.1709 34.3574 14.1709 34.2826H13.9709C13.9709 34.3683 13.9779 34.4523 13.9913 34.5343L14.1887 34.502ZM6.65866 34.6182H14.09V34.4182H6.65866V34.6182ZM6.75866 34.5182V27.1074H6.55866V34.5182H6.75866ZM6.65866 27.0074H5.21198V27.2074H6.65866V27.0074ZM5.11198 27.1074V34.5182H5.31198V27.1074H5.11198ZM4 34.6182H5.21198V34.4182H4V34.6182ZM4.1 35.9648V34.5182H3.9V35.9648H4.1ZM36 35.8648L4 35.8648L4 36.0648L36 36.0648L36 35.8648ZM35.9 34.5182V35.9648H36.1V34.5182H35.9ZM33.8061 34.6182H36V34.4182H33.8061V34.6182ZM33.9061 34.5182V30.8711H33.7061V34.5182H33.9061ZM33.8061 30.7711H32.3594V30.9711H33.8061V30.7711ZM32.2594 30.8711V34.5182H32.4594V30.8711H32.2594ZM29.3387 34.6182H32.3594V34.4182H29.3387V34.6182ZM29.2387 8.83807V34.5182H29.4387V8.83807H29.2387ZM29.7459 7.73793C29.7459 8.14784 29.5629 8.51491 29.2738 8.76206L29.4037 8.91409C29.7354 8.63056 29.9459 8.20878 29.9459 7.73793H29.7459ZM29.7459 6.44668V7.73793H29.9459V6.44668H29.7459ZM28.3992 5.1C29.143 5.1 29.7459 5.70293 29.7459 6.44668H29.9459C29.9459 5.59247 29.2534 4.9 28.3992 4.9V5.1ZM6.43106 5.1H28.3992V4.9H6.43106V5.1ZM10.6155 13.3904H24.2145V13.1904H10.6155V13.3904ZM10.7155 14.8278L10.7155 13.2904L10.5155 13.2904L10.5155 14.8278L10.7155 14.8278ZM24.2145 14.7278H10.6155V14.9278H24.2145V14.7278ZM24.1145 13.2904V14.8278H24.3145V13.2904H24.1145ZM9.26885 13.2904C9.26885 12.5467 9.87178 11.9438 10.6155 11.9438V11.7437C9.76133 11.7437 9.06885 12.4362 9.06885 13.2904H9.26885ZM9.26885 14.8278V13.2904H9.06885V14.8278H9.26885ZM10.6155 16.1745C9.87179 16.1745 9.26885 15.5716 9.26885 14.8278H9.06885C9.06885 15.682 9.76133 16.3745 10.6155 16.3745V16.1745ZM24.2145 16.1745H10.6155V16.3745H24.2145V16.1745ZM25.5612 14.8278C25.5612 15.5716 24.9582 16.1745 24.2145 16.1745V16.3745C25.0687 16.3745 25.7612 15.682 25.7612 14.8278H25.5612ZM25.5612 13.2904V14.8278H25.7612V13.2904H25.5612ZM24.2145 11.9438C24.9582 11.9438 25.5612 12.5467 25.5612 13.2904H25.7612C25.7612 12.4362 25.0687 11.7437 24.2145 11.7437V11.9438ZM10.6155 11.9438H24.2145V11.7437H10.6155V11.9438ZM33.8698 28.2992V24.2984H33.6698V28.2992H33.8698ZM32.6446 29.5244C33.3213 29.5244 33.8698 28.9758 33.8698 28.2992H33.6698C33.6698 28.8654 33.2108 29.3244 32.6446 29.3244V29.5244ZM31.4194 28.2992C31.4194 28.9758 31.9679 29.5244 32.6446 29.5244V29.3244C32.0784 29.3244 31.6194 28.8654 31.6194 28.2992H31.4194ZM31.4194 24.2984V28.2992H31.6194V24.2984H31.4194ZM32.6446 23.0732C31.9679 23.0732 31.4194 23.6218 31.4194 24.2984H31.6194C31.6194 23.7322 32.0784 23.2732 32.6446 23.2732V23.0732ZM33.8698 24.2984C33.8698 23.6218 33.3213 23.0732 32.6446 23.0732V23.2732C33.2108 23.2732 33.6698 23.7322 33.6698 24.2984H33.8698ZM32.6446 21.6266C31.169 21.6266 29.9727 22.8228 29.9727 24.2984H30.1727C30.1727 22.9333 31.2794 21.8266 32.6446 21.8266V21.6266ZM35.3165 24.2984C35.3165 22.8228 34.1202 21.6266 32.6446 21.6266V21.8266C34.0098 21.8266 35.1165 22.9333 35.1165 24.2984H35.3165ZM35.3165 28.2992V24.2984H35.1165V28.2992H35.3165ZM32.6446 30.971C34.1202 30.971 35.3165 29.7748 35.3165 28.2992H35.1165C35.1165 29.6643 34.0098 30.771 32.6446 30.771V30.971ZM29.9727 28.2992C29.9727 29.7748 31.169 30.971 32.6446 30.971V30.771C31.2794 30.771 30.1727 29.6643 30.1727 28.2992H29.9727ZM29.9727 24.2984V28.2992H30.1727V24.2984H29.9727ZM15.5176 24.9881H18.9111V24.7881H15.5176V24.9881ZM15.6176 34.2826V24.8881H15.4176V34.2826H15.6176ZM18.9111 34.1826H15.5176V34.3826H18.9111V34.1826ZM18.8111 24.8881V34.2826H19.0111V24.8881H18.8111Z" fill="#999999" mask="url(#path-1-outside-1)"/>
</svg>
