<?xml version="1.0" encoding="UTF-8"?>
<svg width="15px" height="8px" viewBox="0 0 15 8" version="1.1" xmlns="http://www.w3.org/2000/svg" xmlns:xlink="http://www.w3.org/1999/xlink">
    <!-- Generator: Sketch 51.2 (57519) - http://www.bohemiancoding.com/sketch -->
    <desc>Created with Sketch.</desc>
    <g id="Page-1" stroke="none" stroke-width="1" fill="none" fill-rule="evenodd">
        <g id="icon-caret-up-blue" transform="translate(-1.000000, 0.000000)" fill="#1173AF" fill-rule="nonzero">
            <g id="noun_Arrow_1807380" transform="translate(8.000000, 4.000000) scale(-1, 1) rotate(-90.000000) translate(-8.000000, -4.000000) translate(4.000000, -4.000000)">
                <g id="Group" transform="translate(0.000000, 0.102393)">
                    <path d="M7.54440787,7.22700201 C7.53160695,7.04798755 7.45918694,6.87842593 7.33871422,6.74539826 L1.55945161,0.323993579 C1.36768506,0.110671326 1.07667317,0.0158699429 0.796051941,0.0753049644 C0.515430717,0.134739986 0.287839999,0.339380379 0.199022466,0.612129787 C0.110204933,0.884879194 0.173656232,1.18429389 0.365471679,1.39757217 L5.66312894,7.28219398 L0.365471679,13.1668013 C0.173656232,13.3800796 0.110204933,13.6794943 0.199022466,13.9522437 C0.287839999,14.2249931 0.515430717,14.4296335 0.796051941,14.4890685 C1.07667317,14.5485036 1.36768506,14.4537022 1.55945161,14.2403799 L7.33871422,7.81897525 C7.48465125,7.65766949 7.55887955,7.44404517 7.54440787,7.22700201 Z" id="Shape"></path>
                </g>
            </g>
        </g>
    </g>
</svg>