<svg width="23" height="23" viewBox="0 0 23 23" fill="none" xmlns="http://www.w3.org/2000/svg">
<rect width="23" height="23" fill="white"/>
<path d="M7.61951 3.74634V3H2V8.61951H2.74634V4.27317L8.10244 9.62927L8.62927 9.10244L3.27317 3.74634H7.61951ZM14.3805 3V3.74634H18.7268L13.3707 9.10244L13.8976 9.62927L19.2537 4.27317V8.61951H20V3H14.3805ZM8.10244 14.3707L2.74634 19.7268V15.3805H2V21H7.61951V20.2537H3.27317L8.62927 14.8976L8.10244 14.3707ZM19.2537 19.7268L13.8976 14.3707L13.3707 14.8976L18.7268 20.2537H14.3805V21H20V15.3805H19.2537V19.7268Z" fill="#999999"/>
</svg>
